DBRep_DrawableShape

CASCADE Topology V1, (c) Matra-Datavision
Locations 0
Curve2ds 9
1 0 0 1 0 
1 0 1.5544021498072813 1 0 
1 0 0 1 0 
1 6.2831853071795862 0 0 1 
1 0 0 0 1 
1 0 2.4400819727209235 1 0 
2 0 0 1 0 -0 1 0.59999999999999998
1 6.2831853071795862 0 0 1 
1 0 0 0 1 
Curves 4
2 0.60991802727907629 0 0 1 0 0 -0 1 0 0 -0 1 0.60000000000000009
2 0.60991802727907651 -0.010000000000000245 0 0 0 -1 -0.99986561849028899 0.016393442622951216 0 0.016393442622951216 0.99986561849028899 0 0.61000000000000032
2 3.0499999999999998 0 0 1 0 0 -0 1 0 0 -0 1 0.59999999999999998
1 0.60991802727907629 0.59999999999999998 0 1 0 0 
Polygon3D 0
PolygonOnTriangulations 0
Surfaces 3
7 0 0 0 1 0 0 
8 0 1.5544021498072813
2 0.60991802727907651 -0.010000000000000245 0 0 0 -1 -0.99986561849028899 0.016393442622951216 0 0.016393442622951216 0.99986561849028899 0 0.61000000000000032
2 0.60991802727907629 0 0 1 0 0 -0 1 0 0 -0 1 0.59999999999999998
1 3.0499999999999998 0 0 1 0 0 -0 1 0 0 -0 1 
Triangulations 0

TShapes 16
Ve
1.00000000055518e-07
-5.55111516447472e-17 8.67361744449175e-19 0
0 0

0101101
*
Ed
 1.00000000055518e-07 1 1 1
2  1 1 0 0 6.28318530717959
0

0101000
+16 0 -16 0 *
Ve
1.00000000078505e-07
0.609918027279076 0.6 0
0 0

0101101
*
Ed
 1.00000000078505e-07 1 1 0
1  1 0 0 6.28318530717959
2  2 1 0 0 6.28318530717959
2  3 2 0 0 6.28318530717959
4 G1 1 0 2 0
0

0101000
+14 0 -14 0 *
Ed
 1e-07 1 1 0
1  2 0 0 1.55440214980728
3  4 5CN 1 0 0 1.55440214980728
0

0101000
+16 0 -14 0 *
Wi

0101100
+15 0 -13 0 -12 0 +12 0 *
Fa
0  1e-07 1 0

0101000
+11 0 *
Ve
1e-07
3.05 0.6 0
0 0

0101101
*
Ed
 1e-07 1 1 0
1  3 0 0 6.28318530717959
2  6 2 0 0 6.28318530717959
2  7 3 0 0 6.28318530717959
0

0101000
+9 0 -9 0 *
Ed
 1e-07 1 1 0
1  4 0 0 2.44008197272092
3  8 9CN 2 0 0 2.44008197272092
0

0101000
+14 0 -9 0 *
Wi

0101100
+13 0 -8 0 -7 0 +7 0 *
Fa
0  1e-07 2 0

0101000
+6 0 *
Wi

0101100
+8 0 *
Fa
0  1e-07 3 0

0101000
+4 0 *
Sh

0101100
+10 0 +5 0 +3 0 *
So

0100000
+2 0 *

+1 0 