DBRep_DrawableShape

CASCADE Topology V1, (c) Matra-Datavision
Locations 0
Curve2ds 9
1 0 0 1 0 
1 0 1.554402149807282 1 0 
1 0 0 1 0 
1 6.2831853071795862 0 0 1 
1 0 0 0 1 
1 0 1.3857640064729608 1 0 
2 0 0 1 0 -0 1 0.40749999999999997
1 6.2831853071795862 0 0 1 
1 0 0 0 1 
Curves 4
2 0.41423599352703921 0 0 1 0 0 -0 1 0 0 -0 1 0.40749999999999997
2 0.41423599352703921 -0.0067916666666666542 0 0 0 -1 -0.99986561849028899 0.016393442622950796 0 0.016393442622950796 0.99986561849028899 0 0.41429166666666656
2 1.8 0 0 1 0 0 -0 1 0 0 -0 1 0.40749999999999997
1 0.41423599352703921 0.40749999999999997 0 1 0 0 
Polygon3D 0
PolygonOnTriangulations 0
Surfaces 3
7 0 0 0 1 0 0 
8 0 1.554402149807282
2 0.41423599352703921 -0.0067916666666666542 0 0 0 -1 -0.99986561849028899 0.016393442622950796 0 0.016393442622950796 0.99986561849028899 0 0.41429166666666656
2 0.41423599352703921 0 0 1 0 0 -0 1 0 0 -0 1 0.40749999999999997
1 1.8 0 0 1 0 0 -0 1 0 0 -0 1 
Triangulations 0

TShapes 16
Ve
1.00000000000434e-07
0 4.33680868994202e-19 0
0 0

0101101
*
Ed
 1.00000000000434e-07 1 1 1
2  1 1 0 0 6.28318530717959
0

0101000
+16 0 -16 0 *
Ve
1e-07
0.414235993527039 0.4075 0
0 0

0101101
*
Ed
 1e-07 1 1 0
1  1 0 0 6.28318530717959
2  2 1 0 0 6.28318530717959
2  3 2 0 0 6.28318530717959
4 G1 1 0 2 0
0

0101000
+14 0 -14 0 *
Ed
 1e-07 1 1 0
1  2 0 0 1.55440214980728
3  4 5CN 1 0 0 1.55440214980728
0

0101000
+16 0 -14 0 *
Wi

0101100
+15 0 -13 0 -12 0 +12 0 *
Fa
0  1e-07 1 0

0101000
+11 0 *
Ve
1e-07
1.8 0.4075 0
0 0

0101101
*
Ed
 1e-07 1 1 0
1  3 0 0 6.28318530717959
2  6 2 0 0 6.28318530717959
2  7 3 0 0 6.28318530717959
0

0101000
+9 0 -9 0 *
Ed
 1e-07 1 1 0
1  4 0 0 1.38576400647296
3  8 9CN 2 0 0 1.38576400647296
0

0101000
+14 0 -9 0 *
Wi

0101100
+13 0 -8 0 -7 0 +7 0 *
Fa
0  1e-07 2 0

0101000
+6 0 *
Wi

0101100
+8 0 *
Fa
0  1e-07 3 0

0101000
+4 0 *
Sh

0101100
+10 0 +5 0 +3 0 *
So

0100000
+2 0 *

+1 0 