<?xml version="1.0" encoding="utf-8" standalone="no"?>
<!DOCTYPE svg PUBLIC "-//W3C//DTD SVG 1.1//EN"
  "http://www.w3.org/Graphics/SVG/1.1/DTD/svg11.dtd">
<svg xmlns:xlink="http://www.w3.org/1999/xlink" width="206.296403pt" height="224.400862pt" viewBox="0 0 206.296403 224.400862" xmlns="http://www.w3.org/2000/svg" version="1.1">
 <metadata>
  <rdf:RDF xmlns:dc="http://purl.org/dc/elements/1.1/" xmlns:cc="http://creativecommons.org/ns#" xmlns:rdf="http://www.w3.org/1999/02/22-rdf-syntax-ns#">
   <cc:Work>
    <dc:type rdf:resource="http://purl.org/dc/dcmitype/StillImage"/>
    <dc:date>2026-09-14T15:54:54.334074</dc:date>
    <dc:format>image/svg+xml</dc:format>
    <dc:creator>
     <cc:Agent>
      <dc:title>Matplotlib v3.7.2, https://matplotlib.org/</dc:title>
     </cc:Agent>
    </dc:creator>
   </cc:Work>
  </rdf:RDF>
 </metadata>
 <defs>
  <style type="text/css">*{stroke-linejoin: round; stroke-linecap: butt}</style>
 </defs>
 <g id="figure_1">
  <g id="patch_1">
   <path d="M 0 224.400862 
L 206.296403 224.400862 
L 206.296403 -0 
L 0 -0 
z
" style="fill: #ffffff"/>
  </g>
  <g id="axes_1">
   <g id="patch_2">
    <path d="M 181.655028 124.404702 
C 181.655028 114.358172 179.676081 104.409331 175.83144 95.127548 
C 171.9868 85.845765 166.351234 77.411545 159.247265 70.307576 
C 152.143295 63.203606 143.709076 57.568041 134.427293 53.7234 
C 125.145509 49.87876 115.196669 47.899812 105.150139 47.899812 
C 95.103609 47.899812 85.154769 49.87876 75.872986 53.7234 
C 66.591202 57.568041 58.156983 63.203606 51.053013 70.307576 
C 43.949044 77.411545 38.313479 85.845765 34.468838 95.127548 
C 30.624197 104.409331 28.64525 114.358172 28.64525 124.404702 
C 28.64525 134.451232 30.624197 144.400072 34.468838 153.681855 
C 38.313479 162.963639 43.949044 171.397858 51.053013 178.501827 
C 58.156983 185.605797 66.591202 191.241362 75.872986 195.086003 
C 85.154769 198.930643 95.103609 200.909591 105.150139 200.909591 
C 115.196669 200.909591 125.145509 198.930643 134.427293 195.086003 
C 143.709076 191.241362 152.143295 185.605797 159.247265 178.501827 
C 166.351234 171.397858 171.9868 162.963639 175.83144 153.681855 
C 179.676081 144.400072 181.655028 134.451232 181.655028 124.404702 
M 105.150139 124.404702 
C 105.150139 124.404702 105.150139 124.404702 105.150139 124.404702 
C 105.150139 124.404702 105.150139 124.404702 105.150139 124.404702 
C 105.150139 124.404702 105.150139 124.404702 105.150139 124.404702 
C 105.150139 124.404702 105.150139 124.404702 105.150139 124.404702 
C 105.150139 124.404702 105.150139 124.404702 105.150139 124.404702 
C 105.150139 124.404702 105.150139 124.404702 105.150139 124.404702 
C 105.150139 124.404702 105.150139 124.404702 105.150139 124.404702 
C 105.150139 124.404702 105.150139 124.404702 105.150139 124.404702 
C 105.150139 124.404702 105.150139 124.404702 105.150139 124.404702 
C 105.150139 124.404702 105.150139 124.404702 105.150139 124.404702 
C 105.150139 124.404702 105.150139 124.404702 105.150139 124.404702 
C 105.150139 124.404702 105.150139 124.404702 105.150139 124.404702 
C 105.150139 124.404702 105.150139 124.404702 105.150139 124.404702 
C 105.150139 124.404702 105.150139 124.404702 105.150139 124.404702 
C 105.150139 124.404702 105.150139 124.404702 105.150139 124.404702 
C 105.150139 124.404702 105.150139 124.404702 105.150139 124.404702 
z
" style="fill: #ffffff"/>
   </g>
   <g id="PathCollection_1">
    <defs>
     <path id="m6dfcd567c1" d="M 0 1.5 
C 0.397805 1.5 0.77937 1.341951 1.06066 1.06066 
C 1.341951 0.77937 1.5 0.397805 1.5 0 
C 1.5 -0.397805 1.341951 -0.77937 1.06066 -1.06066 
C 0.77937 -1.341951 0.397805 -1.5 0 -1.5 
C -0.397805 -1.5 -0.77937 -1.341951 -1.06066 -1.06066 
C -1.341951 -0.77937 -1.5 -0.397805 -1.5 0 
C -1.5 0.397805 -1.341951 0.77937 -1.06066 1.06066 
C -0.77937 1.341951 -0.397805 1.5 0 1.5 
z
" style="stroke: #d55e00; stroke-opacity: 0.75"/>
    </defs>
    <g clip-path="url(#p10f78005cb)">
     <use xlink:href="#m6dfcd567c1" x="118.993273" y="120.050563" style="fill: #d55e00; fill-opacity: 0.75; stroke: #d55e00; stroke-opacity: 0.75"/>
     <use xlink:href="#m6dfcd567c1" x="116.140357" y="120.947902" style="fill: #d55e00; fill-opacity: 0.75; stroke: #d55e00; stroke-opacity: 0.75"/>
     <use xlink:href="#m6dfcd567c1" x="117.816706" y="120.428943" style="fill: #d55e00; fill-opacity: 0.75; stroke: #d55e00; stroke-opacity: 0.75"/>
     <use xlink:href="#m6dfcd567c1" x="114.033632" y="121.616367" style="fill: #d55e00; fill-opacity: 0.75; stroke: #d55e00; stroke-opacity: 0.75"/>
     <use xlink:href="#m6dfcd567c1" x="109.767258" y="122.955489" style="fill: #d55e00; fill-opacity: 0.75; stroke: #d55e00; stroke-opacity: 0.75"/>
     <use xlink:href="#m6dfcd567c1" x="114.214236" y="121.55968" style="fill: #d55e00; fill-opacity: 0.75; stroke: #d55e00; stroke-opacity: 0.75"/>
     <use xlink:href="#m6dfcd567c1" x="145.736221" y="111.665618" style="fill: #d55e00; fill-opacity: 0.75; stroke: #d55e00; stroke-opacity: 0.75"/>
     <use xlink:href="#m6dfcd567c1" x="139.330044" y="113.676377" style="fill: #d55e00; fill-opacity: 0.75; stroke: #d55e00; stroke-opacity: 0.75"/>
     <use xlink:href="#m6dfcd567c1" x="140.534728" y="113.298253" style="fill: #d55e00; fill-opacity: 0.75; stroke: #d55e00; stroke-opacity: 0.75"/>
     <use xlink:href="#m6dfcd567c1" x="108.249839" y="123.431774" style="fill: #d55e00; fill-opacity: 0.75; stroke: #d55e00; stroke-opacity: 0.75"/>
     <use xlink:href="#m6dfcd567c1" x="124.607996" y="118.297306" style="fill: #d55e00; fill-opacity: 0.75; stroke: #d55e00; stroke-opacity: 0.75"/>
     <use xlink:href="#m6dfcd567c1" x="148.645951" y="110.752317" style="fill: #d55e00; fill-opacity: 0.75; stroke: #d55e00; stroke-opacity: 0.75"/>
     <use xlink:href="#m6dfcd567c1" x="133.950419" y="115.364923" style="fill: #d55e00; fill-opacity: 0.75; stroke: #d55e00; stroke-opacity: 0.75"/>
     <use xlink:href="#m6dfcd567c1" x="109.535748" y="123.028155" style="fill: #d55e00; fill-opacity: 0.75; stroke: #d55e00; stroke-opacity: 0.75"/>
     <use xlink:href="#m6dfcd567c1" x="112.252593" y="122.175397" style="fill: #d55e00; fill-opacity: 0.75; stroke: #d55e00; stroke-opacity: 0.75"/>
     <use xlink:href="#m6dfcd567c1" x="135.913438" y="114.748775" style="fill: #d55e00; fill-opacity: 0.75; stroke: #d55e00; stroke-opacity: 0.75"/>
     <use xlink:href="#m6dfcd567c1" x="156.746109" y="108.209855" style="fill: #d55e00; fill-opacity: 0.75; stroke: #d55e00; stroke-opacity: 0.75"/>
     <use xlink:href="#m6dfcd567c1" x="163.60915" y="106.055697" style="fill: #d55e00; fill-opacity: 0.75; stroke: #d55e00; stroke-opacity: 0.75"/>
     <use xlink:href="#m6dfcd567c1" x="118.796994" y="120.121252" style="fill: #d55e00; fill-opacity: 0.75; stroke: #d55e00; stroke-opacity: 0.75"/>
     <use xlink:href="#m6dfcd567c1" x="138.401047" y="113.967969" style="fill: #d55e00; fill-opacity: 0.75; stroke: #d55e00; stroke-opacity: 0.75"/>
     <use xlink:href="#m6dfcd567c1" x="158.410492" y="107.687442" style="fill: #d55e00; fill-opacity: 0.75; stroke: #d55e00; stroke-opacity: 0.75"/>
     <use xlink:href="#m6dfcd567c1" x="168.148103" y="104.631018" style="fill: #d55e00; fill-opacity: 0.75; stroke: #d55e00; stroke-opacity: 0.75"/>
     <use xlink:href="#m6dfcd567c1" x="164.858265" y="105.663627" style="fill: #d55e00; fill-opacity: 0.75; stroke: #d55e00; stroke-opacity: 0.75"/>
     <use xlink:href="#m6dfcd567c1" x="151.24509" y="109.936504" style="fill: #d55e00; fill-opacity: 0.75; stroke: #d55e00; stroke-opacity: 0.75"/>
     <use xlink:href="#m6dfcd567c1" x="164.791232" y="105.684667" style="fill: #d55e00; fill-opacity: 0.75; stroke: #d55e00; stroke-opacity: 0.75"/>
     <use xlink:href="#m6dfcd567c1" x="155.044267" y="108.744026" style="fill: #d55e00; fill-opacity: 0.75; stroke: #d55e00; stroke-opacity: 0.75"/>
     <use xlink:href="#m6dfcd567c1" x="171.910813" y="103.449986" style="fill: #d55e00; fill-opacity: 0.75; stroke: #d55e00; stroke-opacity: 0.75"/>
     <use xlink:href="#m6dfcd567c1" x="170.668504" y="103.83992" style="fill: #d55e00; fill-opacity: 0.75; stroke: #d55e00; stroke-opacity: 0.75"/>
     <use xlink:href="#m6dfcd567c1" x="171.054705" y="103.718699" style="fill: #d55e00; fill-opacity: 0.75; stroke: #d55e00; stroke-opacity: 0.75"/>
     <use xlink:href="#m6dfcd567c1" x="157.884376" y="107.852578" style="fill: #d55e00; fill-opacity: 0.75; stroke: #d55e00; stroke-opacity: 0.75"/>
     <use xlink:href="#m6dfcd567c1" x="108.289322" y="123.419381" style="fill: #d55e00; fill-opacity: 0.75; stroke: #d55e00; stroke-opacity: 0.75"/>
     <use xlink:href="#m6dfcd567c1" x="110.512877" y="122.721455" style="fill: #d55e00; fill-opacity: 0.75; stroke: #d55e00; stroke-opacity: 0.75"/>
     <use xlink:href="#m6dfcd567c1" x="137.20204" y="114.344311" style="fill: #d55e00; fill-opacity: 0.75; stroke: #d55e00; stroke-opacity: 0.75"/>
     <use xlink:href="#m6dfcd567c1" x="154.807861" y="108.818229" style="fill: #d55e00; fill-opacity: 0.75; stroke: #d55e00; stroke-opacity: 0.75"/>
     <use xlink:href="#m6dfcd567c1" x="167.312658" y="104.893246" style="fill: #d55e00; fill-opacity: 0.75; stroke: #d55e00; stroke-opacity: 0.75"/>
     <use xlink:href="#m6dfcd567c1" x="132.916099" y="115.689574" style="fill: #d55e00; fill-opacity: 0.75; stroke: #d55e00; stroke-opacity: 0.75"/>
     <use xlink:href="#m6dfcd567c1" x="145.550984" y="111.697255" style="fill: #d55e00; fill-opacity: 0.75; stroke: #d55e00; stroke-opacity: 0.75"/>
     <use xlink:href="#m6dfcd567c1" x="161.281798" y="106.786201" style="fill: #d55e00; fill-opacity: 0.75; stroke: #d55e00; stroke-opacity: 0.75"/>
     <use xlink:href="#m6dfcd567c1" x="120.480835" y="119.582674" style="fill: #d55e00; fill-opacity: 0.75; stroke: #d55e00; stroke-opacity: 0.75"/>
     <use xlink:href="#m6dfcd567c1" x="115.209716" y="121.240621" style="fill: #d55e00; fill-opacity: 0.75; stroke: #d55e00; stroke-opacity: 0.75"/>
     <use xlink:href="#m6dfcd567c1" x="130.43057" y="116.453142" style="fill: #d55e00; fill-opacity: 0.75; stroke: #d55e00; stroke-opacity: 0.75"/>
     <use xlink:href="#m6dfcd567c1" x="162.699611" y="106.303426" style="fill: #d55e00; fill-opacity: 0.75; stroke: #d55e00; stroke-opacity: 0.75"/>
     <use xlink:href="#m6dfcd567c1" x="169.17408" y="104.308987" style="fill: #d55e00; fill-opacity: 0.75; stroke: #d55e00; stroke-opacity: 0.75"/>
     <use xlink:href="#m6dfcd567c1" x="163.272697" y="106.123171" style="fill: #d55e00; fill-opacity: 0.75; stroke: #d55e00; stroke-opacity: 0.75"/>
     <use xlink:href="#m6dfcd567c1" x="162.392308" y="106.400083" style="fill: #d55e00; fill-opacity: 0.75; stroke: #d55e00; stroke-opacity: 0.75"/>
     <use xlink:href="#m6dfcd567c1" x="137.000346" y="114.386723" style="fill: #d55e00; fill-opacity: 0.75; stroke: #d55e00; stroke-opacity: 0.75"/>
     <use xlink:href="#m6dfcd567c1" x="148.654004" y="110.72125" style="fill: #d55e00; fill-opacity: 0.75; stroke: #d55e00; stroke-opacity: 0.75"/>
     <use xlink:href="#m6dfcd567c1" x="143.89921" y="112.216795" style="fill: #d55e00; fill-opacity: 0.75; stroke: #d55e00; stroke-opacity: 0.75"/>
     <use xlink:href="#m6dfcd567c1" x="153.756621" y="109.116302" style="fill: #d55e00; fill-opacity: 0.75; stroke: #d55e00; stroke-opacity: 0.75"/>
     <use xlink:href="#m6dfcd567c1" x="112.720817" y="122.023465" style="fill: #d55e00; fill-opacity: 0.75; stroke: #d55e00; stroke-opacity: 0.75"/>
     <use xlink:href="#m6dfcd567c1" x="113.974198" y="121.629233" style="fill: #d55e00; fill-opacity: 0.75; stroke: #d55e00; stroke-opacity: 0.75"/>
     <use xlink:href="#m6dfcd567c1" x="138.152871" y="114.024215" style="fill: #d55e00; fill-opacity: 0.75; stroke: #d55e00; stroke-opacity: 0.75"/>
     <use xlink:href="#m6dfcd567c1" x="111.363102" y="122.450512" style="fill: #d55e00; fill-opacity: 0.75; stroke: #d55e00; stroke-opacity: 0.75"/>
     <use xlink:href="#m6dfcd567c1" x="117.016979" y="120.672175" style="fill: #d55e00; fill-opacity: 0.75; stroke: #d55e00; stroke-opacity: 0.75"/>
     <use xlink:href="#m6dfcd567c1" x="145.568468" y="111.691756" style="fill: #d55e00; fill-opacity: 0.75; stroke: #d55e00; stroke-opacity: 0.75"/>
    </g>
   </g>
   <g id="PathCollection_2">
    <defs>
     <path id="mdbdbc50579" d="M 0 1.5 
C 0.397805 1.5 0.77937 1.341951 1.06066 1.06066 
C 1.341951 0.77937 1.5 0.397805 1.5 0 
C 1.5 -0.397805 1.341951 -0.77937 1.06066 -1.06066 
C 0.77937 -1.341951 0.397805 -1.5 0 -1.5 
C -0.397805 -1.5 -0.77937 -1.341951 -1.06066 -1.06066 
C -1.341951 -0.77937 -1.5 -0.397805 -1.5 0 
C -1.5 0.397805 -1.341951 0.77937 -1.06066 1.06066 
C -0.77937 1.341951 -0.397805 1.5 0 1.5 
z
" style="stroke: #009e73; stroke-opacity: 0.75"/>
    </defs>
    <g clip-path="url(#p10f78005cb)">
     <use xlink:href="#mdbdbc50579" x="93.032185" y="121.788781" style="fill: #009e73; fill-opacity: 0.75; stroke: #009e73; stroke-opacity: 0.75"/>
     <use xlink:href="#mdbdbc50579" x="84.715021" y="119.843397" style="fill: #009e73; fill-opacity: 0.75; stroke: #009e73; stroke-opacity: 0.75"/>
     <use xlink:href="#mdbdbc50579" x="95.528203" y="122.267527" style="fill: #009e73; fill-opacity: 0.75; stroke: #009e73; stroke-opacity: 0.75"/>
    </g>
   </g>
   <g id="PathCollection_3">
    <defs>
     <path id="me083a2e26d" d="M 0 1.5 
C 0.397805 1.5 0.77937 1.341951 1.06066 1.06066 
C 1.341951 0.77937 1.5 0.397805 1.5 0 
C 1.5 -0.397805 1.341951 -0.77937 1.06066 -1.06066 
C 0.77937 -1.341951 0.397805 -1.5 0 -1.5 
C -0.397805 -1.5 -0.77937 -1.341951 -1.06066 -1.06066 
C -1.341951 -0.77937 -1.5 -0.397805 -1.5 0 
C -1.5 0.397805 -1.341951 0.77937 -1.06066 1.06066 
C -0.77937 1.341951 -0.397805 1.5 0 1.5 
z
" style="stroke: #5b6573; stroke-opacity: 0.75"/>
    </defs>
    <g clip-path="url(#p10f78005cb)">
     <use xlink:href="#me083a2e26d" x="102.941853" y="123.927996" style="fill: #5b6573; fill-opacity: 0.75; stroke: #5b6573; stroke-opacity: 0.75"/>
     <use xlink:href="#me083a2e26d" x="86.59183" y="120.398493" style="fill: #5b6573; fill-opacity: 0.75; stroke: #5b6573; stroke-opacity: 0.75"/>
     <use xlink:href="#me083a2e26d" x="87.126053" y="120.401284" style="fill: #5b6573; fill-opacity: 0.75; stroke: #5b6573; stroke-opacity: 0.75"/>
    </g>
   </g>
   <g id="matplotlib.axis_1">
    <g id="xtick_1">
     <g id="line2d_1">
      <path d="M 105.150139 124.404702 
L 181.655028 124.404702 
" clip-path="url(#p10f78005cb)" style="fill: none; stroke: #b0b0b0; stroke-width: 0.8; stroke-linecap: square"/>
     </g>
     <g id="text_1">
      <text style="font: 7.2px 'Arial', 'Helvetica', 'DejaVu Sans', sans-serif; text-anchor: middle" x="195.655028" y="126.266014" transform="rotate(-0 195.655028 126.266014)">0°</text>
     </g>
    </g>
    <g id="xtick_2">
     <g id="line2d_2">
      <path d="M 105.150139 124.404702 
L 159.247265 70.307576 
" clip-path="url(#p10f78005cb)" style="fill: none; stroke: #b0b0b0; stroke-width: 0.8; stroke-linecap: square"/>
     </g>
     <g id="text_2">
      <text style="font: 7.2px 'Arial', 'Helvetica', 'DejaVu Sans', sans-serif; text-anchor: middle" x="169.14676" y="62.269393" transform="rotate(-0 169.14676 62.269393)">45°</text>
     </g>
    </g>
    <g id="xtick_3">
     <g id="line2d_3">
      <path d="M 105.150139 124.404702 
L 105.150139 47.899812 
" clip-path="url(#p10f78005cb)" style="fill: none; stroke: #b0b0b0; stroke-width: 0.8; stroke-linecap: square"/>
     </g>
     <g id="text_3">
      <text style="font: 7.2px 'Arial', 'Helvetica', 'DejaVu Sans', sans-serif; text-anchor: middle" x="105.150139" y="35.761125" transform="rotate(-0 105.150139 35.761125)">90°</text>
     </g>
    </g>
    <g id="xtick_4">
     <g id="line2d_4">
      <path d="M 105.150139 124.404702 
L 51.053013 70.307576 
" clip-path="url(#p10f78005cb)" style="fill: none; stroke: #b0b0b0; stroke-width: 0.8; stroke-linecap: square"/>
     </g>
     <g id="text_4">
      <text style="font: 7.2px 'Arial', 'Helvetica', 'DejaVu Sans', sans-serif; text-anchor: middle" x="41.153518" y="62.269393" transform="rotate(-0 41.153518 62.269393)">135°</text>
     </g>
    </g>
    <g id="xtick_5">
     <g id="line2d_5">
      <path d="M 105.150139 124.404702 
L 28.64525 124.404702 
" clip-path="url(#p10f78005cb)" style="fill: none; stroke: #b0b0b0; stroke-width: 0.8; stroke-linecap: square"/>
     </g>
     <g id="text_5">
      <text style="font: 7.2px 'Arial', 'Helvetica', 'DejaVu Sans', sans-serif; text-anchor: middle" x="14.64525" y="126.266014" transform="rotate(-0 14.64525 126.266014)">180°</text>
     </g>
    </g>
    <g id="xtick_6">
     <g id="line2d_6">
      <path d="M 105.150139 124.404702 
L 51.053013 178.501827 
" clip-path="url(#p10f78005cb)" style="fill: none; stroke: #b0b0b0; stroke-width: 0.8; stroke-linecap: square"/>
     </g>
     <g id="text_6">
      <text style="font: 7.2px 'Arial', 'Helvetica', 'DejaVu Sans', sans-serif; text-anchor: middle" x="41.153518" y="190.262635" transform="rotate(-0 41.153518 190.262635)">225°</text>
     </g>
    </g>
    <g id="xtick_7">
     <g id="line2d_7">
      <path d="M 105.150139 124.404702 
L 159.247265 178.501827 
" clip-path="url(#p10f78005cb)" style="fill: none; stroke: #b0b0b0; stroke-width: 0.8; stroke-linecap: square"/>
     </g>
     <g id="text_7">
      <text style="font: 7.2px 'Arial', 'Helvetica', 'DejaVu Sans', sans-serif; text-anchor: middle" x="169.14676" y="190.262635" transform="rotate(-0 169.14676 190.262635)">315°</text>
     </g>
    </g>
   </g>
   <g id="matplotlib.axis_2">
    <g id="ytick_1">
     <g id="line2d_8">
      <path d="M 123.365589 124.404702 
C 123.365589 122.012671 122.894411 119.643899 121.97902 117.433951 
C 121.06363 115.224002 119.721828 113.215855 118.030407 111.524434 
C 116.338986 109.833012 114.330838 108.491211 112.12089 107.57582 
C 109.910942 106.66043 107.54217 106.189252 105.150139 106.189252 
C 102.758108 106.189252 100.389337 106.66043 98.179388 107.57582 
C 95.96944 108.491211 93.961292 109.833012 92.269871 111.524434 
C 90.57845 113.215855 89.236648 115.224002 88.321258 117.433951 
C 87.405867 119.643899 86.934689 122.012671 86.934689 124.404702 
C 86.934689 126.796733 87.405867 129.165504 88.321258 131.375452 
C 89.236648 133.585401 90.57845 135.593548 92.269871 137.28497 
C 93.961292 138.976391 95.96944 140.318192 98.179388 141.233583 
C 100.389337 142.148973 102.758108 142.620151 105.150139 142.620151 
C 107.54217 142.620151 109.910942 142.148973 112.12089 141.233583 
C 114.330838 140.318192 116.338986 138.976391 118.030407 137.28497 
C 119.721828 135.593548 121.06363 133.585401 121.97902 131.375452 
C 122.894411 129.165504 123.365589 126.796733 123.365589 124.404702 
" clip-path="url(#p10f78005cb)" style="fill: none; stroke: #b0b0b0; stroke-width: 0.8; stroke-linecap: square"/>
     </g>
     <g id="text_8">
      <text style="font: 7.2px 'Arial', 'Helvetica', 'DejaVu Sans', sans-serif; text-anchor: start" x="121.97902" y="116.002951" transform="rotate(-0 121.97902 116.002951)">15</text>
     </g>
    </g>
    <g id="ytick_2">
     <g id="line2d_9">
      <path d="M 141.581039 124.404702 
C 141.581039 119.62064 140.638683 114.883097 138.807902 110.4632 
C 136.97712 106.043303 134.293518 102.027008 130.910675 98.644165 
C 127.527833 95.261323 123.511538 92.57772 119.091641 90.746939 
C 114.671744 88.916158 109.934201 87.973802 105.150139 87.973802 
C 100.366077 87.973802 95.628534 88.916158 91.208637 90.746939 
C 86.788741 92.57772 82.772446 95.261323 79.389603 98.644165 
C 76.00676 102.027008 73.323158 106.043303 71.492377 110.4632 
C 69.661595 114.883097 68.71924 119.62064 68.71924 124.404702 
C 68.71924 129.188763 69.661595 133.926306 71.492377 138.346203 
C 73.323158 142.7661 76.00676 146.782395 79.389603 150.165238 
C 82.772446 153.54808 86.788741 156.231683 91.208637 158.062464 
C 95.628534 159.893245 100.366077 160.835601 105.150139 160.835601 
C 109.934201 160.835601 114.671744 159.893245 119.091641 158.062464 
C 123.511538 156.231683 127.527833 153.54808 130.910675 150.165238 
C 134.293518 146.782395 136.97712 142.7661 138.807902 138.346203 
C 140.638683 133.926306 141.581039 129.188763 141.581039 124.404702 
" clip-path="url(#p10f78005cb)" style="fill: none; stroke: #b0b0b0; stroke-width: 0.8; stroke-linecap: square"/>
     </g>
     <g id="text_9">
      <text style="font: 7.2px 'Arial', 'Helvetica', 'DejaVu Sans', sans-serif; text-anchor: start" x="138.807902" y="109.0322" transform="rotate(-0 138.807902 109.0322)">10</text>
     </g>
    </g>
    <g id="ytick_3">
     <g id="line2d_10">
      <path d="M 159.796488 124.404702 
C 159.796488 117.228609 158.382955 110.122294 155.636783 103.492449 
C 152.890611 96.862604 148.865207 90.838161 143.790943 85.763897 
C 138.716679 80.689633 132.692237 76.66423 126.062392 73.918058 
C 119.432546 71.171886 112.326232 69.758352 105.150139 69.758352 
C 97.974046 69.758352 90.867732 71.171886 84.237887 73.918058 
C 77.608041 76.66423 71.583599 80.689633 66.509335 85.763897 
C 61.435071 90.838161 57.409667 96.862604 54.663495 103.492449 
C 51.917324 110.122294 50.50379 117.228609 50.50379 124.404702 
C 50.50379 131.580794 51.917324 138.687109 54.663495 145.316954 
C 57.409667 151.946799 61.435071 157.971242 66.509335 163.045506 
C 71.583599 168.11977 77.608041 172.145173 84.237887 174.891345 
C 90.867732 177.637517 97.974046 179.051051 105.150139 179.051051 
C 112.326232 179.051051 119.432546 177.637517 126.062392 174.891345 
C 132.692237 172.145173 138.716679 168.11977 143.790943 163.045506 
C 148.865207 157.971242 152.890611 151.946799 155.636783 145.316954 
C 158.382955 138.687109 159.796488 131.580794 159.796488 124.404702 
" clip-path="url(#p10f78005cb)" style="fill: none; stroke: #b0b0b0; stroke-width: 0.8; stroke-linecap: square"/>
     </g>
     <g id="text_10">
      <text style="font: 7.2px 'Arial', 'Helvetica', 'DejaVu Sans', sans-serif; text-anchor: start" x="155.636783" y="102.061449" transform="rotate(-0 155.636783 102.061449)">5</text>
     </g>
    </g>
    <g id="ytick_4">
     <g id="line2d_11">
      <path d="M 178.011938 124.404702 
C 178.011938 114.836578 176.127226 105.361492 172.465664 96.521698 
C 168.804102 87.681904 163.436897 79.649315 156.671211 72.883629 
C 149.905526 66.117944 141.872936 60.750739 133.033142 57.089177 
C 124.193349 53.427614 114.718263 51.542902 105.150139 51.542902 
C 95.582015 51.542902 86.106929 53.427614 77.267136 57.089177 
C 68.427342 60.750739 60.394752 66.117944 53.629067 72.883629 
C 46.863382 79.649315 41.496177 87.681904 37.834614 96.521698 
C 34.173052 105.361492 32.28834 114.836578 32.28834 124.404702 
C 32.28834 133.972825 34.173052 143.447911 37.834614 152.287705 
C 41.496177 161.127499 46.863382 169.160089 53.629067 175.925774 
C 60.394752 182.691459 68.427342 188.058664 77.267136 191.720227 
C 86.106929 195.381789 95.582015 197.266501 105.150139 197.266501 
C 114.718263 197.266501 124.193349 195.381789 133.033142 191.720227 
C 141.872936 188.058664 149.905526 182.691459 156.671211 175.925774 
C 163.436897 169.160089 168.804102 161.127499 172.465664 152.287705 
C 176.127226 143.447911 178.011938 133.972825 178.011938 124.404702 
" clip-path="url(#p10f78005cb)" style="fill: none; stroke: #b0b0b0; stroke-width: 0.8; stroke-linecap: square"/>
     </g>
     <g id="text_11">
      <text style="font: 7.2px 'Arial', 'Helvetica', 'DejaVu Sans', sans-serif; text-anchor: start" x="172.465664" y="95.090698" transform="rotate(-0 172.465664 95.090698)">0</text>
     </g>
    </g>
   </g>
   <g id="patch_3">
    <path d="M 181.655028 124.404702 
C 181.655028 114.358172 179.676081 104.409331 175.83144 95.127548 
C 171.9868 85.845765 166.351234 77.411545 159.247265 70.307576 
C 152.143295 63.203606 143.709076 57.568041 134.427293 53.7234 
C 125.145509 49.87876 115.196669 47.899812 105.150139 47.899812 
C 95.103609 47.899812 85.154769 49.87876 75.872986 53.7234 
C 66.591202 57.568041 58.156983 63.203606 51.053013 70.307576 
C 43.949044 77.411545 38.313479 85.845765 34.468838 95.127548 
C 30.624197 104.409331 28.64525 114.358172 28.64525 124.404702 
C 28.64525 134.451232 30.624197 144.400072 34.468838 153.681855 
C 38.313479 162.963639 43.949044 171.397858 51.053013 178.501827 
C 58.156983 185.605797 66.591202 191.241362 75.872986 195.086003 
C 85.154769 198.930643 95.103609 200.909591 105.150139 200.909591 
C 115.196669 200.909591 125.145509 198.930643 134.427293 195.086003 
C 143.709076 191.241362 152.143295 185.605797 159.247265 178.501827 
C 166.351234 171.397858 171.9868 162.963639 175.83144 153.681855 
C 179.676081 144.400072 181.655028 134.451232 181.655028 124.404702 
" style="fill: none; stroke: #000000; stroke-width: 0.8; stroke-linejoin: miter; stroke-linecap: square"/>
   </g>
   <g id="text_12">
    <text style="font: 8px 'Arial', 'Helvetica', 'DejaVu Sans', sans-serif" transform="translate(70.318264 13.02375)">midpoint | 6.519 ms</text>
    <text style="font: 8px 'Arial', 'Helvetica', 'DejaVu Sans', sans-serif" transform="translate(84.470139 21.6075)">tilt 79.8 deg</text>
   </g>
   <g id="legend_1">
    <g id="PathCollection_4">
     <g>
      <use xlink:href="#m6dfcd567c1" x="19.373783" y="210.999862" style="fill: #d55e00; fill-opacity: 0.75; stroke: #d55e00; stroke-opacity: 0.75"/>
     </g>
    </g>
    <g id="text_13">
     <text style="font: 7.2px 'Arial', 'Helvetica', 'DejaVu Sans', sans-serif; text-anchor: start" x="32.333783" y="212.889862" transform="rotate(-0 32.333783 212.889862)">HEAD</text>
    </g>
    <g id="PathCollection_5">
     <g>
      <use xlink:href="#mdbdbc50579" x="73.938533" y="210.999862" style="fill: #009e73; fill-opacity: 0.75; stroke: #009e73; stroke-opacity: 0.75"/>
     </g>
    </g>
    <g id="text_14">
     <text style="font: 7.2px 'Arial', 'Helvetica', 'DejaVu Sans', sans-serif; text-anchor: start" x="86.898533" y="212.889862" transform="rotate(-0 86.898533 212.889862)">TAIL</text>
    </g>
    <g id="PathCollection_6">
     <g>
      <use xlink:href="#me083a2e26d" x="123.171908" y="210.999862" style="fill: #5b6573; fill-opacity: 0.75; stroke: #5b6573; stroke-opacity: 0.75"/>
     </g>
    </g>
    <g id="text_15">
     <text style="font: 7.2px 'Arial', 'Helvetica', 'DejaVu Sans', sans-serif; text-anchor: start" x="136.131908" y="212.889862" transform="rotate(-0 136.131908 212.889862)">BODY</text>
    </g>
   </g>
  </g>
 </g>
 <defs>
  <clipPath id="p10f78005cb">
   <path d="M 181.655028 124.404702 
C 181.655028 114.358172 179.676081 104.409331 175.83144 95.127548 
C 171.9868 85.845765 166.351234 77.411545 159.247265 70.307576 
C 152.143295 63.203606 143.709076 57.568041 134.427293 53.7234 
C 125.145509 49.87876 115.196669 47.899812 105.150139 47.899812 
C 95.103609 47.899812 85.154769 49.87876 75.872986 53.7234 
C 66.591202 57.568041 58.156983 63.203606 51.053013 70.307576 
C 43.949044 77.411545 38.313479 85.845765 34.468838 95.127548 
C 30.624197 104.409331 28.64525 114.358172 28.64525 124.404702 
C 28.64525 134.451232 30.624197 144.400072 34.468838 153.681855 
C 38.313479 162.963639 43.949044 171.397858 51.053013 178.501827 
C 58.156983 185.605797 66.591202 191.241362 75.872986 195.086003 
C 85.154769 198.930643 95.103609 200.909591 105.150139 200.909591 
C 115.196669 200.909591 125.145509 198.930643 134.427293 195.086003 
C 143.709076 191.241362 152.143295 185.605797 159.247265 178.501827 
C 166.351234 171.397858 171.9868 162.963639 175.83144 153.681855 
C 179.676081 144.400072 181.655028 134.451232 181.655028 124.404702 
M 105.150139 124.404702 
C 105.150139 124.404702 105.150139 124.404702 105.150139 124.404702 
C 105.150139 124.404702 105.150139 124.404702 105.150139 124.404702 
C 105.150139 124.404702 105.150139 124.404702 105.150139 124.404702 
C 105.150139 124.404702 105.150139 124.404702 105.150139 124.404702 
C 105.150139 124.404702 105.150139 124.404702 105.150139 124.404702 
C 105.150139 124.404702 105.150139 124.404702 105.150139 124.404702 
C 105.150139 124.404702 105.150139 124.404702 105.150139 124.404702 
C 105.150139 124.404702 105.150139 124.404702 105.150139 124.404702 
C 105.150139 124.404702 105.150139 124.404702 105.150139 124.404702 
C 105.150139 124.404702 105.150139 124.404702 105.150139 124.404702 
C 105.150139 124.404702 105.150139 124.404702 105.150139 124.404702 
C 105.150139 124.404702 105.150139 124.404702 105.150139 124.404702 
C 105.150139 124.404702 105.150139 124.404702 105.150139 124.404702 
C 105.150139 124.404702 105.150139 124.404702 105.150139 124.404702 
C 105.150139 124.404702 105.150139 124.404702 105.150139 124.404702 
C 105.150139 124.404702 105.150139 124.404702 105.150139 124.404702 
z
"/>
  </clipPath>
 </defs>
</svg>
