  0
SECTION
  2
HEADER
  9
$ACADVER
  1
AC1024
  9
$ACADMAINTVER
 70
6
  9
$DWGCODEPAGE
  3
ANSI_1252
  9
$LASTSAVEDBY
  1
ezdxf
  9
$INSBASE
 10
0.0
 20
0.0
 30
0.0
  9
$EXTMIN
 10
1e+20
 20
1e+20
 30
1e+20
  9
$EXTMAX
 10
-1e+20
 20
-1e+20
 30
-1e+20
  9
$LIMMIN
 10
0.0
 20
0.0
  9
$LIMMAX
 10
420.0
 20
297.0
  9
$ORTHOMODE
 70
0
  9
$REGENMODE
 70
1
  9
$FILLMODE
 70
1
  9
$QTEXTMODE
 70
0
  9
$MIRRTEXT
 70
1
  9
$LTSCALE
 40
1.0
  9
$ATTMODE
 70
1
  9
$TEXTSIZE
 40
2.5
  9
$TRACEWID
 40
1.0
  9
$TEXTSTYLE
  7
Standard
  9
$CLAYER
  8
0
  9
$CELTYPE
  6
ByLayer
  9
$CECOLOR
 62
256
  9
$CELTSCALE
 40
1.0
  9
$DISPSILH
 70
0
  9
$DIMSCALE
 40
1.0
  9
$DIMASZ
 40
2.5
  9
$DIMEXO
 40
0.625
  9
$DIMDLI
 40
3.75
  9
$DIMRND
 40
0.0
  9
$DIMDLE
 40
0.0
  9
$DIMEXE
 40
1.25
  9
$DIMTP
 40
0.0
  9
$DIMTM
 40
0.0
  9
$DIMTXT
 40
2.5
  9
$DIMCEN
 40
2.5
  9
$DIMTSZ
 40
0.0
  9
$DIMTOL
 70
0
  9
$DIMLIM
 70
0
  9
$DIMTIH
 70
0
  9
$DIMTOH
 70
0
  9
$DIMSE1
 70
0
  9
$DIMSE2
 70
0
  9
$DIMTAD
 70
1
  9
$DIMZIN
 70
8
  9
$DIMBLK
  1

  9
$DIMASO
 70
1
  9
$DIMSHO
 70
1
  9
$DIMPOST
  1

  9
$DIMAPOST
  1

  9
$DIMALT
 70
0
  9
$DIMALTD
 70
3
  9
$DIMALTF
 40
0.03937007874
  9
$DIMLFAC
 40
1.0
  9
$DIMTOFL
 70
1
  9
$DIMTVP
 40
0.0
  9
$DIMTIX
 70
0
  9
$DIMSOXD
 70
0
  9
$DIMSAH
 70
0
  9
$DIMBLK1
  1

  9
$DIMBLK2
  1

  9
$DIMSTYLE
  2
ISO-25
  9
$DIMCLRD
 70
0
  9
$DIMCLRE
 70
0
  9
$DIMCLRT
 70
0
  9
$DIMTFAC
 40
1.0
  9
$DIMGAP
 40
0.625
  9
$DIMJUST
 70
0
  9
$DIMSD1
 70
0
  9
$DIMSD2
 70
0
  9
$DIMTOLJ
 70
0
  9
$DIMTZIN
 70
8
  9
$DIMALTZ
 70
0
  9
$DIMALTTZ
 70
0
  9
$DIMUPT
 70
0
  9
$DIMDEC
 70
2
  9
$DIMTDEC
 70
2
  9
$DIMALTU
 70
2
  9
$DIMALTTD
 70
3
  9
$DIMTXSTY
  7
Standard
  9
$DIMAUNIT
 70
0
  9
$DIMADEC
 70
0
  9
$DIMALTRND
 40
0.0
  9
$DIMAZIN
 70
0
  9
$DIMDSEP
 70
44
  9
$DIMATFIT
 70
3
  9
$DIMFRAC
 70
0
  9
$DIMLDRBLK
  1

  9
$DIMLUNIT
 70
2
  9
$DIMLWD
 70
-2
  9
$DIMLWE
 70
-2
  9
$DIMTMOVE
 70
0
  9
$DIMFXL
 40
1.0
  9
$DIMFXLON
 70
0
  9
$DIMJOGANG
 40
0.785398163397
  9
$DIMTFILL
 70
0
  9
$DIMTFILLCLR
 70
0
  9
$DIMARCSYM
 70
0
  9
$DIMLTYPE
  6

  9
$DIMLTEX1
  6

  9
$DIMLTEX2
  6

  9
$DIMTXTDIRECTION
 70
0
  9
$LUNITS
 70
2
  9
$LUPREC
 70
4
  9
$SKETCHINC
 40
1.0
  9
$FILLETRAD
 40
10.0
  9
$AUNITS
 70
0
  9
$AUPREC
 70
2
  9
$MENU
  1
.
  9
$ELEVATION
 40
0.0
  9
$PELEVATION
 40
0.0
  9
$THICKNESS
 40
0.0
  9
$LIMCHECK
 70
0
  9
$CHAMFERA
 40
0.0
  9
$CHAMFERB
 40
0.0
  9
$CHAMFERC
 40
0.0
  9
$CHAMFERD
 40
0.0
  9
$SKPOLY
 70
0
  9
$TDCREATE
 40
2461299.6782291667
  9
$TDUCREATE
 40
2458532.153996898
  9
$TDUPDATE
 40
2461299.6782291667
  9
$TDUUPDATE
 40
2458532.1544311
  9
$TDINDWG
 40
0.0
  9
$TDUSRTIMER
 40
0.0
  9
$USRTIMER
 70
1
  9
$ANGBASE
 50
0.0
  9
$ANGDIR
 70
0
  9
$PDMODE
 70
0
  9
$PDSIZE
 40
0.0
  9
$PLINEWID
 40
0.0
  9
$SPLFRAME
 70
0
  9
$SPLINETYPE
 70
6
  9
$SPLINESEGS
 70
8
  9
$HANDSEED
  5
2C7
  9
$SURFTAB1
 70
6
  9
$SURFTAB2
 70
6
  9
$SURFTYPE
 70
6
  9
$SURFU
 70
6
  9
$SURFV
 70
6
  9
$UCSBASE
  2

  9
$UCSNAME
  2

  9
$UCSORG
 10
0.0
 20
0.0
 30
0.0
  9
$UCSXDIR
 10
1.0
 20
0.0
 30
0.0
  9
$UCSYDIR
 10
0.0
 20
1.0
 30
0.0
  9
$UCSORTHOREF
  2

  9
$UCSORTHOVIEW
 70
0
  9
$UCSORGTOP
 10
0.0
 20
0.0
 30
0.0
  9
$UCSORGBOTTOM
 10
0.0
 20
0.0
 30
0.0
  9
$UCSORGLEFT
 10
0.0
 20
0.0
 30
0.0
  9
$UCSORGRIGHT
 10
0.0
 20
0.0
 30
0.0
  9
$UCSORGFRONT
 10
0.0
 20
0.0
 30
0.0
  9
$UCSORGBACK
 10
0.0
 20
0.0
 30
0.0
  9
$PUCSBASE
  2

  9
$PUCSNAME
  2

  9
$PUCSORG
 10
0.0
 20
0.0
 30
0.0
  9
$PUCSXDIR
 10
1.0
 20
0.0
 30
0.0
  9
$PUCSYDIR
 10
0.0
 20
1.0
 30
0.0
  9
$PUCSORTHOREF
  2

  9
$PUCSORTHOVIEW
 70
0
  9
$PUCSORGTOP
 10
0.0
 20
0.0
 30
0.0
  9
$PUCSORGBOTTOM
 10
0.0
 20
0.0
 30
0.0
  9
$PUCSORGLEFT
 10
0.0
 20
0.0
 30
0.0
  9
$PUCSORGRIGHT
 10
0.0
 20
0.0
 30
0.0
  9
$PUCSORGFRONT
 10
0.0
 20
0.0
 30
0.0
  9
$PUCSORGBACK
 10
0.0
 20
0.0
 30
0.0
  9
$USERI1
 70
0
  9
$USERI2
 70
0
  9
$USERI3
 70
0
  9
$USERI4
 70
0
  9
$USERI5
 70
0
  9
$USERR1
 40
0.0
  9
$USERR2
 40
0.0
  9
$USERR3
 40
0.0
  9
$USERR4
 40
0.0
  9
$USERR5
 40
0.0
  9
$WORLDVIEW
 70
1
  9
$SHADEDGE
 70
3
  9
$SHADEDIF
 70
70
  9
$TILEMODE
 70
1
  9
$MAXACTVP
 70
64
  9
$PINSBASE
 10
0.0
 20
0.0
 30
0.0
  9
$PLIMCHECK
 70
0
  9
$PEXTMIN
 10
1e+20
 20
1e+20
 30
1e+20
  9
$PEXTMAX
 10
-1e+20
 20
-1e+20
 30
-1e+20
  9
$PLIMMIN
 10
0.0
 20
0.0
  9
$PLIMMAX
 10
420.0
 20
297.0
  9
$UNITMODE
 70
0
  9
$VISRETAIN
 70
1
  9
$PLINEGEN
 70
0
  9
$PSLTSCALE
 70
1
  9
$TREEDEPTH
 70
3020
  9
$CMLSTYLE
  2
Standard
  9
$CMLJUST
 70
0
  9
$CMLSCALE
 40
20.0
  9
$PROXYGRAPHICS
 70
1
  9
$MEASUREMENT
 70
1
  9
$CELWEIGHT
370
-1
  9
$ENDCAPS
280
0
  9
$JOINSTYLE
280
0
  9
$LWDISPLAY
290
0
  9
$INSUNITS
 70
6
  9
$HYPERLINKBASE
  1

  9
$STYLESHEET
  1

  9
$XEDIT
290
1
  9
$CEPSNTYPE
380
0
  9
$PSTYLEMODE
290
1
  9
$FINGERPRINTGUID
  2
{0D78772A-E948-44FD-88B9-EEA8290B8596}
  9
$VERSIONGUID
  2
{602C28D1-CE13-465F-8C8D-DD00C177DD20}
  9
$EXTNAMES
290
1
  9
$PSVPSCALE
 40
0.0
  9
$OLESTARTUP
290
0
  9
$SORTENTS
280
127
  9
$INDEXCTL
280
0
  9
$HIDETEXT
280
1
  9
$XCLIPFRAME
280
1
  9
$HALOGAP
280
0
  9
$OBSCOLOR
 70
257
  9
$OBSLTYPE
280
0
  9
$INTERSECTIONDISPLAY
280
0
  9
$INTERSECTIONCOLOR
 70
257
  9
$DIMASSOC
280
2
  9
$PROJECTNAME
  1

  9
$CAMERADISPLAY
290
0
  9
$LENSLENGTH
 40
50.0
  9
$CAMERAHEIGHT
 40
0.0
  9
$STEPSPERSEC
 40
24.0
  9
$STEPSIZE
 40
100.0
  9
$3DDWFPREC
 40
2.0
  9
$PSOLWIDTH
 40
0.005
  9
$PSOLHEIGHT
 40
0.08
  9
$LOFTANG1
 40
1.570796326795
  9
$LOFTANG2
 40
1.570796326795
  9
$LOFTMAG1
 40
0.0
  9
$LOFTMAG2
 40
0.0
  9
$LOFTPARAM
 70
7
  9
$LOFTNORMALS
280
1
  9
$LATITUDE
 40
37.795
  9
$LONGITUDE
 40
-122.394
  9
$NORTHDIRECTION
 40
0.0
  9
$TIMEZONE
 70
-8000
  9
$LIGHTGLYPHDISPLAY
280
1
  9
$TILEMODELIGHTSYNCH
280
1
  9
$CMATERIAL
347
20
  9
$SOLIDHIST
280
0
  9
$SHOWHIST
280
1
  9
$DWFFRAME
280
2
  9
$DGNFRAME
280
2
  9
$REALWORLDSCALE
290
1
  9
$INTERFERECOLOR
 62
256
  9
$CSHADOW
280
0
  9
$SHADOWPLANELOCATION
 40
0.0
  0
ENDSEC
  0
SECTION
  2
CLASSES
  0
CLASS
  1
ACDBDICTIONARYWDFLT
  2
AcDbDictionaryWithDefault
  3
ObjectDBX Classes
 90
0
 91
0
280
0
281
0
  0
CLASS
  1
SUN
  2
AcDbSun
  3
SCENEOE
 90
1153
 91
0
280
0
281
0
  0
CLASS
  1
VISUALSTYLE
  2
AcDbVisualStyle
  3
ObjectDBX Classes
 90
4095
 91
0
280
0
281
0
  0
CLASS
  1
MATERIAL
  2
AcDbMaterial
  3
ObjectDBX Classes
 90
1153
 91
0
280
0
281
0
  0
CLASS
  1
SCALE
  2
AcDbScale
  3
ObjectDBX Classes
 90
1153
 91
0
280
0
281
0
  0
CLASS
  1
TABLESTYLE
  2
AcDbTableStyle
  3
ObjectDBX Classes
 90
4095
 91
0
280
0
281
0
  0
CLASS
  1
MLEADERSTYLE
  2
AcDbMLeaderStyle
  3
ACDB_MLEADERSTYLE_CLASS
 90
4095
 91
0
280
0
281
0
  0
CLASS
  1
DICTIONARYVAR
  2
AcDbDictionaryVar
  3
ObjectDBX Classes
 90
0
 91
0
280
0
281
0
  0
CLASS
  1
CELLSTYLEMAP
  2
AcDbCellStyleMap
  3
ObjectDBX Classes
 90
1152
 91
0
280
0
281
0
  0
CLASS
  1
MENTALRAYRENDERSETTINGS
  2
AcDbMentalRayRenderSettings
  3
SCENEOE
 90
1024
 91
0
280
0
281
0
  0
CLASS
  1
ACDBDETAILVIEWSTYLE
  2
AcDbDetailViewStyle
  3
ObjectDBX Classes
 90
1025
 91
0
280
0
281
0
  0
CLASS
  1
ACDBSECTIONVIEWSTYLE
  2
AcDbSectionViewStyle
  3
ObjectDBX Classes
 90
1025
 91
0
280
0
281
0
  0
CLASS
  1
RASTERVARIABLES
  2
AcDbRasterVariables
  3
ISM
 90
0
 91
0
280
0
281
0
  0
CLASS
  1
ACDBPLACEHOLDER
  2
AcDbPlaceHolder
  3
ObjectDBX Classes
 90
0
 91
0
280
0
281
0
  0
CLASS
  1
LAYOUT
  2
AcDbLayout
  3
ObjectDBX Classes
 90
0
 91
0
280
0
281
0
  0
ENDSEC
  0
SECTION
  2
TABLES
  0
TABLE
  2
VPORT
  5
8
330
0
100
AcDbSymbolTable
 70
1
  0
VPORT
  5
23
330
8
100
AcDbSymbolTableRecord
100
AcDbViewportTableRecord
  2
*Active
 70
0
 10
0.0
 20
0.0
 11
1.0
 21
1.0
 12
0.0
 22
0.0
 13
0.0
 23
0.0
 14
0.5
 24
0.5
 15
0.5
 25
0.5
 16
0.0
 26
0.0
 36
1.0
 17
0.0
 27
0.0
 37
0.0
 40
1000.0
 41
1.34
 42
50.0
 43
0.0
 44
0.0
 50
0.0
 51
0.0
 71
0
 72
1000
 73
1
 74
3
 75
0
 76
0
 77
0
 78
0
281
0
 65
0
146
0.0
  0
ENDTAB
  0
TABLE
  2
LTYPE
  5
2
330
0
100
AcDbSymbolTable
 70
3
  0
LTYPE
  5
24
330
2
100
AcDbSymbolTableRecord
100
AcDbLinetypeTableRecord
  2
ByBlock
 70
0
  3

 72
65
 73
0
 40
0.0
  0
LTYPE
  5
25
330
2
100
AcDbSymbolTableRecord
100
AcDbLinetypeTableRecord
  2
ByLayer
 70
0
  3

 72
65
 73
0
 40
0.0
  0
LTYPE
  5
26
330
2
100
AcDbSymbolTableRecord
100
AcDbLinetypeTableRecord
  2
Continuous
 70
0
  3

 72
65
 73
0
 40
0.0
  0
ENDTAB
  0
TABLE
  2
LAYER
  5
1
330
0
100
AcDbSymbolTable
 70
2
  0
LAYER
  5
27
330
1
100
AcDbSymbolTableRecord
100
AcDbLayerTableRecord
  2
0
 70
0
 62
7
  6
Continuous
370
-3
390
13
347
21
  0
LAYER
  5
28
330
1
100
AcDbSymbolTableRecord
100
AcDbLayerTableRecord
  2
Defpoints
 70
0
 62
7
  6
Continuous
290
0
370
-3
390
13
347
21
  0
ENDTAB
  0
TABLE
  2
STYLE
  5
5
330
0
100
AcDbSymbolTable
 70
1
  0
STYLE
  5
29
330
5
100
AcDbSymbolTableRecord
100
AcDbTextStyleTableRecord
  2
Standard
 70
0
 40
0.0
 41
1.0
 50
0.0
 71
0
 42
2.5
  3
txt
  4

  0
ENDTAB
  0
TABLE
  2
VIEW
  5
7
330
0
100
AcDbSymbolTable
 70
0
  0
ENDTAB
  0
TABLE
  2
UCS
  5
6
330
0
100
AcDbSymbolTable
 70
0
  0
ENDTAB
  0
TABLE
  2
APPID
  5
3
330
0
100
AcDbSymbolTable
 70
3
  0
APPID
  5
2A
330
3
100
AcDbSymbolTableRecord
100
AcDbRegAppTableRecord
  2
ACAD
 70
0
  0
APPID
  5
2C4
330
3
100
AcDbSymbolTableRecord
100
AcDbRegAppTableRecord
  2
HATCHBACKGROUNDCOLOR
 70
0
  0
APPID
  5
2C5
330
3
100
AcDbSymbolTableRecord
100
AcDbRegAppTableRecord
  2
EZDXF
 70
0
  0
ENDTAB
  0
TABLE
  2
DIMSTYLE
  5
4
330
0
100
AcDbSymbolTable
 70
1
100
AcDbDimStyleTable
  0
DIMSTYLE
105
2B
330
4
100
AcDbSymbolTableRecord
100
AcDbDimStyleTableRecord
  2
Standard
 70
0
 40
1.0
 41
2.5
 42
0.625
 43
3.75
 44
1.25
 45
0.0
 46
0.0
 47
0.0
 48
0.0
 49
2.5
140
2.5
141
2.5
142
0.0
143
0.03937007874
144
1.0
145
0.0
146
1.0
147
0.625
148
0.0
 69
0
 70
0
 71
0
 72
0
 73
0
 74
0
 75
0
 76
0
 77
1
 78
8
 79
3
170
0
171
3
172
1
173
0
174
0
175
0
176
0
177
0
178
0
179
2
271
2
272
2
273
2
274
3
275
0
276
0
277
2
278
44
279
0
280
0
281
0
282
0
283
0
284
8
285
0
286
0
288
0
289
3
290
0
371
-2
372
-2
  0
ENDTAB
  0
TABLE
  2
BLOCK_RECORD
  5
9
330
0
100
AcDbSymbolTable
 70
2
  0
BLOCK_RECORD
  5
17
330
9
100
AcDbSymbolTableRecord
100
AcDbBlockTableRecord
  2
*Model_Space
340
1A
 70
0
280
1
281
0
  0
BLOCK_RECORD
  5
1B
330
9
100
AcDbSymbolTableRecord
100
AcDbBlockTableRecord
  2
*Paper_Space
340
1E
 70
0
280
1
281
0
  0
ENDTAB
  0
ENDSEC
  0
SECTION
  2
BLOCKS
  0
BLOCK
  5
18
330
17
100
AcDbEntity
  8
0
100
AcDbBlockBegin
  2
*Model_Space
 70
0
 10
0.0
 20
0.0
 30
0.0
  3
*Model_Space
  1

  0
ENDBLK
  5
19
330
17
100
AcDbEntity
  8
0
100
AcDbBlockEnd
  0
BLOCK
  5
1C
330
1B
100
AcDbEntity
  8
0
100
AcDbBlockBegin
  2
*Paper_Space
 70
0
 10
0.0
 20
0.0
 30
0.0
  3
*Paper_Space
  1

  0
ENDBLK
  5
1D
330
1B
100
AcDbEntity
  8
0
100
AcDbBlockEnd
  0
ENDSEC
  0
SECTION
  2
ENTITIES
  0
POLYLINE
  5
2F
330
17
100
AcDbEntity
  8
0
100
AcDb3dPolyline
 66
1
 10
0.0
 20
0.0
 30
0.0
 70
8
  0
VERTEX
  5
31
330
17
100
AcDbEntity
  8
0
100
AcDbVertex
100
AcDb3dPolylineVertex
 10
-26.823595823842012
 20
-2.5170940687470598
 30
-0.03488317004692253
 70
32
  0
VERTEX
  5
32
330
17
100
AcDbEntity
  8
0
100
AcDbVertex
100
AcDb3dPolylineVertex
 10
-26.922072343101917
 20
-2.5344830064504853
 30
-0.03488317004692253
 70
32
  0
VERTEX
  5
33
330
17
100
AcDbEntity
  8
0
100
AcDbVertex
100
AcDb3dPolylineVertex
 10
-27.02054886236182
 20
-2.55187194415391
 30
-0.03488317004692253
 70
32
  0
VERTEX
  5
34
330
17
100
AcDbEntity
  8
0
100
AcDbVertex
100
AcDb3dPolylineVertex
 10
-27.119025381621725
 20
-2.5692608818573355
 30
-0.03488317004692253
 70
32
  0
VERTEX
  5
35
330
17
100
AcDbEntity
  8
0
100
AcDbVertex
100
AcDb3dPolylineVertex
 10
-27.21750190088163
 20
-2.58664981956076
 30
-0.03488317004692253
 70
32
  0
VERTEX
  5
36
330
17
100
AcDbEntity
  8
0
100
AcDbVertex
100
AcDb3dPolylineVertex
 10
-27.315978420141537
 20
-2.6040387572641857
 30
-0.03488317004692253
 70
32
  0
VERTEX
  5
37
330
17
100
AcDbEntity
  8
0
100
AcDbVertex
100
AcDb3dPolylineVertex
 10
-27.41445493940144
 20
-2.621427694967611
 30
-0.03488317004692253
 70
32
  0
VERTEX
  5
38
330
17
100
AcDbEntity
  8
0
100
AcDbVertex
100
AcDb3dPolylineVertex
 10
-27.512931458661345
 20
-2.638816632671036
 30
-0.03488317004692253
 70
32
  0
VERTEX
  5
39
330
17
100
AcDbEntity
  8
0
100
AcDbVertex
100
AcDb3dPolylineVertex
 10
-27.611407977921253
 20
-2.6562055703744614
 30
-0.03488317004692253
 70
32
  0
VERTEX
  5
3A
330
17
100
AcDbEntity
  8
0
100
AcDbVertex
100
AcDb3dPolylineVertex
 10
-27.709884497181157
 20
-2.673594508077886
 30
-0.03488317004692253
 70
32
  0
VERTEX
  5
3B
330
17
100
AcDbEntity
  8
0
100
AcDbVertex
100
AcDb3dPolylineVertex
 10
-27.80836101644106
 20
-2.6909834457813115
 30
-0.03488317004692253
 70
32
  0
VERTEX
  5
3C
330
17
100
AcDbEntity
  8
0
100
AcDbVertex
100
AcDb3dPolylineVertex
 10
-27.906837535700966
 20
-2.708372383484737
 30
-0.03488317004692253
 70
32
  0
VERTEX
  5
3D
330
17
100
AcDbEntity
  8
0
100
AcDbVertex
100
AcDb3dPolylineVertex
 10
-28.00531405496087
 20
-2.7257613211881617
 30
-0.03488317004692253
 70
32
  0
VERTEX
  5
3E
330
17
100
AcDbEntity
  8
0
100
AcDbVertex
100
AcDb3dPolylineVertex
 10
-28.103790574220774
 20
-2.7431502588915873
 30
-0.03488317004692253
 70
32
  0
VERTEX
  5
3F
330
17
100
AcDbEntity
  8
0
100
AcDbVertex
100
AcDb3dPolylineVertex
 10
-28.20226709348068
 20
-2.760539196595012
 30
-0.03488317004692253
 70
32
  0
VERTEX
  5
40
330
17
100
AcDbEntity
  8
0
100
AcDbVertex
100
AcDb3dPolylineVertex
 10
-28.300743612740582
 20
-2.7779281342984374
 30
-0.03488317004692253
 70
32
  0
VERTEX
  5
41
330
17
100
AcDbEntity
  8
0
100
AcDbVertex
100
AcDb3dPolylineVertex
 10
-28.399220132000487
 20
-2.795317072001863
 30
-0.03488317004692253
 70
32
  0
VERTEX
  5
42
330
17
100
AcDbEntity
  8
0
100
AcDbVertex
100
AcDb3dPolylineVertex
 10
-28.497696651260394
 20
-2.8127060097052876
 30
-0.03488317004692253
 70
32
  0
VERTEX
  5
43
330
17
100
AcDbEntity
  8
0
100
AcDbVertex
100
AcDb3dPolylineVertex
 10
-28.5961731705203
 20
-2.830094947408713
 30
-0.03488317004692253
 70
32
  0
VERTEX
  5
44
330
17
100
AcDbEntity
  8
0
100
AcDbVertex
100
AcDb3dPolylineVertex
 10
-28.694649689780203
 20
-2.847483885112138
 30
-0.03488317004692253
 70
32
  0
VERTEX
  5
45
330
17
100
AcDbEntity
  8
0
100
AcDbVertex
100
AcDb3dPolylineVertex
 10
-28.79312620904011
 20
-2.8648728228155633
 30
-0.03488317004692253
 70
32
  0
VERTEX
  5
46
330
17
100
AcDbEntity
  8
0
100
AcDbVertex
100
AcDb3dPolylineVertex
 10
-28.891602728300015
 20
-2.882261760518989
 30
-0.03488317004692253
 70
32
  0
VERTEX
  5
47
330
17
100
AcDbEntity
  8
0
100
AcDbVertex
100
AcDb3dPolylineVertex
 10
-28.99007924755992
 20
-2.8996506982224135
 30
-0.03488317004692253
 70
32
  0
VERTEX
  5
48
330
17
100
AcDbEntity
  8
0
100
AcDbVertex
100
AcDb3dPolylineVertex
 10
-29.088555766819823
 20
-2.917039635925839
 30
-0.03488317004692253
 70
32
  0
VERTEX
  5
49
330
17
100
AcDbEntity
  8
0
100
AcDbVertex
100
AcDb3dPolylineVertex
 10
-29.187032286079727
 20
-2.9344285736292637
 30
-0.03488317004692253
 70
32
  0
VERTEX
  5
4A
330
17
100
AcDbEntity
  8
0
100
AcDbVertex
100
AcDb3dPolylineVertex
 10
-29.28550880533963
 20
-2.951817511332689
 30
-0.03488317004692253
 70
32
  0
VERTEX
  5
4B
330
17
100
AcDbEntity
  8
0
100
AcDbVertex
100
AcDb3dPolylineVertex
 10
-29.383985324599536
 20
-2.9692064490361147
 30
-0.03488317004692253
 70
32
  0
VERTEX
  5
4C
330
17
100
AcDbEntity
  8
0
100
AcDbVertex
100
AcDb3dPolylineVertex
 10
-29.48246184385944
 20
-2.9865953867395394
 30
-0.03488317004692253
 70
32
  0
VERTEX
  5
4D
330
17
100
AcDbEntity
  8
0
100
AcDbVertex
100
AcDb3dPolylineVertex
 10
-29.580938363119348
 20
-3.003984324442965
 30
-0.03488317004692253
 70
32
  0
VERTEX
  5
4E
330
17
100
AcDbEntity
  8
0
100
AcDbVertex
100
AcDb3dPolylineVertex
 10
-29.679414882379252
 20
-3.0213732621463896
 30
-0.03488317004692253
 70
32
  0
VERTEX
  5
4F
330
17
100
AcDbEntity
  8
0
100
AcDbVertex
100
AcDb3dPolylineVertex
 10
-29.777891401639156
 20
-3.038762199849815
 30
-0.03488317004692253
 70
32
  0
VERTEX
  5
50
330
17
100
AcDbEntity
  8
0
100
AcDbVertex
100
AcDb3dPolylineVertex
 10
-29.87636792089906
 20
-3.0561511375532397
 30
-0.03488317004692253
 70
32
  0
VERTEX
  5
51
330
17
100
AcDbEntity
  8
0
100
AcDbVertex
100
AcDb3dPolylineVertex
 10
-29.974844440158968
 20
-3.0735400752566653
 30
-0.03488317004692253
 70
32
  0
VERTEX
  5
52
330
17
100
AcDbEntity
  8
0
100
AcDbVertex
100
AcDb3dPolylineVertex
 10
-30.073320959418872
 20
-3.090929012960091
 30
-0.03488317004692253
 70
32
  0
VERTEX
  5
53
330
17
100
AcDbEntity
  8
0
100
AcDbVertex
100
AcDb3dPolylineVertex
 10
-30.171797478678776
 20
-3.1083179506635155
 30
-0.03488317004692253
 70
32
  0
VERTEX
  5
54
330
17
100
AcDbEntity
  8
0
100
AcDbVertex
100
AcDb3dPolylineVertex
 10
-30.27027399793868
 20
-3.125706888366941
 30
-0.03488317004692253
 70
32
  0
VERTEX
  5
55
330
17
100
AcDbEntity
  8
0
100
AcDbVertex
100
AcDb3dPolylineVertex
 10
-30.368750517198585
 20
-3.1430958260703665
 30
-0.03488317004692253
 70
32
  0
VERTEX
  5
56
330
17
100
AcDbEntity
  8
0
100
AcDbVertex
100
AcDb3dPolylineVertex
 10
-30.46722703645849
 20
-3.160484763773791
 30
-0.03488317004692253
 70
32
  0
VERTEX
  5
57
330
17
100
AcDbEntity
  8
0
100
AcDbVertex
100
AcDb3dPolylineVertex
 10
-30.565703555718393
 20
-3.1778737014772167
 30
-0.03488317004692253
 70
32
  0
VERTEX
  5
58
330
17
100
AcDbEntity
  8
0
100
AcDbVertex
100
AcDb3dPolylineVertex
 10
-30.664180074978297
 20
-3.1952626391806414
 30
-0.03488317004692253
 70
32
  0
VERTEX
  5
59
330
17
100
AcDbEntity
  8
0
100
AcDbVertex
100
AcDb3dPolylineVertex
 10
-30.7626565942382
 20
-3.212651576884067
 30
-0.03488317004692253
 70
32
  0
VERTEX
  5
5A
330
17
100
AcDbEntity
  8
0
100
AcDbVertex
100
AcDb3dPolylineVertex
 10
-30.86113311349811
 20
-3.2300405145874924
 30
-0.03488317004692253
 70
32
  0
VERTEX
  5
5B
330
17
100
AcDbEntity
  8
0
100
AcDbVertex
100
AcDb3dPolylineVertex
 10
-30.959609632758013
 20
-3.247429452290917
 30
-0.03488317004692253
 70
32
  0
VERTEX
  5
5C
330
17
100
AcDbEntity
  8
0
100
AcDbVertex
100
AcDb3dPolylineVertex
 10
-31.058086152017918
 20
-3.2648183899943426
 30
-0.03488317004692253
 70
32
  0
VERTEX
  5
5D
330
17
100
AcDbEntity
  8
0
100
AcDbVertex
100
AcDb3dPolylineVertex
 10
-31.156562671277825
 20
-3.2822073276977672
 30
-0.03488317004692253
 70
32
  0
VERTEX
  5
5E
330
17
100
AcDbEntity
  8
0
100
AcDbVertex
100
AcDb3dPolylineVertex
 10
-31.25503919053773
 20
-3.2995962654011928
 30
-0.03488317004692253
 70
32
  0
VERTEX
  5
5F
330
17
100
AcDbEntity
  8
0
100
AcDbVertex
100
AcDb3dPolylineVertex
 10
-31.353515709797634
 20
-3.3169852031046183
 30
-0.03488317004692253
 70
32
  0
VERTEX
  5
60
330
17
100
AcDbEntity
  8
0
100
AcDbVertex
100
AcDb3dPolylineVertex
 10
-31.451992229057538
 20
-3.334374140808043
 30
-0.03488317004692253
 70
32
  0
VERTEX
  5
61
330
17
100
AcDbEntity
  8
0
100
AcDbVertex
100
AcDb3dPolylineVertex
 10
-31.550468748317442
 20
-3.3517630785114685
 30
-0.03488317004692253
 70
32
  0
VERTEX
  5
62
330
17
100
AcDbEntity
  8
0
100
AcDbVertex
100
AcDb3dPolylineVertex
 10
-31.648945267577346
 20
-3.369152016214893
 30
-0.03488317004692253
 70
32
  0
VERTEX
  5
63
330
17
100
AcDbEntity
  8
0
100
AcDbVertex
100
AcDb3dPolylineVertex
 10
-31.74742178683725
 20
-3.3865409539183187
 30
-0.03488317004692253
 70
32
  0
VERTEX
  5
64
330
17
100
AcDbEntity
  8
0
100
AcDbVertex
100
AcDb3dPolylineVertex
 10
-31.845898306097155
 20
-3.4039298916217433
 30
-0.03488317004692253
 70
32
  0
VERTEX
  5
65
330
17
100
AcDbEntity
  8
0
100
AcDbVertex
100
AcDb3dPolylineVertex
 10
-31.944374825357063
 20
-3.421318829325169
 30
-0.03488317004692253
 70
32
  0
VERTEX
  5
66
330
17
100
AcDbEntity
  8
0
100
AcDbVertex
100
AcDb3dPolylineVertex
 10
-32.04285134461696
 20
-3.4387077670285944
 30
-0.03488317004692253
 70
32
  0
VERTEX
  5
67
330
17
100
AcDbEntity
  8
0
100
AcDbVertex
100
AcDb3dPolylineVertex
 10
-32.14132786387687
 20
-3.456096704732019
 30
-0.03488317004692253
 70
32
  0
VERTEX
  5
68
330
17
100
AcDbEntity
  8
0
100
AcDbVertex
100
AcDb3dPolylineVertex
 10
-32.23980438313677
 20
-3.4734856424354446
 30
-0.03488317004692253
 70
32
  0
VERTEX
  5
69
330
17
100
AcDbEntity
  8
0
100
AcDbVertex
100
AcDb3dPolylineVertex
 10
-32.33828090239668
 20
-3.49087458013887
 30
-0.03488317004692253
 70
32
  0
VERTEX
  5
6A
330
17
100
AcDbEntity
  8
0
100
AcDbVertex
100
AcDb3dPolylineVertex
 10
-32.43675742165659
 20
-3.5082635178422947
 30
-0.03488317004692253
 70
32
  0
VERTEX
  5
6B
330
17
100
AcDbEntity
  8
0
100
AcDbVertex
100
AcDb3dPolylineVertex
 10
-32.53523394091649
 20
-3.5256524555457203
 30
-0.03488317004692253
 70
32
  0
VERTEX
  5
6C
330
17
100
AcDbEntity
  8
0
100
AcDbVertex
100
AcDb3dPolylineVertex
 10
-32.633710460176395
 20
-3.543041393249145
 30
-0.03488317004692253
 70
32
  0
VERTEX
  5
6D
330
17
100
AcDbEntity
  8
0
100
AcDbVertex
100
AcDb3dPolylineVertex
 10
-32.7321869794363
 20
-3.5604303309525704
 30
-0.03488317004692253
 70
32
  0
VERTEX
  5
6E
330
17
100
AcDbEntity
  8
0
100
AcDbVertex
100
AcDb3dPolylineVertex
 10
-32.830663498696204
 20
-3.577819268655995
 30
-0.03488317004692253
 70
32
  0
VERTEX
  5
6F
330
17
100
AcDbEntity
  8
0
100
AcDbVertex
100
AcDb3dPolylineVertex
 10
-32.92914001795611
 20
-3.5952082063594206
 30
-0.03488317004692253
 70
32
  0
VERTEX
  5
70
330
17
100
AcDbEntity
  8
0
100
AcDbVertex
100
AcDb3dPolylineVertex
 10
-33.02761653721601
 20
-3.612597144062846
 30
-0.03488317004692253
 70
32
  0
VERTEX
  5
71
330
17
100
AcDbEntity
  8
0
100
AcDbVertex
100
AcDb3dPolylineVertex
 10
-33.126093056475916
 20
-3.629986081766271
 30
-0.03488317004692253
 70
32
  0
VERTEX
  5
72
330
17
100
AcDbEntity
  8
0
100
AcDbVertex
100
AcDb3dPolylineVertex
 10
-33.22456957573582
 20
-3.6473750194696963
 30
-0.03488317004692253
 70
32
  0
VERTEX
  5
73
330
17
100
AcDbEntity
  8
0
100
AcDbVertex
100
AcDb3dPolylineVertex
 10
-33.32304609499573
 20
-3.664763957173122
 30
-0.03488317004692253
 70
32
  0
VERTEX
  5
74
330
17
100
AcDbEntity
  8
0
100
AcDbVertex
100
AcDb3dPolylineVertex
 10
-33.421522614255636
 20
-3.6821528948765465
 30
-0.03488317004692253
 70
32
  0
VERTEX
  5
75
330
17
100
AcDbEntity
  8
0
100
AcDbVertex
100
AcDb3dPolylineVertex
 10
-33.51999913351554
 20
-3.699541832579972
 30
-0.03488317004692253
 70
32
  0
VERTEX
  5
76
330
17
100
AcDbEntity
  8
0
100
AcDbVertex
100
AcDb3dPolylineVertex
 10
-33.618475652775444
 20
-3.7169307702833967
 30
-0.03488317004692253
 70
32
  0
VERTEX
  5
77
330
17
100
AcDbEntity
  8
0
100
AcDbVertex
100
AcDb3dPolylineVertex
 10
-33.71695217203535
 20
-3.7343197079868222
 30
-0.03488317004692253
 70
32
  0
VERTEX
  5
78
330
17
100
AcDbEntity
  8
0
100
AcDbVertex
100
AcDb3dPolylineVertex
 10
-33.81542869129525
 20
-3.751708645690247
 30
-0.03488317004692253
 70
32
  0
VERTEX
  5
79
330
17
100
AcDbEntity
  8
0
100
AcDbVertex
100
AcDb3dPolylineVertex
 10
-33.91390521055516
 20
-3.7690975833936724
 30
-0.03488317004692253
 70
32
  0
VERTEX
  5
7A
330
17
100
AcDbEntity
  8
0
100
AcDbVertex
100
AcDb3dPolylineVertex
 10
-34.01238172981506
 20
-3.786486521097098
 30
-0.03488317004692253
 70
32
  0
VERTEX
  5
7B
330
17
100
AcDbEntity
  8
0
100
AcDbVertex
100
AcDb3dPolylineVertex
 10
-34.110858249074965
 20
-3.8038754588005226
 30
-0.03488317004692253
 70
32
  0
VERTEX
  5
7C
330
17
100
AcDbEntity
  8
0
100
AcDbVertex
100
AcDb3dPolylineVertex
 10
-34.20933476833487
 20
-3.821264396503948
 30
-0.03488317004692253
 70
32
  0
VERTEX
  5
7D
330
17
100
AcDbEntity
  8
0
100
AcDbVertex
100
AcDb3dPolylineVertex
 10
-34.307811287594774
 20
-3.8386533342073736
 30
-0.03488317004692253
 70
32
  0
VERTEX
  5
7E
330
17
100
AcDbEntity
  8
0
100
AcDbVertex
100
AcDb3dPolylineVertex
 10
-34.40628780685468
 20
-3.8560422719107983
 30
-0.03488317004692253
 70
32
  0
VERTEX
  5
7F
330
17
100
AcDbEntity
  8
0
100
AcDbVertex
100
AcDb3dPolylineVertex
 10
-34.50476432611458
 20
-3.873431209614224
 30
-0.03488317004692253
 70
32
  0
VERTEX
  5
80
330
17
100
AcDbEntity
  8
0
100
AcDbVertex
100
AcDb3dPolylineVertex
 10
-34.60324084537449
 20
-3.8908201473176485
 30
-0.03488317004692253
 70
32
  0
VERTEX
  5
81
330
17
100
AcDbEntity
  8
0
100
AcDbVertex
100
AcDb3dPolylineVertex
 10
-34.7017173646344
 20
-3.908209085021074
 30
-0.03488317004692253
 70
32
  0
VERTEX
  5
82
330
17
100
AcDbEntity
  8
0
100
AcDbVertex
100
AcDb3dPolylineVertex
 10
-34.8001938838943
 20
-3.9255980227244986
 30
-0.03488317004692253
 70
32
  0
VERTEX
  5
83
330
17
100
AcDbEntity
  8
0
100
AcDbVertex
100
AcDb3dPolylineVertex
 10
-34.898670403154206
 20
-3.942986960427924
 30
-0.03488317004692253
 70
32
  0
VERTEX
  5
84
330
17
100
AcDbEntity
  8
0
100
AcDbVertex
100
AcDb3dPolylineVertex
 10
-34.99714692241411
 20
-3.9603758981313497
 30
-0.03488317004692253
 70
32
  0
VERTEX
  5
85
330
17
100
AcDbEntity
  8
0
100
AcDbVertex
100
AcDb3dPolylineVertex
 10
-35.095623441674014
 20
-3.9777648358347744
 30
-0.03488317004692253
 70
32
  0
VERTEX
  5
86
330
17
100
AcDbEntity
  8
0
100
AcDbVertex
100
AcDb3dPolylineVertex
 10
-35.19409996093392
 20
-3.9951537735382
 30
-0.03488317004692253
 70
32
  0
VERTEX
  5
87
330
17
100
AcDbEntity
  8
0
100
AcDbVertex
100
AcDb3dPolylineVertex
 10
-35.29257648019382
 20
-4.0125427112416245
 30
-0.03488317004692253
 70
32
  0
VERTEX
  5
88
330
17
100
AcDbEntity
  8
0
100
AcDbVertex
100
AcDb3dPolylineVertex
 10
-35.39105299945373
 20
-4.02993164894505
 30
-0.03488317004692253
 70
32
  0
VERTEX
  5
89
330
17
100
AcDbEntity
  8
0
100
AcDbVertex
100
AcDb3dPolylineVertex
 10
-35.48952951871364
 20
-4.047320586648476
 30
-0.03488317004692253
 70
32
  0
VERTEX
  5
8A
330
17
100
AcDbEntity
  8
0
100
AcDbVertex
100
AcDb3dPolylineVertex
 10
-35.58800603797354
 20
-4.0647095243519
 30
-0.03488317004692253
 70
32
  0
VERTEX
  5
8B
330
17
100
AcDbEntity
  8
0
100
AcDbVertex
100
AcDb3dPolylineVertex
 10
-35.68648255723345
 20
-4.082098462055326
 30
-0.03488317004692253
 70
32
  0
VERTEX
  5
8C
330
17
100
AcDbEntity
  8
0
100
AcDbVertex
100
AcDb3dPolylineVertex
 10
-35.78495907649335
 20
-4.09948739975875
 30
-0.03488317004692253
 70
32
  0
VERTEX
  5
8D
330
17
100
AcDbEntity
  8
0
100
AcDbVertex
100
AcDb3dPolylineVertex
 10
-35.883435595753255
 20
-4.116876337462176
 30
-0.03488317004692253
 70
32
  0
VERTEX
  5
8E
330
17
100
AcDbEntity
  8
0
100
AcDbVertex
100
AcDb3dPolylineVertex
 10
-35.98191211501316
 20
-4.1342652751656015
 30
-0.03488317004692253
 70
32
  0
VERTEX
  5
8F
330
17
100
AcDbEntity
  8
0
100
AcDbVertex
100
AcDb3dPolylineVertex
 10
-36.08038863427306
 20
-4.151654212869026
 30
-0.03488317004692253
 70
32
  0
VERTEX
  5
90
330
17
100
AcDbEntity
  8
0
100
AcDbVertex
100
AcDb3dPolylineVertex
 10
-36.17886515353297
 20
-4.169043150572452
 30
-0.03488317004692253
 70
32
  0
VERTEX
  5
91
330
17
100
AcDbEntity
  8
0
100
AcDbVertex
100
AcDb3dPolylineVertex
 10
-36.27734167279287
 20
-4.186432088275877
 30
-0.03488317004692253
 70
32
  0
VERTEX
  5
92
330
17
100
AcDbEntity
  8
0
100
AcDbVertex
100
AcDb3dPolylineVertex
 10
-36.375818192052776
 20
-4.203821025979302
 30
-0.03488317004692253
 70
32
  0
VERTEX
  5
93
330
17
100
AcDbEntity
  8
0
100
AcDbVertex
100
AcDb3dPolylineVertex
 10
-36.47429471131268
 20
-4.221209963682727
 30
-0.03488317004692253
 70
32
  0
VERTEX
  5
94
330
17
100
AcDbEntity
  8
0
100
AcDbVertex
100
AcDb3dPolylineVertex
 10
-36.572771230572584
 20
-4.238598901386152
 30
-0.03488317004692253
 70
32
  0
VERTEX
  5
95
330
17
100
AcDbEntity
  8
0
100
AcDbVertex
100
AcDb3dPolylineVertex
 10
-36.67124774983249
 20
-4.255987839089578
 30
-0.03488317004692253
 70
32
  0
VERTEX
  5
96
330
17
100
AcDbEntity
  8
0
100
AcDbVertex
100
AcDb3dPolylineVertex
 10
-36.76972426909239
 20
-4.273376776793002
 30
-0.03488317004692253
 70
32
  0
VERTEX
  5
97
330
17
100
AcDbEntity
  8
0
100
AcDbVertex
100
AcDb3dPolylineVertex
 10
-36.8682007883523
 20
-4.290765714496428
 30
-0.03488317004692253
 70
32
  0
VERTEX
  5
98
330
17
100
AcDbEntity
  8
0
100
AcDbVertex
100
AcDb3dPolylineVertex
 10
-36.96667730761221
 20
-4.308154652199853
 30
-0.03488317004692253
 70
32
  0
VERTEX
  5
99
330
17
100
AcDbEntity
  8
0
100
AcDbVertex
100
AcDb3dPolylineVertex
 10
-37.06515382687211
 20
-4.325543589903278
 30
-0.03488317004692253
 70
32
  0
VERTEX
  5
9A
330
17
100
AcDbEntity
  8
0
100
AcDbVertex
100
AcDb3dPolylineVertex
 10
-37.16363034613202
 20
-4.3429325276067035
 30
-0.03488317004692253
 70
32
  0
VERTEX
  5
9B
330
17
100
AcDbEntity
  8
0
100
AcDbVertex
100
AcDb3dPolylineVertex
 10
-37.26210686539192
 20
-4.360321465310129
 30
-0.03488317004692253
 70
32
  0
VERTEX
  5
9C
330
17
100
AcDbEntity
  8
0
100
AcDbVertex
100
AcDb3dPolylineVertex
 10
-37.360583384651825
 20
-4.377710403013554
 30
-0.03488317004692253
 70
32
  0
VERTEX
  5
9D
330
17
100
AcDbEntity
  8
0
100
AcDbVertex
100
AcDb3dPolylineVertex
 10
-37.45905990391173
 20
-4.395099340716978
 30
-0.03488317004692253
 70
32
  0
VERTEX
  5
9E
330
17
100
AcDbEntity
  8
0
100
AcDbVertex
100
AcDb3dPolylineVertex
 10
-37.55753642317163
 20
-4.412488278420404
 30
-0.03488317004692253
 70
32
  0
VERTEX
  5
9F
330
17
100
AcDbEntity
  8
0
100
AcDbVertex
100
AcDb3dPolylineVertex
 10
-37.65601294243154
 20
-4.429877216123829
 30
-0.03488317004692253
 70
32
  0
VERTEX
  5
A0
330
17
100
AcDbEntity
  8
0
100
AcDbVertex
100
AcDb3dPolylineVertex
 10
-37.75448946169145
 20
-4.447266153827254
 30
-0.03488317004692253
 70
32
  0
VERTEX
  5
A1
330
17
100
AcDbEntity
  8
0
100
AcDbVertex
100
AcDb3dPolylineVertex
 10
-37.85296598095135
 20
-4.4646550915306795
 30
-0.03488317004692253
 70
32
  0
VERTEX
  5
A2
330
17
100
AcDbEntity
  8
0
100
AcDbVertex
100
AcDb3dPolylineVertex
 10
-37.95144250021126
 20
-4.482044029234105
 30
-0.03488317004692253
 70
32
  0
VERTEX
  5
A3
330
17
100
AcDbEntity
  8
0
100
AcDbVertex
100
AcDb3dPolylineVertex
 10
-38.04991901947116
 20
-4.49943296693753
 30
-0.03488317004692253
 70
32
  0
VERTEX
  5
A4
330
17
100
AcDbEntity
  8
0
100
AcDbVertex
100
AcDb3dPolylineVertex
 10
-38.148395538731066
 20
-4.516821904640955
 30
-0.03488317004692253
 70
32
  0
VERTEX
  5
A5
330
17
100
AcDbEntity
  8
0
100
AcDbVertex
100
AcDb3dPolylineVertex
 10
-38.24687205799097
 20
-4.534210842344381
 30
-0.03488317004692253
 70
32
  0
VERTEX
  5
A6
330
17
100
AcDbEntity
  8
0
100
AcDbVertex
100
AcDb3dPolylineVertex
 10
-38.345348577250874
 20
-4.551599780047805
 30
-0.03488317004692253
 70
32
  0
VERTEX
  5
A7
330
17
100
AcDbEntity
  8
0
100
AcDbVertex
100
AcDb3dPolylineVertex
 10
-38.44382509651078
 20
-4.56898871775123
 30
-0.03488317004692253
 70
32
  0
VERTEX
  5
A8
330
17
100
AcDbEntity
  8
0
100
AcDbVertex
100
AcDb3dPolylineVertex
 10
-38.54230161577068
 20
-4.586377655454656
 30
-0.03488317004692253
 70
32
  0
VERTEX
  5
A9
330
17
100
AcDbEntity
  8
0
100
AcDbVertex
100
AcDb3dPolylineVertex
 10
-38.64077813503059
 20
-4.603766593158081
 30
-0.03488317004692253
 70
32
  0
VERTEX
  5
AA
330
17
100
AcDbEntity
  8
0
100
AcDbVertex
100
AcDb3dPolylineVertex
 10
-38.73925465429049
 20
-4.621155530861506
 30
-0.03488317004692253
 70
32
  0
VERTEX
  5
AB
330
17
100
AcDbEntity
  8
0
100
AcDbVertex
100
AcDb3dPolylineVertex
 10
-38.837731173550395
 20
-4.638544468564931
 30
-0.03488317004692253
 70
32
  0
VERTEX
  5
AC
330
17
100
AcDbEntity
  8
0
100
AcDbVertex
100
AcDb3dPolylineVertex
 10
-38.9362076928103
 20
-4.655933406268357
 30
-0.03488317004692253
 70
32
  0
VERTEX
  5
AD
330
17
100
AcDbEntity
  8
0
100
AcDbVertex
100
AcDb3dPolylineVertex
 10
-39.034684212070204
 20
-4.6733223439717815
 30
-0.03488317004692253
 70
32
  0
VERTEX
  5
AE
330
17
100
AcDbEntity
  8
0
100
AcDbVertex
100
AcDb3dPolylineVertex
 10
-39.13316073133011
 20
-4.690711281675206
 30
-0.03488317004692253
 70
32
  0
VERTEX
  5
AF
330
17
100
AcDbEntity
  8
0
100
AcDbVertex
100
AcDb3dPolylineVertex
 10
-39.23163725059002
 20
-4.7081002193786325
 30
-0.03488317004692253
 70
32
  0
VERTEX
  5
B0
330
17
100
AcDbEntity
  8
0
100
AcDbVertex
100
AcDb3dPolylineVertex
 10
-39.33011376984992
 20
-4.725489157082057
 30
-0.03488317004692253
 70
32
  0
VERTEX
  5
B1
330
17
100
AcDbEntity
  8
0
100
AcDbVertex
100
AcDb3dPolylineVertex
 10
-39.42859028910983
 20
-4.742878094785482
 30
-0.03488317004692253
 70
32
  0
VERTEX
  5
B2
330
17
100
AcDbEntity
  8
0
100
AcDbVertex
100
AcDb3dPolylineVertex
 10
-39.52706680836973
 20
-4.760267032488907
 30
-0.03488317004692253
 70
32
  0
VERTEX
  5
B3
330
17
100
AcDbEntity
  8
0
100
AcDbVertex
100
AcDb3dPolylineVertex
 10
-39.625543327629636
 20
-4.777655970192333
 30
-0.03488317004692253
 70
32
  0
VERTEX
  5
B4
330
17
100
AcDbEntity
  8
0
100
AcDbVertex
100
AcDb3dPolylineVertex
 10
-39.72401984688954
 20
-4.7950449078957575
 30
-0.03488317004692253
 70
32
  0
VERTEX
  5
B5
330
17
100
AcDbEntity
  8
0
100
AcDbVertex
100
AcDb3dPolylineVertex
 10
-39.822496366149444
 20
-4.812433845599183
 30
-0.03488317004692253
 70
32
  0
VERTEX
  5
B6
330
17
100
AcDbEntity
  8
0
100
AcDbVertex
100
AcDb3dPolylineVertex
 10
-39.92097288540935
 20
-4.829822783302609
 30
-0.03488317004692253
 70
32
  0
VERTEX
  5
B7
330
17
100
AcDbEntity
  8
0
100
AcDbVertex
100
AcDb3dPolylineVertex
 10
-40.01944940466925
 20
-4.847211721006033
 30
-0.03488317004692253
 70
32
  0
VERTEX
  5
B8
330
17
100
AcDbEntity
  8
0
100
AcDbVertex
100
AcDb3dPolylineVertex
 10
-40.1171821069446
 20
-4.868198517873514
 30
-0.03488317004692253
 70
32
  0
VERTEX
  5
B9
330
17
100
AcDbEntity
  8
0
100
AcDbVertex
100
AcDb3dPolylineVertex
 10
-40.21448094271229
 20
-4.891283936610289
 30
-0.03488317004692253
 70
32
  0
VERTEX
  5
BA
330
17
100
AcDbEntity
  8
0
100
AcDbVertex
100
AcDb3dPolylineVertex
 10
-40.31177977847998
 20
-4.9143693553470635
 30
-0.03488317004692253
 70
32
  0
VERTEX
  5
BB
330
17
100
AcDbEntity
  8
0
100
AcDbVertex
100
AcDb3dPolylineVertex
 10
-40.40907861424767
 20
-4.937454774083838
 30
-0.03488317004692253
 70
32
  0
VERTEX
  5
BC
330
17
100
AcDbEntity
  8
0
100
AcDbVertex
100
AcDb3dPolylineVertex
 10
-40.31177977847998
 20
-4.9143693553470635
 30
-0.03488317004692253
 70
32
  0
VERTEX
  5
BD
330
17
100
AcDbEntity
  8
0
100
AcDbVertex
100
AcDb3dPolylineVertex
 10
-40.21448094271229
 20
-4.891283936610289
 30
-0.034883170046922526
 70
32
  0
VERTEX
  5
BE
330
17
100
AcDbEntity
  8
0
100
AcDbVertex
100
AcDb3dPolylineVertex
 10
-40.117182106944604
 20
-4.868198517873515
 30
-0.034883170046922526
 70
32
  0
VERTEX
  5
BF
330
17
100
AcDbEntity
  8
0
100
AcDbVertex
100
AcDb3dPolylineVertex
 10
-40.01988327117691
 20
-4.845113099136741
 30
-0.03488317004692252
 70
32
  0
VERTEX
  5
C0
330
17
100
AcDbEntity
  8
0
100
AcDbVertex
100
AcDb3dPolylineVertex
 10
-39.92258443540922
 20
-4.822027680399966
 30
-0.03488317004692252
 70
32
  0
VERTEX
  5
C1
330
17
100
AcDbEntity
  8
0
100
AcDbVertex
100
AcDb3dPolylineVertex
 10
-39.82528559964153
 20
-4.798942261663192
 30
-0.03488317004692251
 70
32
  0
VERTEX
  5
C2
330
17
100
AcDbEntity
  8
0
100
AcDbVertex
100
AcDb3dPolylineVertex
 10
-39.727986763873844
 20
-4.775856842926418
 30
-0.03488317004692251
 70
32
  0
VERTEX
  5
C3
330
17
100
AcDbEntity
  8
0
100
AcDbVertex
100
AcDb3dPolylineVertex
 10
-39.630687928106155
 20
-4.7527714241896435
 30
-0.034883170046922506
 70
32
  0
VERTEX
  5
C4
330
17
100
AcDbEntity
  8
0
100
AcDbVertex
100
AcDb3dPolylineVertex
 10
-39.53338909233847
 20
-4.729686005452869
 30
-0.034883170046922506
 70
32
  0
VERTEX
  5
C5
330
17
100
AcDbEntity
  8
0
100
AcDbVertex
100
AcDb3dPolylineVertex
 10
-39.43609025657077
 20
-4.706600586716095
 30
-0.0348831700469225
 70
32
  0
VERTEX
  5
C6
330
17
100
AcDbEntity
  8
0
100
AcDbVertex
100
AcDb3dPolylineVertex
 10
-39.338791420803084
 20
-4.683515167979321
 30
-0.0348831700469225
 70
32
  0
VERTEX
  5
C7
330
17
100
AcDbEntity
  8
0
100
AcDbVertex
100
AcDb3dPolylineVertex
 10
-39.241492585035395
 20
-4.660429749242547
 30
-0.03488317004692249
 70
32
  0
VERTEX
  5
C8
330
17
100
AcDbEntity
  8
0
100
AcDbVertex
100
AcDb3dPolylineVertex
 10
-39.14419374926771
 20
-4.637344330505772
 30
-0.03488317004692249
 70
32
  0
VERTEX
  5
C9
330
17
100
AcDbEntity
  8
0
100
AcDbVertex
100
AcDb3dPolylineVertex
 10
-39.04689491350002
 20
-4.614258911768998
 30
-0.034883170046922485
 70
32
  0
VERTEX
  5
CA
330
17
100
AcDbEntity
  8
0
100
AcDbVertex
100
AcDb3dPolylineVertex
 10
-38.94959607773233
 20
-4.591173493032223
 30
-0.034883170046922485
 70
32
  0
VERTEX
  5
CB
330
17
100
AcDbEntity
  8
0
100
AcDbVertex
100
AcDb3dPolylineVertex
 10
-38.852297241964635
 20
-4.568088074295449
 30
-0.03488317004692248
 70
32
  0
VERTEX
  5
CC
330
17
100
AcDbEntity
  8
0
100
AcDbVertex
100
AcDb3dPolylineVertex
 10
-38.75499840619695
 20
-4.545002655558675
 30
-0.03488317004692248
 70
32
  0
VERTEX
  5
CD
330
17
100
AcDbEntity
  8
0
100
AcDbVertex
100
AcDb3dPolylineVertex
 10
-38.65769957042926
 20
-4.521917236821901
 30
-0.03488317004692247
 70
32
  0
VERTEX
  5
CE
330
17
100
AcDbEntity
  8
0
100
AcDbVertex
100
AcDb3dPolylineVertex
 10
-38.56040073466157
 20
-4.498831818085127
 30
-0.03488317004692247
 70
32
  0
VERTEX
  5
CF
330
17
100
AcDbEntity
  8
0
100
AcDbVertex
100
AcDb3dPolylineVertex
 10
-38.46310189889388
 20
-4.475746399348353
 30
-0.034883170046922464
 70
32
  0
VERTEX
  5
D0
330
17
100
AcDbEntity
  8
0
100
AcDbVertex
100
AcDb3dPolylineVertex
 10
-38.365803063126194
 20
-4.4526609806115784
 30
-0.034883170046922464
 70
32
  0
VERTEX
  5
D1
330
17
100
AcDbEntity
  8
0
100
AcDbVertex
100
AcDb3dPolylineVertex
 10
-38.268504227358505
 20
-4.429575561874803
 30
-0.03488317004692246
 70
32
  0
VERTEX
  5
D2
330
17
100
AcDbEntity
  8
0
100
AcDbVertex
100
AcDb3dPolylineVertex
 10
-38.17120539159081
 20
-4.406490143138029
 30
-0.03488317004692246
 70
32
  0
VERTEX
  5
D3
330
17
100
AcDbEntity
  8
0
100
AcDbVertex
100
AcDb3dPolylineVertex
 10
-38.07390655582312
 20
-4.383404724401255
 30
-0.03488317004692245
 70
32
  0
VERTEX
  5
D4
330
17
100
AcDbEntity
  8
0
100
AcDbVertex
100
AcDb3dPolylineVertex
 10
-37.97660772005543
 20
-4.360319305664481
 30
-0.03488317004692245
 70
32
  0
VERTEX
  5
D5
330
17
100
AcDbEntity
  8
0
100
AcDbVertex
100
AcDb3dPolylineVertex
 10
-37.879308884287745
 20
-4.337233886927707
 30
-0.03488317004692244
 70
32
  0
VERTEX
  5
D6
330
17
100
AcDbEntity
  8
0
100
AcDbVertex
100
AcDb3dPolylineVertex
 10
-37.78201004852006
 20
-4.314148468190933
 30
-0.03488317004692244
 70
32
  0
VERTEX
  5
D7
330
17
100
AcDbEntity
  8
0
100
AcDbVertex
100
AcDb3dPolylineVertex
 10
-37.68471121275237
 20
-4.291063049454158
 30
-0.034883170046922436
 70
32
  0
VERTEX
  5
D8
330
17
100
AcDbEntity
  8
0
100
AcDbVertex
100
AcDb3dPolylineVertex
 10
-37.58741237698467
 20
-4.267977630717384
 30
-0.034883170046922436
 70
32
  0
VERTEX
  5
D9
330
17
100
AcDbEntity
  8
0
100
AcDbVertex
100
AcDb3dPolylineVertex
 10
-37.490113541216985
 20
-4.244892211980609
 30
-0.034883170046922436
 70
32
  0
VERTEX
  5
DA
330
17
100
AcDbEntity
  8
0
100
AcDbVertex
100
AcDb3dPolylineVertex
 10
-37.3928147054493
 20
-4.221806793243835
 30
-0.03488317004692243
 70
32
  0
VERTEX
  5
DB
330
17
100
AcDbEntity
  8
0
100
AcDbVertex
100
AcDb3dPolylineVertex
 10
-37.29551586968161
 20
-4.198721374507061
 30
-0.03488317004692243
 70
32
  0
VERTEX
  5
DC
330
17
100
AcDbEntity
  8
0
100
AcDbVertex
100
AcDb3dPolylineVertex
 10
-37.19821703391392
 20
-4.175635955770287
 30
-0.03488317004692242
 70
32
  0
VERTEX
  5
DD
330
17
100
AcDbEntity
  8
0
100
AcDbVertex
100
AcDb3dPolylineVertex
 10
-37.10091819814623
 20
-4.1525505370335125
 30
-0.03488317004692242
 70
32
  0
VERTEX
  5
DE
330
17
100
AcDbEntity
  8
0
100
AcDbVertex
100
AcDb3dPolylineVertex
 10
-37.00361936237854
 20
-4.129465118296738
 30
-0.034883170046922415
 70
32
  0
VERTEX
  5
DF
330
17
100
AcDbEntity
  8
0
100
AcDbVertex
100
AcDb3dPolylineVertex
 10
-36.90632052661085
 20
-4.106379699559964
 30
-0.034883170046922415
 70
32
  0
VERTEX
  5
E0
330
17
100
AcDbEntity
  8
0
100
AcDbVertex
100
AcDb3dPolylineVertex
 10
-36.80902169084316
 20
-4.08329428082319
 30
-0.03488317004692241
 70
32
  0
VERTEX
  5
E1
330
17
100
AcDbEntity
  8
0
100
AcDbVertex
100
AcDb3dPolylineVertex
 10
-36.71172285507547
 20
-4.060208862086416
 30
-0.03488317004692241
 70
32
  0
VERTEX
  5
E2
330
17
100
AcDbEntity
  8
0
100
AcDbVertex
100
AcDb3dPolylineVertex
 10
-36.61442401930778
 20
-4.037123443349641
 30
-0.0348831700469224
 70
32
  0
VERTEX
  5
E3
330
17
100
AcDbEntity
  8
0
100
AcDbVertex
100
AcDb3dPolylineVertex
 10
-36.517125183540095
 20
-4.014038024612867
 30
-0.0348831700469224
 70
32
  0
VERTEX
  5
E4
330
17
100
AcDbEntity
  8
0
100
AcDbVertex
100
AcDb3dPolylineVertex
 10
-36.41982634777241
 20
-3.990952605876093
 30
-0.034883170046922395
 70
32
  0
VERTEX
  5
E5
330
17
100
AcDbEntity
  8
0
100
AcDbVertex
100
AcDb3dPolylineVertex
 10
-36.32252751200471
 20
-3.9678671871393183
 30
-0.034883170046922395
 70
32
  0
VERTEX
  5
E6
330
17
100
AcDbEntity
  8
0
100
AcDbVertex
100
AcDb3dPolylineVertex
 10
-36.22522867623702
 20
-3.944781768402544
 30
-0.03488317004692239
 70
32
  0
VERTEX
  5
E7
330
17
100
AcDbEntity
  8
0
100
AcDbVertex
100
AcDb3dPolylineVertex
 10
-36.127929840469335
 20
-3.92169634966577
 30
-0.03488317004692239
 70
32
  0
VERTEX
  5
E8
330
17
100
AcDbEntity
  8
0
100
AcDbVertex
100
AcDb3dPolylineVertex
 10
-36.03063100470165
 20
-3.898610930928996
 30
-0.03488317004692238
 70
32
  0
VERTEX
  5
E9
330
17
100
AcDbEntity
  8
0
100
AcDbVertex
100
AcDb3dPolylineVertex
 10
-35.93333216893396
 20
-3.8755255121922216
 30
-0.03488317004692238
 70
32
  0
VERTEX
  5
EA
330
17
100
AcDbEntity
  8
0
100
AcDbVertex
100
AcDb3dPolylineVertex
 10
-35.83603333316627
 20
-3.852440093455447
 30
-0.034883170046922374
 70
32
  0
VERTEX
  5
EB
330
17
100
AcDbEntity
  8
0
100
AcDbVertex
100
AcDb3dPolylineVertex
 10
-35.73873449739858
 20
-3.829354674718673
 30
-0.034883170046922374
 70
32
  0
VERTEX
  5
EC
330
17
100
AcDbEntity
  8
0
100
AcDbVertex
100
AcDb3dPolylineVertex
 10
-35.64143566163089
 20
-3.8062692559818982
 30
-0.03488317004692237
 70
32
  0
VERTEX
  5
ED
330
17
100
AcDbEntity
  8
0
100
AcDbVertex
100
AcDb3dPolylineVertex
 10
-35.5441368258632
 20
-3.783183837245124
 30
-0.03488317004692237
 70
32
  0
VERTEX
  5
EE
330
17
100
AcDbEntity
  8
0
100
AcDbVertex
100
AcDb3dPolylineVertex
 10
-35.44683799009551
 20
-3.76009841850835
 30
-0.03488317004692236
 70
32
  0
VERTEX
  5
EF
330
17
100
AcDbEntity
  8
0
100
AcDbVertex
100
AcDb3dPolylineVertex
 10
-35.34953915432782
 20
-3.7370129997715757
 30
-0.03488317004692236
 70
32
  0
VERTEX
  5
F0
330
17
100
AcDbEntity
  8
0
100
AcDbVertex
100
AcDb3dPolylineVertex
 10
-35.25224031856013
 20
-3.7139275810348016
 30
-0.03488317004692235
 70
32
  0
VERTEX
  5
F1
330
17
100
AcDbEntity
  8
0
100
AcDbVertex
100
AcDb3dPolylineVertex
 10
-35.15494148279244
 20
-3.6908421622980274
 30
-0.03488317004692235
 70
32
  0
VERTEX
  5
F2
330
17
100
AcDbEntity
  8
0
100
AcDbVertex
100
AcDb3dPolylineVertex
 10
-35.05764264702475
 20
-3.6677567435612533
 30
-0.034883170046922346
 70
32
  0
VERTEX
  5
F3
330
17
100
AcDbEntity
  8
0
100
AcDbVertex
100
AcDb3dPolylineVertex
 10
-34.96034381125706
 20
-3.6446713248244786
 30
-0.034883170046922346
 70
32
  0
VERTEX
  5
F4
330
17
100
AcDbEntity
  8
0
100
AcDbVertex
100
AcDb3dPolylineVertex
 10
-34.86304497548937
 20
-3.621585906087704
 30
-0.03488317004692234
 70
32
  0
VERTEX
  5
F5
330
17
100
AcDbEntity
  8
0
100
AcDbVertex
100
AcDb3dPolylineVertex
 10
-34.765746139721685
 20
-3.59850048735093
 30
-0.03488317004692234
 70
32
  0
VERTEX
  5
F6
330
17
100
AcDbEntity
  8
0
100
AcDbVertex
100
AcDb3dPolylineVertex
 10
-34.668447303954
 20
-3.5754150686141557
 30
-0.03488317004692234
 70
32
  0
VERTEX
  5
F7
330
17
100
AcDbEntity
  8
0
100
AcDbVertex
100
AcDb3dPolylineVertex
 10
-34.57114846818631
 20
-3.5523296498773815
 30
-0.03488317004692233
 70
32
  0
VERTEX
  5
F8
330
17
100
AcDbEntity
  8
0
100
AcDbVertex
100
AcDb3dPolylineVertex
 10
-34.47384963241861
 20
-3.5292442311406074
 30
-0.03488317004692233
 70
32
  0
VERTEX
  5
F9
330
17
100
AcDbEntity
  8
0
100
AcDbVertex
100
AcDb3dPolylineVertex
 10
-34.376550796650925
 20
-3.506158812403833
 30
-0.034883170046922325
 70
32
  0
VERTEX
  5
FA
330
17
100
AcDbEntity
  8
0
100
AcDbVertex
100
AcDb3dPolylineVertex
 10
-34.27925196088324
 20
-3.483073393667059
 30
-0.034883170046922325
 70
32
  0
VERTEX
  5
FB
330
17
100
AcDbEntity
  8
0
100
AcDbVertex
100
AcDb3dPolylineVertex
 10
-34.18195312511555
 20
-3.4599879749302844
 30
-0.03488317004692232
 70
32
  0
VERTEX
  5
FC
330
17
100
AcDbEntity
  8
0
100
AcDbVertex
100
AcDb3dPolylineVertex
 10
-34.08465428934786
 20
-3.4369025561935103
 30
-0.03488317004692232
 70
32
  0
VERTEX
  5
FD
330
17
100
AcDbEntity
  8
0
100
AcDbVertex
100
AcDb3dPolylineVertex
 10
-33.98735545358017
 20
-3.413817137456736
 30
-0.03488317004692231
 70
32
  0
VERTEX
  5
FE
330
17
100
AcDbEntity
  8
0
100
AcDbVertex
100
AcDb3dPolylineVertex
 10
-33.890056617812476
 20
-3.3907317187199615
 30
-0.03488317004692231
 70
32
  0
VERTEX
  5
FF
330
17
100
AcDbEntity
  8
0
100
AcDbVertex
100
AcDb3dPolylineVertex
 10
-33.79275778204479
 20
-3.3676462999831873
 30
-0.034883170046922304
 70
32
  0
VERTEX
  5
100
330
17
100
AcDbEntity
  8
0
100
AcDbVertex
100
AcDb3dPolylineVertex
 10
-33.6954589462771
 20
-3.344560881246413
 30
-0.034883170046922304
 70
32
  0
VERTEX
  5
101
330
17
100
AcDbEntity
  8
0
100
AcDbVertex
100
AcDb3dPolylineVertex
 10
-33.59816011050941
 20
-3.321475462509639
 30
-0.0348831700469223
 70
32
  0
VERTEX
  5
102
330
17
100
AcDbEntity
  8
0
100
AcDbVertex
100
AcDb3dPolylineVertex
 10
-33.50086127474172
 20
-3.298390043772865
 30
-0.0348831700469223
 70
32
  0
VERTEX
  5
103
330
17
100
AcDbEntity
  8
0
100
AcDbVertex
100
AcDb3dPolylineVertex
 10
-33.403562438974035
 20
-3.2753046250360907
 30
-0.03488317004692229
 70
32
  0
VERTEX
  5
104
330
17
100
AcDbEntity
  8
0
100
AcDbVertex
100
AcDb3dPolylineVertex
 10
-33.30626360320635
 20
-3.252219206299316
 30
-0.03488317004692229
 70
32
  0
VERTEX
  5
105
330
17
100
AcDbEntity
  8
0
100
AcDbVertex
100
AcDb3dPolylineVertex
 10
-33.20896476743865
 20
-3.2291337875625414
 30
-0.034883170046922284
 70
32
  0
VERTEX
  5
106
330
17
100
AcDbEntity
  8
0
100
AcDbVertex
100
AcDb3dPolylineVertex
 10
-33.11166593167096
 20
-3.2060483688257673
 30
-0.034883170046922284
 70
32
  0
VERTEX
  5
107
330
17
100
AcDbEntity
  8
0
100
AcDbVertex
100
AcDb3dPolylineVertex
 10
-33.014367095903275
 20
-3.182962950088993
 30
-0.03488317004692228
 70
32
  0
VERTEX
  5
108
330
17
100
AcDbEntity
  8
0
100
AcDbVertex
100
AcDb3dPolylineVertex
 10
-32.917068260135586
 20
-3.159877531352219
 30
-0.03488317004692228
 70
32
  0
VERTEX
  5
109
330
17
100
AcDbEntity
  8
0
100
AcDbVertex
100
AcDb3dPolylineVertex
 10
-32.8197694243679
 20
-3.1367921126154448
 30
-0.03488317004692227
 70
32
  0
VERTEX
  5
10A
330
17
100
AcDbEntity
  8
0
100
AcDbVertex
100
AcDb3dPolylineVertex
 10
-32.7224705886002
 20
-3.1137066938786706
 30
-0.03488317004692227
 70
32
  0
VERTEX
  5
10B
330
17
100
AcDbEntity
  8
0
100
AcDbVertex
100
AcDb3dPolylineVertex
 10
-32.625171752832514
 20
-3.0906212751418964
 30
-0.03488317004692226
 70
32
  0
VERTEX
  5
10C
330
17
100
AcDbEntity
  8
0
100
AcDbVertex
100
AcDb3dPolylineVertex
 10
-32.527872917064826
 20
-3.0675358564051223
 30
-0.03488317004692226
 70
32
  0
VERTEX
  5
10D
330
17
100
AcDbEntity
  8
0
100
AcDbVertex
100
AcDb3dPolylineVertex
 10
-32.43057408129714
 20
-3.044450437668348
 30
-0.034883170046922256
 70
32
  0
VERTEX
  5
10E
330
17
100
AcDbEntity
  8
0
100
AcDbVertex
100
AcDb3dPolylineVertex
 10
-32.33327524552945
 20
-3.021365018931573
 30
-0.034883170046922256
 70
32
  0
VERTEX
  5
10F
330
17
100
AcDbEntity
  8
0
100
AcDbVertex
100
AcDb3dPolylineVertex
 10
-32.23597640976176
 20
-2.998279600194799
 30
-0.03488317004692225
 70
32
  0
VERTEX
  5
110
330
17
100
AcDbEntity
  8
0
100
AcDbVertex
100
AcDb3dPolylineVertex
 10
-32.13867757399407
 20
-2.9751941814580247
 30
-0.03488317004692225
 70
32
  0
VERTEX
  5
111
330
17
100
AcDbEntity
  8
0
100
AcDbVertex
100
AcDb3dPolylineVertex
 10
-32.041378738226385
 20
-2.9521087627212506
 30
-0.03488317004692224
 70
32
  0
VERTEX
  5
112
330
17
100
AcDbEntity
  8
0
100
AcDbVertex
100
AcDb3dPolylineVertex
 10
-31.94407990245869
 20
-2.9290233439844764
 30
-0.03488317004692224
 70
32
  0
VERTEX
  5
113
330
17
100
AcDbEntity
  8
0
100
AcDbVertex
100
AcDb3dPolylineVertex
 10
-31.846781066691
 20
-2.905937925247702
 30
-0.034883170046922235
 70
32
  0
VERTEX
  5
114
330
17
100
AcDbEntity
  8
0
100
AcDbVertex
100
AcDb3dPolylineVertex
 10
-31.749482230923313
 20
-2.8828525065109276
 30
-0.034883170046922235
 70
32
  0
VERTEX
  5
115
330
17
100
AcDbEntity
  8
0
100
AcDbVertex
100
AcDb3dPolylineVertex
 10
-31.652183395155625
 20
-2.8597670877741534
 30
-0.034883170046922235
 70
32
  0
VERTEX
  5
116
330
17
100
AcDbEntity
  8
0
100
AcDbVertex
100
AcDb3dPolylineVertex
 10
-31.554884559387936
 20
-2.8366816690373793
 30
-0.03488317004692223
 70
32
  0
VERTEX
  5
117
330
17
100
AcDbEntity
  8
0
100
AcDbVertex
100
AcDb3dPolylineVertex
 10
-31.457585723620245
 20
-2.813596250300605
 30
-0.03488317004692223
 70
32
  0
VERTEX
  5
118
330
17
100
AcDbEntity
  8
0
100
AcDbVertex
100
AcDb3dPolylineVertex
 10
-31.360286887852553
 20
-2.7905108315638305
 30
-0.03488317004692222
 70
32
  0
VERTEX
  5
119
330
17
100
AcDbEntity
  8
0
100
AcDbVertex
100
AcDb3dPolylineVertex
 10
-31.262988052084864
 20
-2.7674254128270563
 30
-0.03488317004692222
 70
32
  0
VERTEX
  5
11A
330
17
100
AcDbEntity
  8
0
100
AcDbVertex
100
AcDb3dPolylineVertex
 10
-31.165689216317176
 20
-2.744339994090282
 30
-0.034883170046922214
 70
32
  0
VERTEX
  5
11B
330
17
100
AcDbEntity
  8
0
100
AcDbVertex
100
AcDb3dPolylineVertex
 10
-31.068390380549488
 20
-2.721254575353508
 30
-0.034883170046922214
 70
32
  0
VERTEX
  5
11C
330
17
100
AcDbEntity
  8
0
100
AcDbVertex
100
AcDb3dPolylineVertex
 10
-30.971091544781796
 20
-2.6981691566167334
 30
-0.03488317004692221
 70
32
  0
VERTEX
  5
11D
330
17
100
AcDbEntity
  8
0
100
AcDbVertex
100
AcDb3dPolylineVertex
 10
-30.873792709014108
 20
-2.6750837378799592
 30
-0.03488317004692221
 70
32
  0
VERTEX
  5
11E
330
17
100
AcDbEntity
  8
0
100
AcDbVertex
100
AcDb3dPolylineVertex
 10
-30.776493873246416
 20
-2.651998319143185
 30
-0.0348831700469222
 70
32
  0
VERTEX
  5
11F
330
17
100
AcDbEntity
  8
0
100
AcDbVertex
100
AcDb3dPolylineVertex
 10
-30.679195037478728
 20
-2.628912900406411
 30
-0.0348831700469222
 70
32
  0
VERTEX
  5
120
330
17
100
AcDbEntity
  8
0
100
AcDbVertex
100
AcDb3dPolylineVertex
 10
-30.58189620171104
 20
-2.6058274816696367
 30
-0.03488317004692219
 70
32
  0
VERTEX
  5
121
330
17
100
AcDbEntity
  8
0
100
AcDbVertex
100
AcDb3dPolylineVertex
 10
-30.48459736594335
 20
-2.582742062932862
 30
-0.03488317004692219
 70
32
  0
VERTEX
  5
122
330
17
100
AcDbEntity
  8
0
100
AcDbVertex
100
AcDb3dPolylineVertex
 10
-30.387298530175663
 20
-2.559656644196088
 30
-0.034883170046922186
 70
32
  0
VERTEX
  5
123
330
17
100
AcDbEntity
  8
0
100
AcDbVertex
100
AcDb3dPolylineVertex
 10
-30.28999969440797
 20
-2.536571225459314
 30
-0.034883170046922186
 70
32
  0
VERTEX
  5
124
330
17
100
AcDbEntity
  8
0
100
AcDbVertex
100
AcDb3dPolylineVertex
 10
-30.192700858640283
 20
-2.5134858067225396
 30
-0.03488317004692218
 70
32
  0
VERTEX
  5
125
330
17
100
AcDbEntity
  8
0
100
AcDbVertex
100
AcDb3dPolylineVertex
 10
-30.09540202287259
 20
-2.4904003879857655
 30
-0.03488317004692218
 70
32
  0
VERTEX
  5
126
330
17
100
AcDbEntity
  8
0
100
AcDbVertex
100
AcDb3dPolylineVertex
 10
-29.998103187104903
 20
-2.467314969248991
 30
-0.03488317004692217
 70
32
  0
VERTEX
  5
127
330
17
100
AcDbEntity
  8
0
100
AcDbVertex
100
AcDb3dPolylineVertex
 10
-29.900804351337214
 20
-2.4442295505122167
 30
-0.03488317004692217
 70
32
  0
VERTEX
  5
128
330
17
100
AcDbEntity
  8
0
100
AcDbVertex
100
AcDb3dPolylineVertex
 10
-29.803505515569526
 20
-2.4211441317754425
 30
-0.034883170046922166
 70
32
  0
VERTEX
  5
129
330
17
100
AcDbEntity
  8
0
100
AcDbVertex
100
AcDb3dPolylineVertex
 10
-29.706206679801838
 20
-2.3980587130386684
 30
-0.034883170046922166
 70
32
  0
VERTEX
  5
12A
330
17
100
AcDbEntity
  8
0
100
AcDbVertex
100
AcDb3dPolylineVertex
 10
-29.608907844034146
 20
-2.374973294301894
 30
-0.03488317004692216
 70
32
  0
VERTEX
  5
12B
330
17
100
AcDbEntity
  8
0
100
AcDbVertex
100
AcDb3dPolylineVertex
 10
-29.511609008266454
 20
-2.3518878755651196
 30
-0.03488317004692216
 70
32
  0
VERTEX
  5
12C
330
17
100
AcDbEntity
  8
0
100
AcDbVertex
100
AcDb3dPolylineVertex
 10
-29.414310172498766
 20
-2.328802456828345
 30
-0.03488317004692215
 70
32
  0
VERTEX
  5
12D
330
17
100
AcDbEntity
  8
0
100
AcDbVertex
100
AcDb3dPolylineVertex
 10
-29.317011336731078
 20
-2.305717038091571
 30
-0.03488317004692215
 70
32
  0
VERTEX
  5
12E
330
17
100
AcDbEntity
  8
0
100
AcDbVertex
100
AcDb3dPolylineVertex
 10
-29.21971250096339
 20
-2.2826316193547966
 30
-0.034883170046922145
 70
32
  0
VERTEX
  5
12F
330
17
100
AcDbEntity
  8
0
100
AcDbVertex
100
AcDb3dPolylineVertex
 10
-29.1224136651957
 20
-2.2595462006180225
 30
-0.034883170046922145
 70
32
  0
VERTEX
  5
130
330
17
100
AcDbEntity
  8
0
100
AcDbVertex
100
AcDb3dPolylineVertex
 10
-29.02511482942801
 20
-2.236460781881248
 30
-0.03488317004692214
 70
32
  0
VERTEX
  5
131
330
17
100
AcDbEntity
  8
0
100
AcDbVertex
100
AcDb3dPolylineVertex
 10
-28.927815993660317
 20
-2.2133753631444737
 30
-0.03488317004692214
 70
32
  0
VERTEX
  5
132
330
17
100
AcDbEntity
  8
0
100
AcDbVertex
100
AcDb3dPolylineVertex
 10
-28.83051715789263
 20
-2.1902899444076995
 30
-0.03488317004692214
 70
32
  0
VERTEX
  5
133
330
17
100
AcDbEntity
  8
0
100
AcDbVertex
100
AcDb3dPolylineVertex
 10
-28.73321832212494
 20
-2.1672045256709254
 30
-0.03488317004692213
 70
32
  0
VERTEX
  5
134
330
17
100
AcDbEntity
  8
0
100
AcDbVertex
100
AcDb3dPolylineVertex
 10
-28.635919486357253
 20
-2.144119106934151
 30
-0.03488317004692213
 70
32
  0
VERTEX
  5
135
330
17
100
AcDbEntity
  8
0
100
AcDbVertex
100
AcDb3dPolylineVertex
 10
-28.53862065058956
 20
-2.1210336881973766
 30
-0.034883170046922124
 70
32
  0
VERTEX
  5
136
330
17
100
AcDbEntity
  8
0
100
AcDbVertex
100
AcDb3dPolylineVertex
 10
-28.441321814821872
 20
-2.0979482694606024
 30
-0.034883170046922124
 70
32
  0
VERTEX
  5
137
330
17
100
AcDbEntity
  8
0
100
AcDbVertex
100
AcDb3dPolylineVertex
 10
-28.344022979054184
 20
-2.0748628507238283
 30
-0.03488317004692212
 70
32
  0
VERTEX
  5
138
330
17
100
AcDbEntity
  8
0
100
AcDbVertex
100
AcDb3dPolylineVertex
 10
-28.246724143286492
 20
-2.051777431987054
 30
-0.03488317004692212
 70
32
  0
VERTEX
  5
139
330
17
100
AcDbEntity
  8
0
100
AcDbVertex
100
AcDb3dPolylineVertex
 10
-28.149425307518804
 20
-2.02869201325028
 30
-0.03488317004692211
 70
32
  0
VERTEX
  5
13A
330
17
100
AcDbEntity
  8
0
100
AcDbVertex
100
AcDb3dPolylineVertex
 10
-28.052126471751116
 20
-2.0056065945135053
 30
-0.03488317004692211
 70
32
  0
VERTEX
  5
13B
330
17
100
AcDbEntity
  8
0
100
AcDbVertex
100
AcDb3dPolylineVertex
 10
-27.954827635983428
 20
-1.9825211757767311
 30
-0.0348831700469221
 70
32
  0
VERTEX
  5
13C
330
17
100
AcDbEntity
  8
0
100
AcDbVertex
100
AcDb3dPolylineVertex
 10
-27.857528800215736
 20
-1.959435757039957
 30
-0.0348831700469221
 70
32
  0
VERTEX
  5
13D
330
17
100
AcDbEntity
  8
0
100
AcDbVertex
100
AcDb3dPolylineVertex
 10
-27.760229964448047
 20
-1.9363503383031828
 30
-0.034883170046922096
 70
32
  0
VERTEX
  5
13E
330
17
100
AcDbEntity
  8
0
100
AcDbVertex
100
AcDb3dPolylineVertex
 10
-27.66293112868036
 20
-1.9132649195664087
 30
-0.034883170046922096
 70
32
  0
VERTEX
  5
13F
330
17
100
AcDbEntity
  8
0
100
AcDbVertex
100
AcDb3dPolylineVertex
 10
-27.565632292912667
 20
-1.890179500829634
 30
-0.03488317004692209
 70
32
  0
VERTEX
  5
140
330
17
100
AcDbEntity
  8
0
100
AcDbVertex
100
AcDb3dPolylineVertex
 10
-27.46833345714498
 20
-1.8670940820928599
 30
-0.03488317004692209
 70
32
  0
VERTEX
  5
141
330
17
100
AcDbEntity
  8
0
100
AcDbVertex
100
AcDb3dPolylineVertex
 10
-27.37103462137729
 20
-1.8440086633560857
 30
-0.03488317004692208
 70
32
  0
VERTEX
  5
142
330
17
100
AcDbEntity
  8
0
100
AcDbVertex
100
AcDb3dPolylineVertex
 10
-27.273735785609603
 20
-1.8209232446193115
 30
-0.03488317004692208
 70
32
  0
VERTEX
  5
143
330
17
100
AcDbEntity
  8
0
100
AcDbVertex
100
AcDb3dPolylineVertex
 10
-27.17643694984191
 20
-1.7978378258825374
 30
-0.034883170046922075
 70
32
  0
VERTEX
  5
144
330
17
100
AcDbEntity
  8
0
100
AcDbVertex
100
AcDb3dPolylineVertex
 10
-27.07913811407422
 20
-1.7747524071457628
 30
-0.034883170046922075
 70
32
  0
VERTEX
  5
145
330
17
100
AcDbEntity
  8
0
100
AcDbVertex
100
AcDb3dPolylineVertex
 10
-26.98183927830653
 20
-1.7516669884089886
 30
-0.03488317004692207
 70
32
  0
VERTEX
  5
146
330
17
100
AcDbEntity
  8
0
100
AcDbVertex
100
AcDb3dPolylineVertex
 10
-26.884540442538842
 20
-1.7285815696722144
 30
-0.03488317004692207
 70
32
  0
VERTEX
  5
147
330
17
100
AcDbEntity
  8
0
100
AcDbVertex
100
AcDb3dPolylineVertex
 10
-26.787241606771154
 20
-1.7054961509354403
 30
-0.03488317004692206
 70
32
  0
VERTEX
  5
148
330
17
100
AcDbEntity
  8
0
100
AcDbVertex
100
AcDb3dPolylineVertex
 10
-26.689942771003466
 20
-1.682410732198666
 30
-0.03488317004692206
 70
32
  0
VERTEX
  5
149
330
17
100
AcDbEntity
  8
0
100
AcDbVertex
100
AcDb3dPolylineVertex
 10
-26.592643935235774
 20
-1.6593253134618915
 30
-0.034883170046922055
 70
32
  0
VERTEX
  5
14A
330
17
100
AcDbEntity
  8
0
100
AcDbVertex
100
AcDb3dPolylineVertex
 10
-26.495345099468082
 20
-1.6362398947251173
 30
-0.034883170046922055
 70
32
  0
VERTEX
  5
14B
330
17
100
AcDbEntity
  8
0
100
AcDbVertex
100
AcDb3dPolylineVertex
 10
-26.398046263700394
 20
-1.6131544759883432
 30
-0.03488317004692205
 70
32
  0
VERTEX
  5
14C
330
17
100
AcDbEntity
  8
0
100
AcDbVertex
100
AcDb3dPolylineVertex
 10
-26.300747427932706
 20
-1.5900690572515686
 30
-0.03488317004692205
 70
32
  0
VERTEX
  5
14D
330
17
100
AcDbEntity
  8
0
100
AcDbVertex
100
AcDb3dPolylineVertex
 10
-26.203448592165017
 20
-1.5669836385147944
 30
-0.03488317004692204
 70
32
  0
VERTEX
  5
14E
330
17
100
AcDbEntity
  8
0
100
AcDbVertex
100
AcDb3dPolylineVertex
 10
-26.10614975639733
 20
-1.5438982197780198
 30
-0.03488317004692204
 70
32
  0
VERTEX
  5
14F
330
17
100
AcDbEntity
  8
0
100
AcDbVertex
100
AcDb3dPolylineVertex
 10
-26.008850920629637
 20
-1.5208128010412456
 30
-0.03488317004692204
 70
32
  0
VERTEX
  5
150
330
17
100
AcDbEntity
  8
0
100
AcDbVertex
100
AcDb3dPolylineVertex
 10
-25.91155208486195
 20
-1.4977273823044714
 30
-0.034883170046922034
 70
32
  0
VERTEX
  5
151
330
17
100
AcDbEntity
  8
0
100
AcDbVertex
100
AcDb3dPolylineVertex
 10
-25.814253249094257
 20
-1.4746419635676973
 30
-0.034883170046922034
 70
32
  0
VERTEX
  5
152
330
17
100
AcDbEntity
  8
0
100
AcDbVertex
100
AcDb3dPolylineVertex
 10
-25.71695441332657
 20
-1.4515565448309231
 30
-0.03488317004692203
 70
32
  0
VERTEX
  5
153
330
17
100
AcDbEntity
  8
0
100
AcDbVertex
100
AcDb3dPolylineVertex
 10
-25.61965557755888
 20
-1.4284711260941485
 30
-0.03488317004692203
 70
32
  0
VERTEX
  5
154
330
17
100
AcDbEntity
  8
0
100
AcDbVertex
100
AcDb3dPolylineVertex
 10
-25.522356741791192
 20
-1.4053857073573743
 30
-0.03488317004692202
 70
32
  0
VERTEX
  5
155
330
17
100
AcDbEntity
  8
0
100
AcDbVertex
100
AcDb3dPolylineVertex
 10
-25.425057906023504
 20
-1.3823002886206002
 30
-0.03488317004692202
 70
32
  0
VERTEX
  5
156
330
17
100
AcDbEntity
  8
0
100
AcDbVertex
100
AcDb3dPolylineVertex
 10
-25.327759070255812
 20
-1.359214869883826
 30
-0.03488317004692201
 70
32
  0
VERTEX
  5
157
330
17
100
AcDbEntity
  8
0
100
AcDbVertex
100
AcDb3dPolylineVertex
 10
-25.230460234488124
 20
-1.3361294511470518
 30
-0.03488317004692201
 70
32
  0
VERTEX
  5
158
330
17
100
AcDbEntity
  8
0
100
AcDbVertex
100
AcDb3dPolylineVertex
 10
-25.133161398720432
 20
-1.3130440324102772
 30
-0.034883170046922006
 70
32
  0
VERTEX
  5
159
330
17
100
AcDbEntity
  8
0
100
AcDbVertex
100
AcDb3dPolylineVertex
 10
-25.035862562952744
 20
-1.289958613673503
 30
-0.034883170046922006
 70
32
  0
VERTEX
  5
15A
330
17
100
AcDbEntity
  8
0
100
AcDbVertex
100
AcDb3dPolylineVertex
 10
-24.938563727185056
 20
-1.266873194936729
 30
-0.034883170046922
 70
32
  0
VERTEX
  5
15B
330
17
100
AcDbEntity
  8
0
100
AcDbVertex
100
AcDb3dPolylineVertex
 10
-24.841264891417367
 20
-1.2437877761999547
 30
-0.034883170046922
 70
32
  0
VERTEX
  5
15C
330
17
100
AcDbEntity
  8
0
100
AcDbVertex
100
AcDb3dPolylineVertex
 10
-24.743966055649675
 20
-1.2207023574631801
 30
-0.03488317004692199
 70
32
  0
VERTEX
  5
15D
330
17
100
AcDbEntity
  8
0
100
AcDbVertex
100
AcDb3dPolylineVertex
 10
-24.646667219881984
 20
-1.1976169387264055
 30
-0.03488317004692199
 70
32
  0
VERTEX
  5
15E
330
17
100
AcDbEntity
  8
0
100
AcDbVertex
100
AcDb3dPolylineVertex
 10
-24.549368384114295
 20
-1.1745315199896318
 30
-0.034883170046921985
 70
32
  0
VERTEX
  5
15F
330
17
100
AcDbEntity
  8
0
100
AcDbVertex
100
AcDb3dPolylineVertex
 10
-24.452069548346607
 20
-1.1514461012528572
 30
-0.034883170046921985
 70
32
  0
VERTEX
  5
160
330
17
100
AcDbEntity
  8
0
100
AcDbVertex
100
AcDb3dPolylineVertex
 10
-24.354770712578915
 20
-1.1283606825160826
 30
-0.03488317004692198
 70
32
  0
VERTEX
  5
161
330
17
100
AcDbEntity
  8
0
100
AcDbVertex
100
AcDb3dPolylineVertex
 10
-24.257471876811227
 20
-1.1052752637793088
 30
-0.03488317004692198
 70
32
  0
VERTEX
  5
162
330
17
100
AcDbEntity
  8
0
100
AcDbVertex
100
AcDb3dPolylineVertex
 10
-24.16017304104354
 20
-1.0821898450425342
 30
-0.03488317004692197
 70
32
  0
VERTEX
  5
163
330
17
100
AcDbEntity
  8
0
100
AcDbVertex
100
AcDb3dPolylineVertex
 10
-24.06287420527585
 20
-1.0591044263057605
 30
-0.03488317004692197
 70
32
  0
VERTEX
  5
164
330
17
100
AcDbEntity
  8
0
100
AcDbVertex
100
AcDb3dPolylineVertex
 10
-23.96557536950816
 20
-1.036019007568986
 30
-0.034883170046921964
 70
32
  0
VERTEX
  5
165
330
17
100
AcDbEntity
  8
0
100
AcDbVertex
100
AcDb3dPolylineVertex
 10
-23.868276533740467
 20
-1.0129335888322113
 30
-0.034883170046921964
 70
32
  0
VERTEX
  5
166
330
17
100
AcDbEntity
  8
0
100
AcDbVertex
100
AcDb3dPolylineVertex
 10
-23.770977697972782
 20
-0.9898481700954376
 30
-0.03488317004692196
 70
32
  0
VERTEX
  5
167
330
17
100
AcDbEntity
  8
0
100
AcDbVertex
100
AcDb3dPolylineVertex
 10
-23.67367886220509
 20
-0.966762751358663
 30
-0.03488317004692196
 70
32
  0
VERTEX
  5
168
330
17
100
AcDbEntity
  8
0
100
AcDbVertex
100
AcDb3dPolylineVertex
 10
-23.576380026437402
 20
-0.9436773326218892
 30
-0.03488317004692195
 70
32
  0
VERTEX
  5
169
330
17
100
AcDbEntity
  8
0
100
AcDbVertex
100
AcDb3dPolylineVertex
 10
-23.47908119066971
 20
-0.9205919138851142
 30
-0.03488317004692195
 70
32
  0
VERTEX
  5
16A
330
17
100
AcDbEntity
  8
0
100
AcDbVertex
100
AcDb3dPolylineVertex
 10
-23.381782354902022
 20
-0.89750649514834
 30
-0.034883170046921944
 70
32
  0
VERTEX
  5
16B
330
17
100
AcDbEntity
  8
0
100
AcDbVertex
100
AcDb3dPolylineVertex
 10
-23.284483519134334
 20
-0.8744210764115659
 30
-0.034883170046921944
 70
32
  0
VERTEX
  5
16C
330
17
100
AcDbEntity
  8
0
100
AcDbVertex
100
AcDb3dPolylineVertex
 10
-23.18718468336664
 20
-0.8513356576747917
 30
-0.034883170046921944
 70
32
  0
VERTEX
  5
16D
330
17
100
AcDbEntity
  8
0
100
AcDbVertex
100
AcDb3dPolylineVertex
 10
-23.089885847598957
 20
-0.8282502389380175
 30
-0.03488317004692194
 70
32
  0
VERTEX
  5
16E
330
17
100
AcDbEntity
  8
0
100
AcDbVertex
100
AcDb3dPolylineVertex
 10
-22.992587011831265
 20
-0.8051648202012434
 30
-0.03488317004692194
 70
32
  0
VERTEX
  5
16F
330
17
100
AcDbEntity
  8
0
100
AcDbVertex
100
AcDb3dPolylineVertex
 10
-22.895288176063573
 20
-0.7820794014644683
 30
-0.03488317004692193
 70
32
  0
VERTEX
  5
170
330
17
100
AcDbEntity
  8
0
100
AcDbVertex
100
AcDb3dPolylineVertex
 10
-22.797989340295885
 20
-0.758993982727695
 30
-0.03488317004692193
 70
32
  0
VERTEX
  5
171
330
17
100
AcDbEntity
  8
0
100
AcDbVertex
100
AcDb3dPolylineVertex
 10
-22.700690504528197
 20
-0.73590856399092
 30
-0.03488317004692192
 70
32
  0
VERTEX
  5
172
330
17
100
AcDbEntity
  8
0
100
AcDbVertex
100
AcDb3dPolylineVertex
 10
-22.60339166876051
 20
-0.7128231452541467
 30
-0.03488317004692192
 70
32
  0
VERTEX
  5
173
330
17
100
AcDbEntity
  8
0
100
AcDbVertex
100
AcDb3dPolylineVertex
 10
-22.506092832992817
 20
-0.6897377265173716
 30
-0.034883170046921916
 70
32
  0
VERTEX
  5
174
330
17
100
AcDbEntity
  8
0
100
AcDbVertex
100
AcDb3dPolylineVertex
 10
-22.40879399722513
 20
-0.6666523077805975
 30
-0.034883170046921916
 70
32
  0
VERTEX
  5
175
330
17
100
AcDbEntity
  8
0
100
AcDbVertex
100
AcDb3dPolylineVertex
 10
-22.31149516145744
 20
-0.6435668890438233
 30
-0.03488317004692191
 70
32
  0
VERTEX
  5
176
330
17
100
AcDbEntity
  8
0
100
AcDbVertex
100
AcDb3dPolylineVertex
 10
-22.21419632568975
 20
-0.6204814703070491
 30
-0.03488317004692191
 70
32
  0
VERTEX
  5
177
330
17
100
AcDbEntity
  8
0
100
AcDbVertex
100
AcDb3dPolylineVertex
 10
-22.11689748992206
 20
-0.597396051570275
 30
-0.0348831700469219
 70
32
  0
VERTEX
  5
178
330
17
100
AcDbEntity
  8
0
100
AcDbVertex
100
AcDb3dPolylineVertex
 10
-22.019598654154372
 20
-0.5743106328335008
 30
-0.0348831700469219
 70
32
  0
VERTEX
  5
179
330
17
100
AcDbEntity
  8
0
100
AcDbVertex
100
AcDb3dPolylineVertex
 10
-21.92229981838668
 20
-0.5512252140967258
 30
-0.034883170046921895
 70
32
  0
VERTEX
  5
17A
330
17
100
AcDbEntity
  8
0
100
AcDbVertex
100
AcDb3dPolylineVertex
 10
-21.82500098261899
 20
-0.5281397953599525
 30
-0.034883170046921895
 70
32
  0
VERTEX
  5
17B
330
17
100
AcDbEntity
  8
0
100
AcDbVertex
100
AcDb3dPolylineVertex
 10
-21.727702146851303
 20
-0.5050543766231774
 30
-0.03488317004692189
 70
32
  0
VERTEX
  5
17C
330
17
100
AcDbEntity
  8
0
100
AcDbVertex
100
AcDb3dPolylineVertex
 10
-21.63040331108361
 20
-0.48196895788640326
 30
-0.03488317004692189
 70
32
  0
VERTEX
  5
17D
330
17
100
AcDbEntity
  8
0
100
AcDbVertex
100
AcDb3dPolylineVertex
 10
-21.533104475315923
 20
-0.4588835391496291
 30
-0.03488317004692188
 70
32
  0
VERTEX
  5
17E
330
17
100
AcDbEntity
  8
0
100
AcDbVertex
100
AcDb3dPolylineVertex
 10
-21.43580563954823
 20
-0.43579812041285493
 30
-0.03488317004692188
 70
32
  0
VERTEX
  5
17F
330
17
100
AcDbEntity
  8
0
100
AcDbVertex
100
AcDb3dPolylineVertex
 10
-21.338506803780547
 20
-0.41271270167608076
 30
-0.034883170046921874
 70
32
  0
VERTEX
  5
180
330
17
100
AcDbEntity
  8
0
100
AcDbVertex
100
AcDb3dPolylineVertex
 10
-21.241207968012855
 20
-0.3896272829393057
 30
-0.034883170046921874
 70
32
  0
VERTEX
  5
181
330
17
100
AcDbEntity
  8
0
100
AcDbVertex
100
AcDb3dPolylineVertex
 10
-21.143909132245163
 20
-0.36654186420253154
 30
-0.03488317004692187
 70
32
  0
VERTEX
  5
182
330
17
100
AcDbEntity
  8
0
100
AcDbVertex
100
AcDb3dPolylineVertex
 10
-21.04661029647748
 20
-0.3434564454657574
 30
-0.03488317004692187
 70
32
  0
VERTEX
  5
183
330
17
100
AcDbEntity
  8
0
100
AcDbVertex
100
AcDb3dPolylineVertex
 10
-20.949311460709787
 20
-0.3203710267289832
 30
-0.03488317004692186
 70
32
  0
VERTEX
  5
184
330
17
100
AcDbEntity
  8
0
100
AcDbVertex
100
AcDb3dPolylineVertex
 10
-20.8520126249421
 20
-0.29728560799220904
 30
-0.03488317004692186
 70
32
  0
VERTEX
  5
185
330
17
100
AcDbEntity
  8
0
100
AcDbVertex
100
AcDb3dPolylineVertex
 10
-20.754713789174406
 20
-0.2742001892554349
 30
-0.03488317004692185
 70
32
  0
VERTEX
  5
186
330
17
100
AcDbEntity
  8
0
100
AcDbVertex
100
AcDb3dPolylineVertex
 10
-20.657414953406718
 20
-0.2511147705186598
 30
-0.03488317004692185
 70
32
  0
VERTEX
  5
187
330
17
100
AcDbEntity
  8
0
100
AcDbVertex
100
AcDb3dPolylineVertex
 10
-20.56011611763903
 20
-0.22802935178188655
 30
-0.034883170046921846
 70
32
  0
VERTEX
  5
188
330
17
100
AcDbEntity
  8
0
100
AcDbVertex
100
AcDb3dPolylineVertex
 10
-20.462817281871338
 20
-0.2049439330451115
 30
-0.034883170046921846
 70
32
  0
VERTEX
  5
189
330
17
100
AcDbEntity
  8
0
100
AcDbVertex
100
AcDb3dPolylineVertex
 10
-20.365518446103653
 20
-0.18185851430833821
 30
-0.034883170046921846
 70
32
  0
VERTEX
  5
18A
330
17
100
AcDbEntity
  8
0
100
AcDbVertex
100
AcDb3dPolylineVertex
 10
-20.26821961033596
 20
-0.15877309557156316
 30
-0.03488317004692184
 70
32
  0
VERTEX
  5
18B
330
17
100
AcDbEntity
  8
0
100
AcDbVertex
100
AcDb3dPolylineVertex
 10
-20.17092077456827
 20
-0.135687676834789
 30
-0.03488317004692184
 70
32
  0
VERTEX
  5
18C
330
17
100
AcDbEntity
  8
0
100
AcDbVertex
100
AcDb3dPolylineVertex
 10
-20.07362193880058
 20
-0.11260225809801483
 30
-0.03488317004692183
 70
32
  0
VERTEX
  5
18D
330
17
100
AcDbEntity
  8
0
100
AcDbVertex
100
AcDb3dPolylineVertex
 10
-19.976323103032893
 20
-0.08951683936124066
 30
-0.03488317004692183
 70
32
  0
VERTEX
  5
18E
330
17
100
AcDbEntity
  8
0
100
AcDbVertex
100
AcDb3dPolylineVertex
 10
-19.879024267265205
 20
-0.0664314206244665
 30
-0.034883170046921826
 70
32
  0
VERTEX
  5
18F
330
17
100
AcDbEntity
  8
0
100
AcDbVertex
100
AcDb3dPolylineVertex
 10
-19.781725431497513
 20
-0.04334600188769233
 30
-0.034883170046921826
 70
32
  0
VERTEX
  5
190
330
17
100
AcDbEntity
  8
0
100
AcDbVertex
100
AcDb3dPolylineVertex
 10
-19.684426595729825
 20
-0.020260583150917277
 30
-0.03488317004692182
 70
32
  0
VERTEX
  5
191
330
17
100
AcDbEntity
  8
0
100
AcDbVertex
100
AcDb3dPolylineVertex
 10
-19.587127759962137
 20
0.0028248355858560004
 30
-0.03488317004692182
 70
32
  0
VERTEX
  5
192
330
17
100
AcDbEntity
  8
0
100
AcDbVertex
100
AcDb3dPolylineVertex
 10
-19.489828924194445
 20
0.025910254322631054
 30
-0.03488317004692181
 70
32
  0
VERTEX
  5
193
330
17
100
AcDbEntity
  8
0
100
AcDbVertex
100
AcDb3dPolylineVertex
 10
-19.392530088426756
 20
0.04899567305940433
 30
-0.03488317004692181
 70
32
  0
VERTEX
  5
194
330
17
100
AcDbEntity
  8
0
100
AcDbVertex
100
AcDb3dPolylineVertex
 10
-19.295231252659068
 20
0.07208109179617939
 30
-0.034883170046921805
 70
32
  0
VERTEX
  5
195
330
17
100
AcDbEntity
  8
0
100
AcDbVertex
100
AcDb3dPolylineVertex
 10
-19.197932416891376
 20
0.09516651053295355
 30
-0.034883170046921805
 70
32
  0
VERTEX
  5
196
330
17
100
AcDbEntity
  8
0
100
AcDbVertex
100
AcDb3dPolylineVertex
 10
-19.100633581123688
 20
0.11825192926972772
 30
-0.0348831700469218
 70
32
  0
VERTEX
  5
197
330
17
100
AcDbEntity
  8
0
100
AcDbVertex
100
AcDb3dPolylineVertex
 10
-19.003334745356
 20
0.14133734800650188
 30
-0.0348831700469218
 70
32
  0
VERTEX
  5
198
330
17
100
AcDbEntity
  8
0
100
AcDbVertex
100
AcDb3dPolylineVertex
 10
-18.90603590958831
 20
0.16442276674327605
 30
-0.03488317004692179
 70
32
  0
VERTEX
  5
199
330
17
100
AcDbEntity
  8
0
100
AcDbVertex
100
AcDb3dPolylineVertex
 10
-18.80873707382062
 20
0.18750818548005022
 30
-0.03488317004692179
 70
32
  0
VERTEX
  5
19A
330
17
100
AcDbEntity
  8
0
100
AcDbVertex
100
AcDb3dPolylineVertex
 10
-18.711438238052928
 20
0.21059360421682527
 30
-0.034883170046921784
 70
32
  0
VERTEX
  5
19B
330
17
100
AcDbEntity
  8
0
100
AcDbVertex
100
AcDb3dPolylineVertex
 10
-18.614139402285243
 20
0.23367902295359855
 30
-0.034883170046921784
 70
32
  0
VERTEX
  5
19C
330
17
100
AcDbEntity
  8
0
100
AcDbVertex
100
AcDb3dPolylineVertex
 10
-18.51684056651755
 20
0.2567644416903736
 30
-0.03488317004692178
 70
32
  0
VERTEX
  5
19D
330
17
100
AcDbEntity
  8
0
100
AcDbVertex
100
AcDb3dPolylineVertex
 10
-18.419541730749863
 20
0.27984986042714777
 30
-0.03488317004692178
 70
32
  0
VERTEX
  5
19E
330
17
100
AcDbEntity
  8
0
100
AcDbVertex
100
AcDb3dPolylineVertex
 10
-18.322242894982175
 20
0.30293527916392193
 30
-0.03488317004692177
 70
32
  0
VERTEX
  5
19F
330
17
100
AcDbEntity
  8
0
100
AcDbVertex
100
AcDb3dPolylineVertex
 10
-18.224944059214483
 20
0.3260206979006961
 30
-0.03488317004692177
 70
32
  0
VERTEX
  5
1A0
330
17
100
AcDbEntity
  8
0
100
AcDbVertex
100
AcDb3dPolylineVertex
 10
-18.127645223446795
 20
0.34910611663747027
 30
-0.03488317004692176
 70
32
  0
VERTEX
  5
1A1
330
17
100
AcDbEntity
  8
0
100
AcDbVertex
100
AcDb3dPolylineVertex
 10
-18.030346387679103
 20
0.3721915353742453
 30
-0.03488317004692176
 70
32
  0
VERTEX
  5
1A2
330
17
100
AcDbEntity
  8
0
100
AcDbVertex
100
AcDb3dPolylineVertex
 10
-17.933047551911418
 20
0.3952769541110186
 30
-0.034883170046921756
 70
32
  0
VERTEX
  5
1A3
330
17
100
AcDbEntity
  8
0
100
AcDbVertex
100
AcDb3dPolylineVertex
 10
-17.835748716143726
 20
0.41836237284779365
 30
-0.034883170046921756
 70
32
  0
VERTEX
  5
1A4
330
17
100
AcDbEntity
  8
0
100
AcDbVertex
100
AcDb3dPolylineVertex
 10
-17.738449880376034
 20
0.4414477915845678
 30
-0.03488317004692175
 70
32
  0
VERTEX
  5
1A5
330
17
100
AcDbEntity
  8
0
100
AcDbVertex
100
AcDb3dPolylineVertex
 10
-17.64115104460835
 20
0.464533210321342
 30
-0.03488317004692175
 70
32
  0
VERTEX
  5
1A6
330
17
100
AcDbEntity
  8
0
100
AcDbVertex
100
AcDb3dPolylineVertex
 10
-17.543852208840658
 20
0.48761862905811615
 30
-0.03488317004692175
 70
32
  0
VERTEX
  5
1A7
330
17
100
AcDbEntity
  8
0
100
AcDbVertex
100
AcDb3dPolylineVertex
 10
-17.44655337307297
 20
0.5107040477948903
 30
-0.03488317004692174
 70
32
  0
VERTEX
  5
1A8
330
17
100
AcDbEntity
  8
0
100
AcDbVertex
100
AcDb3dPolylineVertex
 10
-17.349254537305278
 20
0.5337894665316645
 30
-0.03488317004692174
 70
32
  0
VERTEX
  5
1A9
330
17
100
AcDbEntity
  8
0
100
AcDbVertex
100
AcDb3dPolylineVertex
 10
-17.25195570153759
 20
0.5568748852684395
 30
-0.034883170046921735
 70
32
  0
VERTEX
  5
1AA
330
17
100
AcDbEntity
  8
0
100
AcDbVertex
100
AcDb3dPolylineVertex
 10
-17.1546568657699
 20
0.5799603040052128
 30
-0.034883170046921735
 70
32
  0
VERTEX
  5
1AB
330
17
100
AcDbEntity
  8
0
100
AcDbVertex
100
AcDb3dPolylineVertex
 10
-17.05735803000221
 20
0.6030457227419879
 30
-0.03488317004692173
 70
32
  0
VERTEX
  5
1AC
330
17
100
AcDbEntity
  8
0
100
AcDbVertex
100
AcDb3dPolylineVertex
 10
-16.960059194234525
 20
0.6261311414787611
 30
-0.03488317004692173
 70
32
  0
VERTEX
  5
1AD
330
17
100
AcDbEntity
  8
0
100
AcDbVertex
100
AcDb3dPolylineVertex
 10
-16.862760358466833
 20
0.6492165602155362
 30
-0.03488317004692172
 70
32
  0
VERTEX
  5
1AE
330
17
100
AcDbEntity
  8
0
100
AcDbVertex
100
AcDb3dPolylineVertex
 10
-16.76546152269914
 20
0.6723019789523104
 30
-0.03488317004692172
 70
32
  0
VERTEX
  5
1AF
330
17
100
AcDbEntity
  8
0
100
AcDbVertex
100
AcDb3dPolylineVertex
 10
-16.668162686931453
 20
0.6953873976890845
 30
-0.034883170046921715
 70
32
  0
VERTEX
  5
1B0
330
17
100
AcDbEntity
  8
0
100
AcDbVertex
100
AcDb3dPolylineVertex
 10
-16.570863851163764
 20
0.7184728164258587
 30
-0.034883170046921715
 70
32
  0
VERTEX
  5
1B1
330
17
100
AcDbEntity
  8
0
100
AcDbVertex
100
AcDb3dPolylineVertex
 10
-16.473565015396076
 20
0.7415582351626329
 30
-0.03488317004692171
 70
32
  0
VERTEX
  5
1B2
330
17
100
AcDbEntity
  8
0
100
AcDbVertex
100
AcDb3dPolylineVertex
 10
-16.376266179628384
 20
0.764643653899407
 30
-0.03488317004692171
 70
32
  0
VERTEX
  5
1B3
330
17
100
AcDbEntity
  8
0
100
AcDbVertex
100
AcDb3dPolylineVertex
 10
-16.278967343860696
 20
0.7877290726361821
 30
-0.0348831700469217
 70
32
  0
VERTEX
  5
1B4
330
17
100
AcDbEntity
  8
0
100
AcDbVertex
100
AcDb3dPolylineVertex
 10
-16.181668508093008
 20
0.8108144913729554
 30
-0.0348831700469217
 70
32
  0
VERTEX
  5
1B5
330
17
100
AcDbEntity
  8
0
100
AcDbVertex
100
AcDb3dPolylineVertex
 10
-16.084369672325316
 20
0.8338999101097304
 30
-0.034883170046921694
 70
32
  0
VERTEX
  5
1B6
330
17
100
AcDbEntity
  8
0
100
AcDbVertex
100
AcDb3dPolylineVertex
 10
-15.987070836557628
 20
0.8569853288465037
 30
-0.034883170046921694
 70
32
  0
VERTEX
  5
1B7
330
17
100
AcDbEntity
  8
0
100
AcDbVertex
100
AcDb3dPolylineVertex
 10
-15.88977200078994
 20
0.8800707475832787
 30
-0.03488317004692169
 70
32
  0
VERTEX
  5
1B8
330
17
100
AcDbEntity
  8
0
100
AcDbVertex
100
AcDb3dPolylineVertex
 10
-15.792473165022248
 20
0.9031561663200529
 30
-0.03488317004692169
 70
32
  0
VERTEX
  5
1B9
330
17
100
AcDbEntity
  8
0
100
AcDbVertex
100
AcDb3dPolylineVertex
 10
-15.69517432925456
 20
0.9262415850568271
 30
-0.03488317004692168
 70
32
  0
VERTEX
  5
1BA
330
17
100
AcDbEntity
  8
0
100
AcDbVertex
100
AcDb3dPolylineVertex
 10
-15.597875493486871
 20
0.9493270037936012
 30
-0.03488317004692168
 70
32
  0
VERTEX
  5
1BB
330
17
100
AcDbEntity
  8
0
100
AcDbVertex
100
AcDb3dPolylineVertex
 10
-15.500576657719183
 20
0.9724124225303754
 30
-0.03488317004692167
 70
32
  0
VERTEX
  5
1BC
330
17
100
AcDbEntity
  8
0
100
AcDbVertex
100
AcDb3dPolylineVertex
 10
-15.403277821951491
 20
0.9954978412671496
 30
-0.03488317004692167
 70
32
  0
VERTEX
  5
1BD
330
17
100
AcDbEntity
  8
0
100
AcDbVertex
100
AcDb3dPolylineVertex
 10
-15.3059789861838
 20
1.0185832600039246
 30
-0.034883170046921666
 70
32
  0
VERTEX
  5
1BE
330
17
100
AcDbEntity
  8
0
100
AcDbVertex
100
AcDb3dPolylineVertex
 10
-15.208680150416114
 20
1.0416686787406988
 30
-0.034883170046921666
 70
32
  0
VERTEX
  5
1BF
330
17
100
AcDbEntity
  8
0
100
AcDbVertex
100
AcDb3dPolylineVertex
 10
-15.111381314648423
 20
1.064754097477473
 30
-0.03488317004692166
 70
32
  0
VERTEX
  5
1C0
330
17
100
AcDbEntity
  8
0
100
AcDbVertex
100
AcDb3dPolylineVertex
 10
-15.014082478880734
 20
1.0878395162142471
 30
-0.03488317004692166
 70
32
  0
VERTEX
  5
1C1
330
17
100
AcDbEntity
  8
0
100
AcDbVertex
100
AcDb3dPolylineVertex
 10
-14.916783643113046
 20
1.1109249349510213
 30
-0.03488317004692165
 70
32
  0
VERTEX
  5
1C2
330
17
100
AcDbEntity
  8
0
100
AcDbVertex
100
AcDb3dPolylineVertex
 10
-14.819484807345354
 20
1.1340103536877963
 30
-0.03488317004692165
 70
32
  0
VERTEX
  5
1C3
330
17
100
AcDbEntity
  8
0
100
AcDbVertex
100
AcDb3dPolylineVertex
 10
-14.722185971577666
 20
1.1570957724245696
 30
-0.034883170046921645
 70
32
  0
VERTEX
  5
1C4
330
17
100
AcDbEntity
  8
0
100
AcDbVertex
100
AcDb3dPolylineVertex
 10
-14.624887135809974
 20
1.1801811911613447
 30
-0.034883170046921645
 70
32
  0
VERTEX
  5
1C5
330
17
100
AcDbEntity
  8
0
100
AcDbVertex
100
AcDb3dPolylineVertex
 10
-14.52758830004229
 20
1.203266609898118
 30
-0.034883170046921645
 70
32
  0
VERTEX
  5
1C6
330
17
100
AcDbEntity
  8
0
100
AcDbVertex
100
AcDb3dPolylineVertex
 10
-14.430289464274598
 20
1.226352028634893
 30
-0.03488317004692164
 70
32
  0
VERTEX
  5
1C7
330
17
100
AcDbEntity
  8
0
100
AcDbVertex
100
AcDb3dPolylineVertex
 10
-14.332990628506906
 20
1.2494374473716672
 30
-0.03488317004692164
 70
32
  0
VERTEX
  5
1C8
330
17
100
AcDbEntity
  8
0
100
AcDbVertex
100
AcDb3dPolylineVertex
 10
-14.235691792739221
 20
1.2725228661084413
 30
-0.03488317004692163
 70
32
  0
VERTEX
  5
1C9
330
17
100
AcDbEntity
  8
0
100
AcDbVertex
100
AcDb3dPolylineVertex
 10
-14.13839295697153
 20
1.2956082848452155
 30
-0.03488317004692163
 70
32
  0
VERTEX
  5
1CA
330
17
100
AcDbEntity
  8
0
100
AcDbVertex
100
AcDb3dPolylineVertex
 10
-14.041094121203841
 20
1.3186937035819897
 30
-0.034883170046921624
 70
32
  0
VERTEX
  5
1CB
330
17
100
AcDbEntity
  8
0
100
AcDbVertex
100
AcDb3dPolylineVertex
 10
-13.943795285436149
 20
1.3417791223187638
 30
-0.034883170046921624
 70
32
  0
VERTEX
  5
1CC
330
17
100
AcDbEntity
  8
0
100
AcDbVertex
100
AcDb3dPolylineVertex
 10
-13.84649644966846
 20
1.364864541055539
 30
-0.03488317004692162
 70
32
  0
VERTEX
  5
1CD
330
17
100
AcDbEntity
  8
0
100
AcDbVertex
100
AcDb3dPolylineVertex
 10
-13.749197613900773
 20
1.3879499597923122
 30
-0.03488317004692162
 70
32
  0
VERTEX
  5
1CE
330
17
100
AcDbEntity
  8
0
100
AcDbVertex
100
AcDb3dPolylineVertex
 10
-13.65189877813308
 20
1.4110353785290872
 30
-0.03488317004692161
 70
32
  0
VERTEX
  5
1CF
330
17
100
AcDbEntity
  8
0
100
AcDbVertex
100
AcDb3dPolylineVertex
 10
-13.554599942365392
 20
1.4341207972658605
 30
-0.03488317004692161
 70
32
  0
VERTEX
  5
1D0
330
17
100
AcDbEntity
  8
0
100
AcDbVertex
100
AcDb3dPolylineVertex
 10
-13.457301106597704
 20
1.4572062160026356
 30
-0.034883170046921604
 70
32
  0
VERTEX
  5
1D1
330
17
100
AcDbEntity
  8
0
100
AcDbVertex
100
AcDb3dPolylineVertex
 10
-13.360002270830012
 20
1.4802916347394097
 30
-0.034883170046921604
 70
32
  0
VERTEX
  5
1D2
330
17
100
AcDbEntity
  8
0
100
AcDbVertex
100
AcDb3dPolylineVertex
 10
-13.262703435062324
 20
1.5033770534761839
 30
-0.0348831700469216
 70
32
  0
VERTEX
  5
1D3
330
17
100
AcDbEntity
  8
0
100
AcDbVertex
100
AcDb3dPolylineVertex
 10
-13.165404599294636
 20
1.526462472212958
 30
-0.0348831700469216
 70
32
  0
VERTEX
  5
1D4
330
17
100
AcDbEntity
  8
0
100
AcDbVertex
100
AcDb3dPolylineVertex
 10
-13.068105763526948
 20
1.5495478909497322
 30
-0.03488317004692159
 70
32
  0
VERTEX
  5
1D5
330
17
100
AcDbEntity
  8
0
100
AcDbVertex
100
AcDb3dPolylineVertex
 10
-12.970806927759256
 20
1.5726333096865064
 30
-0.03488317004692159
 70
32
  0
VERTEX
  5
1D6
330
17
100
AcDbEntity
  8
0
100
AcDbVertex
100
AcDb3dPolylineVertex
 10
-12.873508091991567
 20
1.5957187284232814
 30
-0.03488317004692158
 70
32
  0
VERTEX
  5
1D7
330
17
100
AcDbEntity
  8
0
100
AcDbVertex
100
AcDb3dPolylineVertex
 10
-12.77620925622388
 20
1.6188041471600547
 30
-0.03488317004692158
 70
32
  0
VERTEX
  5
1D8
330
17
100
AcDbEntity
  8
0
100
AcDbVertex
100
AcDb3dPolylineVertex
 10
-12.678910420456187
 20
1.6418895658968298
 30
-0.034883170046921576
 70
32
  0
VERTEX
  5
1D9
330
17
100
AcDbEntity
  8
0
100
AcDbVertex
100
AcDb3dPolylineVertex
 10
-12.581611584688499
 20
1.664974984633603
 30
-0.034883170046921576
 70
32
  0
VERTEX
  5
1DA
330
17
100
AcDbEntity
  8
0
100
AcDbVertex
100
AcDb3dPolylineVertex
 10
-12.48431274892081
 20
1.688060403370378
 30
-0.03488317004692157
 70
32
  0
VERTEX
  5
1DB
330
17
100
AcDbEntity
  8
0
100
AcDbVertex
100
AcDb3dPolylineVertex
 10
-12.387013913153119
 20
1.7111458221071523
 30
-0.03488317004692157
 70
32
  0
VERTEX
  5
1DC
330
17
100
AcDbEntity
  8
0
100
AcDbVertex
100
AcDb3dPolylineVertex
 10
-12.28971507738543
 20
1.7342312408439264
 30
-0.03488317004692156
 70
32
  0
VERTEX
  5
1DD
330
17
100
AcDbEntity
  8
0
100
AcDbVertex
100
AcDb3dPolylineVertex
 10
-12.192416241617739
 20
1.7573166595807006
 30
-0.03488317004692156
 70
32
  0
VERTEX
  5
1DE
330
17
100
AcDbEntity
  8
0
100
AcDbVertex
100
AcDb3dPolylineVertex
 10
-12.095117405850054
 20
1.7804020783174748
 30
-0.034883170046921555
 70
32
  0
VERTEX
  5
1DF
330
17
100
AcDbEntity
  8
0
100
AcDbVertex
100
AcDb3dPolylineVertex
 10
-11.997818570082362
 20
1.8034874970542498
 30
-0.034883170046921555
 70
32
  0
VERTEX
  5
1E0
330
17
100
AcDbEntity
  8
0
100
AcDbVertex
100
AcDb3dPolylineVertex
 10
-11.90051973431467
 20
1.826572915791024
 30
-0.03488317004692155
 70
32
  0
VERTEX
  5
1E1
330
17
100
AcDbEntity
  8
0
100
AcDbVertex
100
AcDb3dPolylineVertex
 10
-11.803220898546986
 20
1.8496583345277982
 30
-0.03488317004692155
 70
32
  0
VERTEX
  5
1E2
330
17
100
AcDbEntity
  8
0
100
AcDbVertex
100
AcDb3dPolylineVertex
 10
-11.705922062779294
 20
1.8727437532645723
 30
-0.03488317004692155
 70
32
  0
VERTEX
  5
1E3
330
17
100
AcDbEntity
  8
0
100
AcDbVertex
100
AcDb3dPolylineVertex
 10
-11.608623227011606
 20
1.8958291720013465
 30
-0.03488317004692154
 70
32
  0
VERTEX
  5
1E4
330
17
100
AcDbEntity
  8
0
100
AcDbVertex
100
AcDb3dPolylineVertex
 10
-11.511324391243914
 20
1.9189145907381207
 30
-0.03488317004692154
 70
32
  0
VERTEX
  5
1E5
330
17
100
AcDbEntity
  8
0
100
AcDbVertex
100
AcDb3dPolylineVertex
 10
-11.414025555476226
 20
1.9420000094748957
 30
-0.034883170046921534
 70
32
  0
VERTEX
  5
1E6
330
17
100
AcDbEntity
  8
0
100
AcDbVertex
100
AcDb3dPolylineVertex
 10
-11.316726719708537
 20
1.965085428211669
 30
-0.034883170046921534
 70
32
  0
VERTEX
  5
1E7
330
17
100
AcDbEntity
  8
0
100
AcDbVertex
100
AcDb3dPolylineVertex
 10
-11.219427883940845
 20
1.988170846948444
 30
-0.03488317004692153
 70
32
  0
VERTEX
  5
1E8
330
17
100
AcDbEntity
  8
0
100
AcDbVertex
100
AcDb3dPolylineVertex
 10
-11.12212904817316
 20
2.0112562656852173
 30
-0.03488317004692153
 70
32
  0
VERTEX
  5
1E9
330
17
100
AcDbEntity
  8
0
100
AcDbVertex
100
AcDb3dPolylineVertex
 10
-11.024830212405469
 20
2.0343416844219924
 30
-0.03488317004692152
 70
32
  0
VERTEX
  5
1EA
330
17
100
AcDbEntity
  8
0
100
AcDbVertex
100
AcDb3dPolylineVertex
 10
-10.927531376637777
 20
2.0574271031587665
 30
-0.03488317004692152
 70
32
  0
VERTEX
  5
1EB
330
17
100
AcDbEntity
  8
0
100
AcDbVertex
100
AcDb3dPolylineVertex
 10
-10.830232540870089
 20
2.0805125218955407
 30
-0.03488317004692151
 70
32
  0
VERTEX
  5
1EC
330
17
100
AcDbEntity
  8
0
100
AcDbVertex
100
AcDb3dPolylineVertex
 10
-10.7329337051024
 20
2.103597940632315
 30
-0.03488317004692151
 70
32
  0
VERTEX
  5
1ED
330
17
100
AcDbEntity
  8
0
100
AcDbVertex
100
AcDb3dPolylineVertex
 10
-10.635634869334712
 20
2.126683359369089
 30
-0.034883170046921506
 70
32
  0
VERTEX
  5
1EE
330
17
100
AcDbEntity
  8
0
100
AcDbVertex
100
AcDb3dPolylineVertex
 10
-10.53833603356702
 20
2.149768778105863
 30
-0.034883170046921506
 70
32
  0
VERTEX
  5
1EF
330
17
100
AcDbEntity
  8
0
100
AcDbVertex
100
AcDb3dPolylineVertex
 10
-10.441037197799332
 20
2.1728541968426383
 30
-0.0348831700469215
 70
32
  0
VERTEX
  5
1F0
330
17
100
AcDbEntity
  8
0
100
AcDbVertex
100
AcDb3dPolylineVertex
 10
-10.343738362031644
 20
2.1959396155794115
 30
-0.0348831700469215
 70
32
  0
VERTEX
  5
1F1
330
17
100
AcDbEntity
  8
0
100
AcDbVertex
100
AcDb3dPolylineVertex
 10
-10.246439526263952
 20
2.2190250343161866
 30
-0.03488317004692149
 70
32
  0
VERTEX
  5
1F2
330
17
100
AcDbEntity
  8
0
100
AcDbVertex
100
AcDb3dPolylineVertex
 10
-10.149140690496264
 20
2.24211045305296
 30
-0.03488317004692149
 70
32
  0
VERTEX
  5
1F3
330
17
100
AcDbEntity
  8
0
100
AcDbVertex
100
AcDb3dPolylineVertex
 10
-10.051841854728575
 20
2.265195871789735
 30
-0.034883170046921486
 70
32
  0
VERTEX
  5
1F4
330
17
100
AcDbEntity
  8
0
100
AcDbVertex
100
AcDb3dPolylineVertex
 10
-9.954543018960884
 20
2.288281290526509
 30
-0.034883170046921486
 70
32
  0
VERTEX
  5
1F5
330
17
100
AcDbEntity
  8
0
100
AcDbVertex
100
AcDb3dPolylineVertex
 10
-9.857244183193195
 20
2.3113667092632832
 30
-0.03488317004692148
 70
32
  0
VERTEX
  5
1F6
330
17
100
AcDbEntity
  8
0
100
AcDbVertex
100
AcDb3dPolylineVertex
 10
-9.759945347425507
 20
2.3344521280000574
 30
-0.03488317004692148
 70
32
  0
VERTEX
  5
1F7
330
17
100
AcDbEntity
  8
0
100
AcDbVertex
100
AcDb3dPolylineVertex
 10
-9.662646511657819
 20
2.3575375467368316
 30
-0.03488317004692147
 70
32
  0
VERTEX
  5
1F8
330
17
100
AcDbEntity
  8
0
100
AcDbVertex
100
AcDb3dPolylineVertex
 10
-9.565347675890127
 20
2.3806229654736057
 30
-0.03488317004692147
 70
32
  0
VERTEX
  5
1F9
330
17
100
AcDbEntity
  8
0
100
AcDbVertex
100
AcDb3dPolylineVertex
 10
-9.468048840122435
 20
2.403708384210381
 30
-0.034883170046921465
 70
32
  0
VERTEX
  5
1FA
330
17
100
AcDbEntity
  8
0
100
AcDbVertex
100
AcDb3dPolylineVertex
 10
-9.37075000435475
 20
2.426793802947154
 30
-0.034883170046921465
 70
32
  0
VERTEX
  5
1FB
330
17
100
AcDbEntity
  8
0
100
AcDbVertex
100
AcDb3dPolylineVertex
 10
-9.273451168587062
 20
2.4498792216839282
 30
-0.03488317004692146
 70
32
  0
VERTEX
  5
1FC
330
17
100
AcDbEntity
  8
0
100
AcDbVertex
100
AcDb3dPolylineVertex
 10
-9.17615233281937
 20
2.4729646404207024
 30
-0.03488317004692146
 70
32
  0
VERTEX
  5
1FD
330
17
100
AcDbEntity
  8
0
100
AcDbVertex
100
AcDb3dPolylineVertex
 10
-9.078853497051682
 20
2.4960500591574775
 30
-0.03488317004692145
 70
32
  0
VERTEX
  5
1FE
330
17
100
AcDbEntity
  8
0
100
AcDbVertex
100
AcDb3dPolylineVertex
 10
-8.98155466128399
 20
2.5191354778942516
 30
-0.03488317004692145
 70
32
  0
VERTEX
  5
1FF
330
17
100
AcDbEntity
  8
0
100
AcDbVertex
100
AcDb3dPolylineVertex
 10
-8.884255825516298
 20
2.5422208966310267
 30
-0.03488317004692145
 70
32
  0
VERTEX
  5
200
330
17
100
AcDbEntity
  8
0
100
AcDbVertex
100
AcDb3dPolylineVertex
 10
-8.786956989748614
 20
2.5653063153678
 30
-0.034883170046921444
 70
32
  0
VERTEX
  5
201
330
17
100
AcDbEntity
  8
0
100
AcDbVertex
100
AcDb3dPolylineVertex
 10
-8.689658153980925
 20
2.588391734104574
 30
-0.034883170046921444
 70
32
  0
VERTEX
  5
202
330
17
100
AcDbEntity
  8
0
100
AcDbVertex
100
AcDb3dPolylineVertex
 10
-8.592359318213234
 20
2.611477152841349
 30
-0.03488317004692144
 70
32
  0
VERTEX
  5
203
330
17
100
AcDbEntity
  8
0
100
AcDbVertex
100
AcDb3dPolylineVertex
 10
-8.495060482445542
 20
2.6345625715781233
 30
-0.03488317004692144
 70
32
  0
VERTEX
  5
204
330
17
100
AcDbEntity
  8
0
100
AcDbVertex
100
AcDb3dPolylineVertex
 10
-8.39776164667785
 20
2.6576479903148984
 30
-0.03488317004692143
 70
32
  0
VERTEX
  5
205
330
17
100
AcDbEntity
  8
0
100
AcDbVertex
100
AcDb3dPolylineVertex
 10
-8.300462810910169
 20
2.680733409051671
 30
-0.03488317004692143
 70
32
  0
VERTEX
  5
206
330
17
100
AcDbEntity
  8
0
100
AcDbVertex
100
AcDb3dPolylineVertex
 10
-8.20316397514248
 20
2.703818827788446
 30
-0.03488317004692142
 70
32
  0
VERTEX
  5
207
330
17
100
AcDbEntity
  8
0
100
AcDbVertex
100
AcDb3dPolylineVertex
 10
-8.105865139374785
 20
2.72690424652522
 30
-0.03488317004692142
 70
32
  0
VERTEX
  5
208
330
17
100
AcDbEntity
  8
0
100
AcDbVertex
100
AcDb3dPolylineVertex
 10
-8.008566303607097
 20
2.749989665261995
 30
-0.034883170046921416
 70
32
  0
VERTEX
  5
209
330
17
100
AcDbEntity
  8
0
100
AcDbVertex
100
AcDb3dPolylineVertex
 10
-7.911267467839409
 20
2.7730750839987692
 30
-0.034883170046921416
 70
32
  0
VERTEX
  5
20A
330
17
100
AcDbEntity
  8
0
100
AcDbVertex
100
AcDb3dPolylineVertex
 10
-7.81396863207172
 20
2.7961605027355425
 30
-0.03488317004692141
 70
32
  0
VERTEX
  5
20B
330
17
100
AcDbEntity
  8
0
100
AcDbVertex
100
AcDb3dPolylineVertex
 10
-7.716669796304032
 20
2.8192459214723167
 30
-0.03488317004692141
 70
32
  0
VERTEX
  5
20C
330
17
100
AcDbEntity
  8
0
100
AcDbVertex
100
AcDb3dPolylineVertex
 10
-7.619370960536337
 20
2.8423313402090917
 30
-0.0348831700469214
 70
32
  0
VERTEX
  5
20D
330
17
100
AcDbEntity
  8
0
100
AcDbVertex
100
AcDb3dPolylineVertex
 10
-7.522072124768648
 20
2.865416758945866
 30
-0.0348831700469214
 70
32
  0
VERTEX
  5
20E
330
17
100
AcDbEntity
  8
0
100
AcDbVertex
100
AcDb3dPolylineVertex
 10
-7.42477328900096
 20
2.888502177682641
 30
-0.034883170046921395
 70
32
  0
VERTEX
  5
20F
330
17
100
AcDbEntity
  8
0
100
AcDbVertex
100
AcDb3dPolylineVertex
 10
-7.327474453233272
 20
2.9115875964194133
 30
-0.034883170046921395
 70
32
  0
VERTEX
  5
210
330
17
100
AcDbEntity
  8
0
100
AcDbVertex
100
AcDb3dPolylineVertex
 10
-7.230175617465584
 20
2.9346730151561884
 30
-0.03488317004692139
 70
32
  0
VERTEX
  5
211
330
17
100
AcDbEntity
  8
0
100
AcDbVertex
100
AcDb3dPolylineVertex
 10
-7.132876781697895
 20
2.9577584338929626
 30
-0.03488317004692139
 70
32
  0
VERTEX
  5
212
330
17
100
AcDbEntity
  8
0
100
AcDbVertex
100
AcDb3dPolylineVertex
 10
-7.0355779459302
 20
2.9808438526297376
 30
-0.03488317004692138
 70
32
  0
VERTEX
  5
213
330
17
100
AcDbEntity
  8
0
100
AcDbVertex
100
AcDb3dPolylineVertex
 10
-6.938279110162512
 20
3.0039292713665118
 30
-0.03488317004692138
 70
32
  0
VERTEX
  5
214
330
17
100
AcDbEntity
  8
0
100
AcDbVertex
100
AcDb3dPolylineVertex
 10
-6.8409802743948305
 20
3.027014690103285
 30
-0.034883170046921375
 70
32
  0
VERTEX
  5
215
330
17
100
AcDbEntity
  8
0
100
AcDbVertex
100
AcDb3dPolylineVertex
 10
-6.743681438627135
 20
3.050100108840059
 30
-0.034883170046921375
 70
32
  0
VERTEX
  5
216
330
17
100
AcDbEntity
  8
0
100
AcDbVertex
100
AcDb3dPolylineVertex
 10
-6.646382602859447
 20
3.0731855275768343
 30
-0.03488317004692137
 70
32
  0
VERTEX
  5
217
330
17
100
AcDbEntity
  8
0
100
AcDbVertex
100
AcDb3dPolylineVertex
 10
-6.549083767091751
 20
3.0962709463136093
 30
-0.03488317004692137
 70
32
  0
VERTEX
  5
218
330
17
100
AcDbEntity
  8
0
100
AcDbVertex
100
AcDb3dPolylineVertex
 10
-6.451784931324063
 20
3.1193563650503826
 30
-0.03488317004692136
 70
32
  0
VERTEX
  5
219
330
17
100
AcDbEntity
  8
0
100
AcDbVertex
100
AcDb3dPolylineVertex
 10
-6.354486095556382
 20
3.142441783787156
 30
-0.03488317004692136
 70
32
  0
VERTEX
  5
21A
330
17
100
AcDbEntity
  8
0
100
AcDbVertex
100
AcDb3dPolylineVertex
 10
-6.257187259788687
 20
3.165527202523931
 30
-0.034883170046921354
 70
32
  0
VERTEX
  5
21B
330
17
100
AcDbEntity
  8
0
100
AcDbVertex
100
AcDb3dPolylineVertex
 10
-6.159888424020998
 20
3.188612621260706
 30
-0.034883170046921354
 70
32
  0
VERTEX
  5
21C
330
17
100
AcDbEntity
  8
0
100
AcDbVertex
100
AcDb3dPolylineVertex
 10
-6.06258958825331
 20
3.2116980399974793
 30
-0.034883170046921354
 70
32
  0
VERTEX
  5
21D
330
17
100
AcDbEntity
  8
0
100
AcDbVertex
100
AcDb3dPolylineVertex
 10
-5.965290752485615
 20
3.2347834587342543
 30
-0.03488317004692135
 70
32
  0
VERTEX
  5
21E
330
17
100
AcDbEntity
  8
0
100
AcDbVertex
100
AcDb3dPolylineVertex
 10
-5.8679919167179335
 20
3.2578688774710276
 30
-0.03488317004692135
 70
32
  0
VERTEX
  5
21F
330
17
100
AcDbEntity
  8
0
100
AcDbVertex
100
AcDb3dPolylineVertex
 10
-5.770693080950245
 20
3.2809542962078027
 30
-0.03488317004692134
 70
32
  0
VERTEX
  5
220
330
17
100
AcDbEntity
  8
0
100
AcDbVertex
100
AcDb3dPolylineVertex
 10
-5.67339424518255
 20
3.3040397149445777
 30
-0.03488317004692134
 70
32
  0
VERTEX
  5
221
330
17
100
AcDbEntity
  8
0
100
AcDbVertex
100
AcDb3dPolylineVertex
 10
-5.576095409414862
 20
3.327125133681351
 30
-0.03488317004692133
 70
32
  0
VERTEX
  5
222
330
17
100
AcDbEntity
  8
0
100
AcDbVertex
100
AcDb3dPolylineVertex
 10
-5.478796573647173
 20
3.350210552418126
 30
-0.03488317004692133
 70
32
  0
VERTEX
  5
223
330
17
100
AcDbEntity
  8
0
100
AcDbVertex
100
AcDb3dPolylineVertex
 10
-5.381497737879485
 20
3.3732959711548993
 30
-0.034883170046921326
 70
32
  0
VERTEX
  5
224
330
17
100
AcDbEntity
  8
0
100
AcDbVertex
100
AcDb3dPolylineVertex
 10
-5.284198902111797
 20
3.3963813898916744
 30
-0.034883170046921326
 70
32
  0
VERTEX
  5
225
330
17
100
AcDbEntity
  8
0
100
AcDbVertex
100
AcDb3dPolylineVertex
 10
-5.186900066344101
 20
3.4194668086284477
 30
-0.03488317004692132
 70
32
  0
VERTEX
  5
226
330
17
100
AcDbEntity
  8
0
100
AcDbVertex
100
AcDb3dPolylineVertex
 10
-5.089601230576413
 20
3.4425522273652227
 30
-0.03488317004692132
 70
32
  0
VERTEX
  5
227
330
17
100
AcDbEntity
  8
0
100
AcDbVertex
100
AcDb3dPolylineVertex
 10
-4.992302394808725
 20
3.4656376461019978
 30
-0.03488317004692131
 70
32
  0
VERTEX
  5
228
330
17
100
AcDbEntity
  8
0
100
AcDbVertex
100
AcDb3dPolylineVertex
 10
-4.895003559041037
 20
3.488723064838771
 30
-0.03488317004692131
 70
32
  0
VERTEX
  5
229
330
17
100
AcDbEntity
  8
0
100
AcDbVertex
100
AcDb3dPolylineVertex
 10
-4.797704723273348
 20
3.5118084835755443
 30
-0.034883170046921305
 70
32
  0
VERTEX
  5
22A
330
17
100
AcDbEntity
  8
0
100
AcDbVertex
100
AcDb3dPolylineVertex
 10
-4.70040588750566
 20
3.5348939023123194
 30
-0.034883170046921305
 70
32
  0
VERTEX
  5
22B
330
17
100
AcDbEntity
  8
0
100
AcDbVertex
100
AcDb3dPolylineVertex
 10
-4.603107051737965
 20
3.5579793210490944
 30
-0.0348831700469213
 70
32
  0
VERTEX
  5
22C
330
17
100
AcDbEntity
  8
0
100
AcDbVertex
100
AcDb3dPolylineVertex
 10
-4.505808215970276
 20
3.5810647397858695
 30
-0.0348831700469213
 70
32
  0
VERTEX
  5
22D
330
17
100
AcDbEntity
  8
0
100
AcDbVertex
100
AcDb3dPolylineVertex
 10
-4.408509380202595
 20
3.604150158522641
 30
-0.03488317004692129
 70
32
  0
VERTEX
  5
22E
330
17
100
AcDbEntity
  8
0
100
AcDbVertex
100
AcDb3dPolylineVertex
 10
-4.3112105444349
 20
3.627235577259416
 30
-0.03488317004692129
 70
32
  0
VERTEX
  5
22F
330
17
100
AcDbEntity
  8
0
100
AcDbVertex
100
AcDb3dPolylineVertex
 10
-4.2139117086672115
 20
3.650320995996191
 30
-0.034883170046921284
 70
32
  0
VERTEX
  5
230
330
17
100
AcDbEntity
  8
0
100
AcDbVertex
100
AcDb3dPolylineVertex
 10
-4.116612872899523
 20
3.673406414732966
 30
-0.034883170046921284
 70
32
  0
VERTEX
  5
231
330
17
100
AcDbEntity
  8
0
100
AcDbVertex
100
AcDb3dPolylineVertex
 10
-4.019314037131828
 20
3.6964918334697394
 30
-0.03488317004692128
 70
32
  0
VERTEX
  5
232
330
17
100
AcDbEntity
  8
0
100
AcDbVertex
100
AcDb3dPolylineVertex
 10
-3.9220152013641467
 20
3.7195772522065127
 30
-0.03488317004692128
 70
32
  0
VERTEX
  5
233
330
17
100
AcDbEntity
  8
0
100
AcDbVertex
100
AcDb3dPolylineVertex
 10
-3.8247163655964513
 20
3.7426626709432878
 30
-0.03488317004692127
 70
32
  0
VERTEX
  5
234
330
17
100
AcDbEntity
  8
0
100
AcDbVertex
100
AcDb3dPolylineVertex
 10
-3.727417529828763
 20
3.765748089680063
 30
-0.03488317004692127
 70
32
  0
VERTEX
  5
235
330
17
100
AcDbEntity
  8
0
100
AcDbVertex
100
AcDb3dPolylineVertex
 10
-3.630118694061075
 20
3.788833508416836
 30
-0.034883170046921264
 70
32
  0
VERTEX
  5
236
330
17
100
AcDbEntity
  8
0
100
AcDbVertex
100
AcDb3dPolylineVertex
 10
-3.5328198582933794
 20
3.811918927153611
 30
-0.034883170046921264
 70
32
  0
VERTEX
  5
237
330
17
100
AcDbEntity
  8
0
100
AcDbVertex
100
AcDb3dPolylineVertex
 10
-3.4355210225256982
 20
3.8350043458903844
 30
-0.03488317004692126
 70
32
  0
VERTEX
  5
238
330
17
100
AcDbEntity
  8
0
100
AcDbVertex
100
AcDb3dPolylineVertex
 10
-3.33822218675801
 20
3.8580897646271595
 30
-0.03488317004692126
 70
32
  0
VERTEX
  5
239
330
17
100
AcDbEntity
  8
0
100
AcDbVertex
100
AcDb3dPolylineVertex
 10
-3.2409233509903146
 20
3.8811751833639327
 30
-0.03488317004692126
 70
32
  0
VERTEX
  5
23A
330
17
100
AcDbEntity
  8
0
100
AcDbVertex
100
AcDb3dPolylineVertex
 10
-3.1436245152226263
 20
3.904260602100708
 30
-0.03488317004692125
 70
32
  0
VERTEX
  5
23B
330
17
100
AcDbEntity
  8
0
100
AcDbVertex
100
AcDb3dPolylineVertex
 10
-3.046325679454938
 20
3.927346020837483
 30
-0.03488317004692125
 70
32
  0
VERTEX
  5
23C
330
17
100
AcDbEntity
  8
0
100
AcDbVertex
100
AcDb3dPolylineVertex
 10
-2.9490268436872427
 20
3.950431439574258
 30
-0.03488317004692124
 70
32
  0
VERTEX
  5
23D
330
17
100
AcDbEntity
  8
0
100
AcDbVertex
100
AcDb3dPolylineVertex
 10
-2.8517280079195615
 20
3.973516858311031
 30
-0.03488317004692124
 70
32
  0
VERTEX
  5
23E
330
17
100
AcDbEntity
  8
0
100
AcDbVertex
100
AcDb3dPolylineVertex
 10
-2.754429172151873
 20
3.9966022770478045
 30
-0.034883170046921236
 70
32
  0
VERTEX
  5
23F
330
17
100
AcDbEntity
  8
0
100
AcDbVertex
100
AcDb3dPolylineVertex
 10
-2.657130336384178
 20
4.0196876957845795
 30
-0.034883170046921236
 70
32
  0
VERTEX
  5
240
330
17
100
AcDbEntity
  8
0
100
AcDbVertex
100
AcDb3dPolylineVertex
 10
-2.5598315006164896
 20
4.042773114521355
 30
-0.03488317004692123
 70
32
  0
VERTEX
  5
241
330
17
100
AcDbEntity
  8
0
100
AcDbVertex
100
AcDb3dPolylineVertex
 10
-2.462532664848794
 20
4.065858533258128
 30
-0.03488317004692123
 70
32
  0
VERTEX
  5
242
330
17
100
AcDbEntity
  8
0
100
AcDbVertex
100
AcDb3dPolylineVertex
 10
-2.365233829081113
 20
4.088943951994901
 30
-0.03488317004692122
 70
32
  0
VERTEX
  5
243
330
17
100
AcDbEntity
  8
0
100
AcDbVertex
100
AcDb3dPolylineVertex
 10
-2.2679349933134247
 20
4.112029370731676
 30
-0.03488317004692122
 70
32
  0
VERTEX
  5
244
330
17
100
AcDbEntity
  8
0
100
AcDbVertex
100
AcDb3dPolylineVertex
 10
-2.1706361575457294
 20
4.135114789468451
 30
-0.034883170046921215
 70
32
  0
VERTEX
  5
245
330
17
100
AcDbEntity
  8
0
100
AcDbVertex
100
AcDb3dPolylineVertex
 10
-2.073337321778041
 20
4.158200208205226
 30
-0.034883170046921215
 70
32
  0
VERTEX
  5
246
330
17
100
AcDbEntity
  8
0
100
AcDbVertex
100
AcDb3dPolylineVertex
 10
-1.9760384860103528
 20
4.181285626942
 30
-0.03488317004692121
 70
32
  0
VERTEX
  5
247
330
17
100
AcDbEntity
  8
0
100
AcDbVertex
100
AcDb3dPolylineVertex
 10
-1.8787396502426645
 20
4.204371045678773
 30
-0.03488317004692121
 70
32
  0
VERTEX
  5
248
330
17
100
AcDbEntity
  8
0
100
AcDbVertex
100
AcDb3dPolylineVertex
 10
-1.7814408144749763
 20
4.227456464415548
 30
-0.0348831700469212
 70
32
  0
VERTEX
  5
249
330
17
100
AcDbEntity
  8
0
100
AcDbVertex
100
AcDb3dPolylineVertex
 10
-1.684141978707288
 20
4.250541883152323
 30
-0.0348831700469212
 70
32
  0
VERTEX
  5
24A
330
17
100
AcDbEntity
  8
0
100
AcDbVertex
100
AcDb3dPolylineVertex
 10
-1.5868431429395926
 20
4.273627301889096
 30
-0.034883170046921194
 70
32
  0
VERTEX
  5
24B
330
17
100
AcDbEntity
  8
0
100
AcDbVertex
100
AcDb3dPolylineVertex
 10
-1.4895443071719043
 20
4.296712720625871
 30
-0.034883170046921194
 70
32
  0
VERTEX
  5
24C
330
17
100
AcDbEntity
  8
0
100
AcDbVertex
100
AcDb3dPolylineVertex
 10
-1.3922454714042232
 20
4.319798139362645
 30
-0.03488317004692119
 70
32
  0
VERTEX
  5
24D
330
17
100
AcDbEntity
  8
0
100
AcDbVertex
100
AcDb3dPolylineVertex
 10
-1.2949466356365278
 20
4.34288355809942
 30
-0.03488317004692119
 70
32
  0
VERTEX
  5
24E
330
17
100
AcDbEntity
  8
0
100
AcDbVertex
100
AcDb3dPolylineVertex
 10
-1.1976477998688395
 20
4.365968976836193
 30
-0.03488317004692118
 70
32
  0
VERTEX
  5
24F
330
17
100
AcDbEntity
  8
0
100
AcDbVertex
100
AcDb3dPolylineVertex
 10
-1.1003489641011441
 20
4.389054395572968
 30
-0.03488317004692118
 70
32
  0
VERTEX
  5
250
330
17
100
AcDbEntity
  8
0
100
AcDbVertex
100
AcDb3dPolylineVertex
 10
-1.0030501283334559
 20
4.412139814309743
 30
-0.03488317004692117
 70
32
  0
VERTEX
  5
251
330
17
100
AcDbEntity
  8
0
100
AcDbVertex
100
AcDb3dPolylineVertex
 10
-0.9057512925657747
 20
4.435225233046516
 30
-0.03488317004692117
 70
32
  0
VERTEX
  5
252
330
17
100
AcDbEntity
  8
0
100
AcDbVertex
100
AcDb3dPolylineVertex
 10
-0.8084524567980793
 20
4.45831065178329
 30
-0.034883170046921166
 70
32
  0
VERTEX
  5
253
330
17
100
AcDbEntity
  8
0
100
AcDbVertex
100
AcDb3dPolylineVertex
 10
-0.711153621030391
 20
4.481396070520065
 30
-0.034883170046921166
 70
32
  0
VERTEX
  5
254
330
17
100
AcDbEntity
  8
0
100
AcDbVertex
100
AcDb3dPolylineVertex
 10
-0.6138547852627028
 20
4.50448148925684
 30
-0.03488317004692116
 70
32
  0
VERTEX
  5
255
330
17
100
AcDbEntity
  8
0
100
AcDbVertex
100
AcDb3dPolylineVertex
 10
-0.5165559494950074
 20
4.527566907993615
 30
-0.03488317004692116
 70
32
  0
VERTEX
  5
256
330
17
100
AcDbEntity
  8
0
100
AcDbVertex
100
AcDb3dPolylineVertex
 10
-0.4192571137273262
 20
4.550652326730386
 30
-0.03488317004692116
 70
32
  0
VERTEX
  5
257
330
17
100
AcDbEntity
  8
0
100
AcDbVertex
100
AcDb3dPolylineVertex
 10
-0.32195827795963794
 20
4.573737745467161
 30
-0.03488317004692115
 70
32
  0
VERTEX
  5
258
330
17
100
AcDbEntity
  8
0
100
AcDbVertex
100
AcDb3dPolylineVertex
 10
-0.22465944219194256
 20
4.596823164203936
 30
-0.03488317004692115
 70
32
  0
VERTEX
  5
259
330
17
100
AcDbEntity
  8
0
100
AcDbVertex
100
AcDb3dPolylineVertex
 10
-0.12736060642425429
 20
4.619908582940711
 30
-0.034883170046921146
 70
32
  0
VERTEX
  5
25A
330
17
100
AcDbEntity
  8
0
100
AcDbVertex
100
AcDb3dPolylineVertex
 10
-0.03006177065656601
 20
4.642994001677485
 30
-0.034883170046921146
 70
32
  0
VERTEX
  5
25B
330
17
100
AcDbEntity
  8
0
100
AcDbVertex
100
AcDb3dPolylineVertex
 10
0.06723706511112226
 20
4.666079420414258
 30
-0.03488317004692114
 70
32
  0
VERTEX
  5
25C
330
17
100
AcDbEntity
  8
0
100
AcDbVertex
100
AcDb3dPolylineVertex
 10
0.16453590087881054
 20
4.689164839151033
 30
-0.03488317004692114
 70
32
  0
VERTEX
  5
25D
330
17
100
AcDbEntity
  8
0
100
AcDbVertex
100
AcDb3dPolylineVertex
 10
0.2618347366465059
 20
4.712250257887808
 30
-0.03488317004692113
 70
32
  0
VERTEX
  5
25E
330
17
100
AcDbEntity
  8
0
100
AcDbVertex
100
AcDb3dPolylineVertex
 10
0.3591335724141942
 20
4.735335676624581
 30
-0.03488317004692113
 70
32
  0
VERTEX
  5
25F
330
17
100
AcDbEntity
  8
0
100
AcDbVertex
100
AcDb3dPolylineVertex
 10
0.45643240818188247
 20
4.758421095361356
 30
-0.034883170046921125
 70
32
  0
VERTEX
  5
260
330
17
100
AcDbEntity
  8
0
100
AcDbVertex
100
AcDb3dPolylineVertex
 10
0.5537312439495707
 20
4.78150651409813
 30
-0.034883170046921125
 70
32
  0
VERTEX
  5
261
330
17
100
AcDbEntity
  8
0
100
AcDbVertex
100
AcDb3dPolylineVertex
 10
0.651030079717259
 20
4.804591932834905
 30
-0.03488317004692112
 70
32
  0
VERTEX
  5
262
330
17
100
AcDbEntity
  8
0
100
AcDbVertex
100
AcDb3dPolylineVertex
 10
0.7483289154849473
 20
4.82767735157168
 30
-0.03488317004692112
 70
32
  0
VERTEX
  5
263
330
17
100
AcDbEntity
  8
0
100
AcDbVertex
100
AcDb3dPolylineVertex
 10
0.8456277512526427
 20
4.850762770308453
 30
-0.03488317004692111
 70
32
  0
VERTEX
  5
264
330
17
100
AcDbEntity
  8
0
100
AcDbVertex
100
AcDb3dPolylineVertex
 10
0.9429265870203309
 20
4.873848189045228
 30
-0.03488317004692111
 70
32
  0
VERTEX
  5
265
330
17
100
AcDbEntity
  8
0
100
AcDbVertex
100
AcDb3dPolylineVertex
 10
1.040225422788012
 20
4.896933607782001
 30
-0.034883170046921104
 70
32
  0
VERTEX
  5
266
330
17
100
AcDbEntity
  8
0
100
AcDbVertex
100
AcDb3dPolylineVertex
 10
1.1375242585557075
 20
4.920019026518776
 30
-0.034883170046921104
 70
32
  0
VERTEX
  5
267
330
17
100
AcDbEntity
  8
0
100
AcDbVertex
100
AcDb3dPolylineVertex
 10
1.2348230943233958
 20
4.94310444525555
 30
-0.0348831700469211
 70
32
  0
VERTEX
  5
268
330
17
100
AcDbEntity
  8
0
100
AcDbVertex
100
AcDb3dPolylineVertex
 10
1.332121930091084
 20
4.966189863992325
 30
-0.0348831700469211
 70
32
  0
VERTEX
  5
269
330
17
100
AcDbEntity
  8
0
100
AcDbVertex
100
AcDb3dPolylineVertex
 10
1.4294207658587794
 20
4.9892752827291
 30
-0.03488317004692109
 70
32
  0
VERTEX
  5
26A
330
17
100
AcDbEntity
  8
0
100
AcDbVertex
100
AcDb3dPolylineVertex
 10
1.5267196016264606
 20
5.012360701465873
 30
-0.03488317004692109
 70
32
  0
VERTEX
  5
26B
330
17
100
AcDbEntity
  8
0
100
AcDbVertex
100
AcDb3dPolylineVertex
 10
1.624018437394156
 20
5.035446120202646
 30
-0.03488317004692108
 70
32
  0
VERTEX
  5
26C
330
17
100
AcDbEntity
  8
0
100
AcDbVertex
100
AcDb3dPolylineVertex
 10
1.7213172731618442
 20
5.058531538939421
 30
-0.03488317004692108
 70
32
  0
VERTEX
  5
26D
330
17
100
AcDbEntity
  8
0
100
AcDbVertex
100
AcDb3dPolylineVertex
 10
1.8186161089295325
 20
5.0816169576761965
 30
-0.034883170046921076
 70
32
  0
VERTEX
  5
26E
330
17
100
AcDbEntity
  8
0
100
AcDbVertex
100
AcDb3dPolylineVertex
 10
1.915914944697228
 20
5.1047023764129715
 30
-0.034883170046921076
 70
32
  0
VERTEX
  5
26F
330
17
100
AcDbEntity
  8
0
100
AcDbVertex
100
AcDb3dPolylineVertex
 10
2.013213780464909
 20
5.127787795149743
 30
-0.03488317004692107
 70
32
  0
VERTEX
  5
270
330
17
100
AcDbEntity
  8
0
100
AcDbVertex
100
AcDb3dPolylineVertex
 10
2.1105126162325973
 20
5.150873213886518
 30
-0.03488317004692107
 70
32
  0
VERTEX
  5
271
330
17
100
AcDbEntity
  8
0
100
AcDbVertex
100
AcDb3dPolylineVertex
 10
2.2078114520002927
 20
5.173958632623293
 30
-0.03488317004692106
 70
32
  0
VERTEX
  5
272
330
17
100
AcDbEntity
  8
0
100
AcDbVertex
100
AcDb3dPolylineVertex
 10
2.305110287767981
 20
5.197044051360068
 30
-0.03488317004692106
 70
32
  0
VERTEX
  5
273
330
17
100
AcDbEntity
  8
0
100
AcDbVertex
100
AcDb3dPolylineVertex
 10
2.4024091235356693
 20
5.2201294700968415
 30
-0.034883170046921055
 70
32
  0
VERTEX
  5
274
330
17
100
AcDbEntity
  8
0
100
AcDbVertex
100
AcDb3dPolylineVertex
 10
2.4997079593033575
 20
5.243214888833615
 30
-0.034883170046921055
 70
32
  0
VERTEX
  5
275
330
17
100
AcDbEntity
  8
0
100
AcDbVertex
100
AcDb3dPolylineVertex
 10
2.597006795071046
 20
5.26630030757039
 30
-0.034883170046921055
 70
32
  0
VERTEX
  5
276
330
17
100
AcDbEntity
  8
0
100
AcDbVertex
100
AcDb3dPolylineVertex
 10
2.694305630838734
 20
5.289385726307165
 30
-0.03488317004692105
 70
32
  0
VERTEX
  5
277
330
17
100
AcDbEntity
  8
0
100
AcDbVertex
100
AcDb3dPolylineVertex
 10
2.7916044666064295
 20
5.312471145043938
 30
-0.03488317004692105
 70
32
  0
VERTEX
  5
278
330
17
100
AcDbEntity
  8
0
100
AcDbVertex
100
AcDb3dPolylineVertex
 10
2.8889033023741177
 20
5.335556563780713
 30
-0.03488317004692104
 70
32
  0
VERTEX
  5
279
330
17
100
AcDbEntity
  8
0
100
AcDbVertex
100
AcDb3dPolylineVertex
 10
2.986202138141806
 20
5.3586419825174865
 30
-0.03488317004692104
 70
32
  0
VERTEX
  5
27A
330
17
100
AcDbEntity
  8
0
100
AcDbVertex
100
AcDb3dPolylineVertex
 10
3.0835009739094943
 20
5.3817274012542615
 30
-0.034883170046921035
 70
32
  0
VERTEX
  5
27B
330
17
100
AcDbEntity
  8
0
100
AcDbVertex
100
AcDb3dPolylineVertex
 10
3.1807998096771826
 20
5.404812819991035
 30
-0.034883170046921035
 70
32
  0
VERTEX
  5
27C
330
17
100
AcDbEntity
  8
0
100
AcDbVertex
100
AcDb3dPolylineVertex
 10
3.278098645444878
 20
5.42789823872781
 30
-0.03488317004692103
 70
32
  0
VERTEX
  5
27D
330
17
100
AcDbEntity
  8
0
100
AcDbVertex
100
AcDb3dPolylineVertex
 10
3.375397481212566
 20
5.450983657464585
 30
-0.03488317004692103
 70
32
  0
VERTEX
  5
27E
330
17
100
AcDbEntity
  8
0
100
AcDbVertex
100
AcDb3dPolylineVertex
 10
3.4726963169802474
 20
5.474069076201358
 30
-0.03488317004692102
 70
32
  0
VERTEX
  5
27F
330
17
100
AcDbEntity
  8
0
100
AcDbVertex
100
AcDb3dPolylineVertex
 10
3.5699951527479428
 20
5.497154494938133
 30
-0.03488317004692102
 70
32
  0
VERTEX
  5
280
330
17
100
AcDbEntity
  8
0
100
AcDbVertex
100
AcDb3dPolylineVertex
 10
3.667293988515631
 20
5.5202399136749065
 30
-0.034883170046921014
 70
32
  0
VERTEX
  5
281
330
17
100
AcDbEntity
  8
0
100
AcDbVertex
100
AcDb3dPolylineVertex
 10
3.7645928242833193
 20
5.543325332411682
 30
-0.034883170046921014
 70
32
  0
VERTEX
  5
282
330
17
100
AcDbEntity
  8
0
100
AcDbVertex
100
AcDb3dPolylineVertex
 10
3.8618916600510147
 20
5.566410751148457
 30
-0.03488317004692101
 70
32
  0
VERTEX
  5
283
330
17
100
AcDbEntity
  8
0
100
AcDbVertex
100
AcDb3dPolylineVertex
 10
3.959190495818696
 20
5.58949616988523
 30
-0.03488317004692101
 70
32
  0
VERTEX
  5
284
330
17
100
AcDbEntity
  8
0
100
AcDbVertex
100
AcDb3dPolylineVertex
 10
4.056489331586391
 20
5.612581588622003
 30
-0.034883170046921
 70
32
  0
VERTEX
  5
285
330
17
100
AcDbEntity
  8
0
100
AcDbVertex
100
AcDb3dPolylineVertex
 10
4.1537881673540795
 20
5.635667007358778
 30
-0.034883170046921
 70
32
  0
VERTEX
  5
286
330
17
100
AcDbEntity
  8
0
100
AcDbVertex
100
AcDb3dPolylineVertex
 10
4.251087003121768
 20
5.658752426095553
 30
-0.03488317004692099
 70
32
  0
VERTEX
  5
287
330
17
100
AcDbEntity
  8
0
100
AcDbVertex
100
AcDb3dPolylineVertex
 10
4.348385838889463
 20
5.681837844832328
 30
-0.03488317004692099
 70
32
  0
VERTEX
  5
288
330
17
100
AcDbEntity
  8
0
100
AcDbVertex
100
AcDb3dPolylineVertex
 10
4.445684674657144
 20
5.7049232635691
 30
-0.034883170046920986
 70
32
  0
VERTEX
  5
289
330
17
100
AcDbEntity
  8
0
100
AcDbVertex
100
AcDb3dPolylineVertex
 10
4.542983510424833
 20
5.728008682305875
 30
-0.034883170046920986
 70
32
  0
VERTEX
  5
28A
330
17
100
AcDbEntity
  8
0
100
AcDbVertex
100
AcDb3dPolylineVertex
 10
4.640282346192528
 20
5.75109410104265
 30
-0.03488317004692098
 70
32
  0
VERTEX
  5
28B
330
17
100
AcDbEntity
  8
0
100
AcDbVertex
100
AcDb3dPolylineVertex
 10
4.737581181960216
 20
5.774179519779425
 30
-0.03488317004692098
 70
32
  0
VERTEX
  5
28C
330
17
100
AcDbEntity
  8
0
100
AcDbVertex
100
AcDb3dPolylineVertex
 10
4.8348800177279045
 20
5.797264938516198
 30
-0.03488317004692097
 70
32
  0
VERTEX
  5
28D
330
17
100
AcDbEntity
  8
0
100
AcDbVertex
100
AcDb3dPolylineVertex
 10
4.932178853495593
 20
5.820350357252972
 30
-0.03488317004692097
 70
32
  0
VERTEX
  5
28E
330
17
100
AcDbEntity
  8
0
100
AcDbVertex
100
AcDb3dPolylineVertex
 10
5.029477689263281
 20
5.843435775989747
 30
-0.034883170046920965
 70
32
  0
VERTEX
  5
28F
330
17
100
AcDbEntity
  8
0
100
AcDbVertex
100
AcDb3dPolylineVertex
 10
5.126776525030969
 20
5.866521194726522
 30
-0.034883170046920965
 70
32
  0
VERTEX
  5
290
330
17
100
AcDbEntity
  8
0
100
AcDbVertex
100
AcDb3dPolylineVertex
 10
5.224075360798665
 20
5.889606613463295
 30
-0.03488317004692096
 70
32
  0
VERTEX
  5
291
330
17
100
AcDbEntity
  8
0
100
AcDbVertex
100
AcDb3dPolylineVertex
 10
5.321374196566353
 20
5.91269203220007
 30
-0.03488317004692096
 70
32
  0
VERTEX
  5
292
330
17
100
AcDbEntity
  8
0
100
AcDbVertex
100
AcDb3dPolylineVertex
 10
5.418673032334041
 20
5.935777450936843
 30
-0.03488317004692096
 70
32
  0
VERTEX
  5
293
330
17
100
AcDbEntity
  8
0
100
AcDbVertex
100
AcDb3dPolylineVertex
 10
5.51597186810173
 20
5.958862869673618
 30
-0.03488317004692095
 70
32
  0
VERTEX
  5
294
330
17
100
AcDbEntity
  8
0
100
AcDbVertex
100
AcDb3dPolylineVertex
 10
5.613270703869418
 20
5.981948288410392
 30
-0.03488317004692095
 70
32
  0
VERTEX
  5
295
330
17
100
AcDbEntity
  8
0
100
AcDbVertex
100
AcDb3dPolylineVertex
 10
5.710569539637113
 20
6.005033707147167
 30
-0.034883170046920944
 70
32
  0
VERTEX
  5
296
330
17
100
AcDbEntity
  8
0
100
AcDbVertex
100
AcDb3dPolylineVertex
 10
5.8078683754048015
 20
6.028119125883942
 30
-0.034883170046920944
 70
32
  0
VERTEX
  5
297
330
17
100
AcDbEntity
  8
0
100
AcDbVertex
100
AcDb3dPolylineVertex
 10
5.905167211172483
 20
6.051204544620715
 30
-0.03488317004692094
 70
32
  0
VERTEX
  5
298
330
17
100
AcDbEntity
  8
0
100
AcDbVertex
100
AcDb3dPolylineVertex
 10
6.002466046940178
 20
6.074289963357488
 30
-0.03488317004692094
 70
32
  0
VERTEX
  5
299
330
17
100
AcDbEntity
  8
0
100
AcDbVertex
100
AcDb3dPolylineVertex
 10
6.099764882707866
 20
6.097375382094263
 30
-0.03488317004692093
 70
32
  0
VERTEX
  5
29A
330
17
100
AcDbEntity
  8
0
100
AcDbVertex
100
AcDb3dPolylineVertex
 10
6.197063718475555
 20
6.120460800831038
 30
-0.03488317004692093
 70
32
  0
VERTEX
  5
29B
330
17
100
AcDbEntity
  8
0
100
AcDbVertex
100
AcDb3dPolylineVertex
 10
6.29436255424325
 20
6.143546219567813
 30
-0.034883170046920924
 70
32
  0
VERTEX
  5
29C
330
17
100
AcDbEntity
  8
0
100
AcDbVertex
100
AcDb3dPolylineVertex
 10
6.391661390010931
 20
6.166631638304585
 30
-0.034883170046920924
 70
32
  0
VERTEX
  5
29D
330
17
100
AcDbEntity
  8
0
100
AcDbVertex
100
AcDb3dPolylineVertex
 10
6.488960225778619
 20
6.18971705704136
 30
-0.03488317004692092
 70
32
  0
VERTEX
  5
29E
330
17
100
AcDbEntity
  8
0
100
AcDbVertex
100
AcDb3dPolylineVertex
 10
6.586259061546315
 20
6.212802475778135
 30
-0.03488317004692092
 70
32
  0
VERTEX
  5
29F
330
17
100
AcDbEntity
  8
0
100
AcDbVertex
100
AcDb3dPolylineVertex
 10
6.683557897314003
 20
6.23588789451491
 30
-0.03488317004692091
 70
32
  0
VERTEX
  5
2A0
330
17
100
AcDbEntity
  8
0
100
AcDbVertex
100
AcDb3dPolylineVertex
 10
6.7808567330816985
 20
6.258973313251683
 30
-0.03488317004692091
 70
32
  0
VERTEX
  5
2A1
330
17
100
AcDbEntity
  8
0
100
AcDbVertex
100
AcDb3dPolylineVertex
 10
6.87815556884938
 20
6.282058731988457
 30
-0.0348831700469209
 70
32
  0
VERTEX
  5
2A2
330
17
100
AcDbEntity
  8
0
100
AcDbVertex
100
AcDb3dPolylineVertex
 10
6.975454404617068
 20
6.305144150725232
 30
-0.0348831700469209
 70
32
  0
VERTEX
  5
2A3
330
17
100
AcDbEntity
  8
0
100
AcDbVertex
100
AcDb3dPolylineVertex
 10
7.072753240384763
 20
6.328229569462007
 30
-0.034883170046920896
 70
32
  0
VERTEX
  5
2A4
330
17
100
AcDbEntity
  8
0
100
AcDbVertex
100
AcDb3dPolylineVertex
 10
7.1700520761524515
 20
6.351314988198782
 30
-0.034883170046920896
 70
32
  0
VERTEX
  5
2A5
330
17
100
AcDbEntity
  8
0
100
AcDbVertex
100
AcDb3dPolylineVertex
 10
7.26735091192014
 20
6.374400406935555
 30
-0.03488317004692089
 70
32
  0
VERTEX
  5
2A6
330
17
100
AcDbEntity
  8
0
100
AcDbVertex
100
AcDb3dPolylineVertex
 10
7.364649747687828
 20
6.397485825672328
 30
-0.03488317004692089
 70
32
  0
VERTEX
  5
2A7
330
17
100
AcDbEntity
  8
0
100
AcDbVertex
100
AcDb3dPolylineVertex
 10
7.461948583455516
 20
6.420571244409103
 30
-0.03488317004692088
 70
32
  0
VERTEX
  5
2A8
330
17
100
AcDbEntity
  8
0
100
AcDbVertex
100
AcDb3dPolylineVertex
 10
7.559247419223205
 20
6.4436566631458785
 30
-0.03488317004692088
 70
32
  0
VERTEX
  5
2A9
330
17
100
AcDbEntity
  8
0
100
AcDbVertex
100
AcDb3dPolylineVertex
 10
7.6565462549909
 20
6.466742081882652
 30
-0.034883170046920875
 70
32
  0
VERTEX
  5
2AA
330
17
100
AcDbEntity
  8
0
100
AcDbVertex
100
AcDb3dPolylineVertex
 10
7.753845090758588
 20
6.489827500619427
 30
-0.034883170046920875
 70
32
  0
VERTEX
  5
2AB
330
17
100
AcDbEntity
  8
0
100
AcDbVertex
100
AcDb3dPolylineVertex
 10
7.8511439265262695
 20
6.5129129193562
 30
-0.03488317004692087
 70
32
  0
VERTEX
  5
2AC
330
17
100
AcDbEntity
  8
0
100
AcDbVertex
100
AcDb3dPolylineVertex
 10
7.948442762293965
 20
6.535998338092975
 30
-0.03488317004692087
 70
32
  0
VERTEX
  5
2AD
330
17
100
AcDbEntity
  8
0
100
AcDbVertex
100
AcDb3dPolylineVertex
 10
8.045741598061653
 20
6.559083756829748
 30
-0.03488317004692086
 70
32
  0
VERTEX
  5
2AE
330
17
100
AcDbEntity
  8
0
100
AcDbVertex
100
AcDb3dPolylineVertex
 10
8.143040433829349
 20
6.5821691755665235
 30
-0.03488317004692086
 70
32
  0
VERTEX
  5
2AF
330
17
100
AcDbEntity
  8
0
100
AcDbVertex
100
AcDb3dPolylineVertex
 10
8.240339269597037
 20
6.6052545943032985
 30
-0.03488317004692086
 70
32
  0
VERTEX
  5
2B0
330
17
100
AcDbEntity
  8
0
100
AcDbVertex
100
AcDb3dPolylineVertex
 10
8.337638105364718
 20
6.628340013040072
 30
-0.034883170046920854
 70
32
  0
VERTEX
  5
2B1
330
17
100
AcDbEntity
  8
0
100
AcDbVertex
100
AcDb3dPolylineVertex
 10
8.434936941132413
 20
6.651425431776845
 30
-0.034883170046920854
 70
32
  0
VERTEX
  5
2B2
330
17
100
AcDbEntity
  8
0
100
AcDbVertex
100
AcDb3dPolylineVertex
 10
8.532235776900102
 20
6.67451085051362
 30
-0.03488317004692085
 70
32
  0
VERTEX
  5
2B3
330
17
100
AcDbEntity
  8
0
100
AcDbVertex
100
AcDb3dPolylineVertex
 10
8.62953461266779
 20
6.697596269250395
 30
-0.03488317004692085
 70
32
  0
VERTEX
  5
2B4
330
17
100
AcDbEntity
  8
0
100
AcDbVertex
100
AcDb3dPolylineVertex
 10
8.726833448435485
 20
6.72068168798717
 30
-0.03488317004692084
 70
32
  0
VERTEX
  5
2B5
330
17
100
AcDbEntity
  8
0
100
AcDbVertex
100
AcDb3dPolylineVertex
 10
8.824132284203166
 20
6.743767106723942
 30
-0.03488317004692084
 70
32
  0
VERTEX
  5
2B6
330
17
100
AcDbEntity
  8
0
100
AcDbVertex
100
AcDb3dPolylineVertex
 10
8.921431119970855
 20
6.766852525460717
 30
-0.03488317004692083
 70
32
  0
VERTEX
  5
2B7
330
17
100
AcDbEntity
  8
0
100
AcDbVertex
100
AcDb3dPolylineVertex
 10
9.01872995573855
 20
6.789937944197492
 30
-0.03488317004692083
 70
32
  0
VERTEX
  5
2B8
330
17
100
AcDbEntity
  8
0
100
AcDbVertex
100
AcDb3dPolylineVertex
 10
9.116028791506238
 20
6.813023362934267
 30
-0.034883170046920826
 70
32
  0
VERTEX
  5
2B9
330
17
100
AcDbEntity
  8
0
100
AcDbVertex
100
AcDb3dPolylineVertex
 10
9.213327627273927
 20
6.83610878167104
 30
-0.034883170046920826
 70
32
  0
VERTEX
  5
2BA
330
17
100
AcDbEntity
  8
0
100
AcDbVertex
100
AcDb3dPolylineVertex
 10
9.310626463041615
 20
6.8591942004078135
 30
-0.03488317004692082
 70
32
  0
VERTEX
  5
2BB
330
17
100
AcDbEntity
  8
0
100
AcDbVertex
100
AcDb3dPolylineVertex
 10
9.407925298809303
 20
6.8822796191445885
 30
-0.03488317004692082
 70
32
  0
VERTEX
  5
2BC
330
17
100
AcDbEntity
  8
0
100
AcDbVertex
100
AcDb3dPolylineVertex
 10
9.505224134576999
 20
6.905365037881364
 30
-0.03488317004692081
 70
32
  0
VERTEX
  5
2BD
330
17
100
AcDbEntity
  8
0
100
AcDbVertex
100
AcDb3dPolylineVertex
 10
9.602522970344687
 20
6.928450456618137
 30
-0.03488317004692081
 70
32
  0
VERTEX
  5
2BE
330
17
100
AcDbEntity
  8
0
100
AcDbVertex
100
AcDb3dPolylineVertex
 10
9.699821806112375
 20
6.951535875354912
 30
-0.034883170046920806
 70
32
  0
VERTEX
  5
2BF
330
17
100
AcDbEntity
  8
0
100
AcDbVertex
100
AcDb3dPolylineVertex
 10
9.797120641880063
 20
6.974621294091685
 30
-0.034883170046920806
 70
32
  0
VERTEX
  5
2C0
330
17
100
AcDbEntity
  8
0
100
AcDbVertex
100
AcDb3dPolylineVertex
 10
9.894419477647752
 20
6.99770671282846
 30
-0.0348831700469208
 70
32
  0
VERTEX
  5
2C1
330
17
100
AcDbEntity
  8
0
100
AcDbVertex
100
AcDb3dPolylineVertex
 10
9.99171831341544
 20
7.020792131565235
 30
-0.0348831700469208
 70
32
  0
VERTEX
  5
2C2
330
17
100
AcDbEntity
  8
0
100
AcDbVertex
100
AcDb3dPolylineVertex
 10
10.089017149183135
 20
7.043877550302009
 30
-0.03488317004692079
 70
32
  0
VERTEX
  5
2C3
330
17
100
AcDbEntity
  8
0
100
AcDbVertex
100
AcDb3dPolylineVertex
 10
10.186315984950824
 20
7.066962969038784
 30
-0.03488317004692079
 70
32
  0
SEQEND
  5
30
330
2F
100
AcDbEntity
  8
0
  0
ENDSEC
  0
SECTION
  2
OBJECTS
  0
DICTIONARY
  5
A
330
0
100
AcDbDictionary
281
1
  3
ACAD_COLOR
350
B
  3
ACAD_GROUP
350
C
  3
ACAD_LAYOUT
350
D
  3
ACAD_MATERIAL
350
E
  3
ACAD_MLEADERSTYLE
350
F
  3
ACAD_MLINESTYLE
350
10
  3
ACAD_PLOTSETTINGS
350
11
  3
ACAD_PLOTSTYLENAME
350
12
  3
ACAD_SCALELIST
350
14
  3
ACAD_TABLESTYLE
350
15
  3
ACAD_VISUALSTYLE
350
16
  3
EZDXF_META
350
2D
  0
DICTIONARY
  5
B
330
A
100
AcDbDictionary
281
1
  0
DICTIONARY
  5
C
330
A
100
AcDbDictionary
281
1
  0
DICTIONARY
  5
D
330
A
100
AcDbDictionary
281
1
  3
Model
350
1A
  3
Layout1
350
1E
  0
DICTIONARY
  5
E
330
A
100
AcDbDictionary
281
1
  3
ByBlock
350
1F
  3
ByLayer
350
20
  3
Global
350
21
  0
DICTIONARY
  5
F
330
A
100
AcDbDictionary
281
1
  3
Standard
350
2C
  0
DICTIONARY
  5
10
330
A
100
AcDbDictionary
281
1
  3
Standard
350
22
  0
DICTIONARY
  5
11
330
A
100
AcDbDictionary
281
1
  0
ACDBDICTIONARYWDFLT
  5
12
330
A
100
AcDbDictionary
281
1
  3
Normal
350
13
100
AcDbDictionaryWithDefault
340
13
  0
ACDBPLACEHOLDER
  5
13
330
12
  0
DICTIONARY
  5
14
330
A
100
AcDbDictionary
281
1
  0
DICTIONARY
  5
15
330
A
100
AcDbDictionary
281
1
  0
DICTIONARY
  5
16
330
A
100
AcDbDictionary
281
1
  0
LAYOUT
  5
1A
330
D
100
AcDbPlotSettings
  1

  4
A3
  6

 40
7.5
 41
20.0
 42
7.5
 43
20.0
 44
420.0
 45
297.0
 46
0.0
 47
0.0
 48
0.0
 49
0.0
140
0.0
141
0.0
142
1.0
143
1.0
 70
1024
 72
1
 73
0
 74
5
  7

 75
16
 76
0
 77
2
 78
300
147
1.0
148
0.0
149
0.0
100
AcDbLayout
  1
Model
 70
1
 71
0
 10
0.0
 20
0.0
 11
420.0
 21
297.0
 12
0.0
 22
0.0
 32
0.0
 14
1e+20
 24
1e+20
 34
1e+20
 15
-1e+20
 25
-1e+20
 35
-1e+20
146
0.0
 13
0.0
 23
0.0
 33
0.0
 16
1.0
 26
0.0
 36
0.0
 17
0.0
 27
1.0
 37
0.0
 76
1
330
17
  0
LAYOUT
  5
1E
330
D
100
AcDbPlotSettings
  1

  4
A3
  6

 40
7.5
 41
20.0
 42
7.5
 43
20.0
 44
420.0
 45
297.0
 46
0.0
 47
0.0
 48
0.0
 49
0.0
140
0.0
141
0.0
142
1.0
143
1.0
 70
0
 72
1
 73
0
 74
5
  7

 75
16
 76
0
 77
2
 78
300
147
1.0
148
0.0
149
0.0
100
AcDbLayout
  1
Layout1
 70
1
 71
1
 10
0.0
 20
0.0
 11
420.0
 21
297.0
 12
0.0
 22
0.0
 32
0.0
 14
1e+20
 24
1e+20
 34
1e+20
 15
-1e+20
 25
-1e+20
 35
-1e+20
146
0.0
 13
0.0
 23
0.0
 33
0.0
 16
1.0
 26
0.0
 36
0.0
 17
0.0
 27
1.0
 37
0.0
 76
1
330
1B
  0
MATERIAL
  5
1F
102
{ACAD_REACTORS
330
E
102
}
330
E
100
AcDbMaterial
  1
ByBlock
  2

 70
0
 40
1.0
 71
1
 41
1.0
 91
-1023410177
 42
1.0
 72
1
  3

 73
1
 74
1
 75
1
 44
0.5
 73
0
 45
1.0
 46
1.0
 77
1
  4

 78
1
 79
1
170
1
 48
1.0
171
1
  6

172
1
173
1
174
1
140
1.0
141
1.0
175
1
  7

176
1
177
1
178
1
143
1.0
179
1
  8

270
1
271
1
272
1
145
1.0
146
1.0
273
1
  9

274
1
275
1
276
1
 42
1.0
 72
1
  3

 73
1
 74
1
 75
1
 94
63
  0
MATERIAL
  5
20
102
{ACAD_REACTORS
330
E
102
}
330
E
100
AcDbMaterial
  1
ByLayer
  2

 70
0
 40
1.0
 71
1
 41
1.0
 91
-1023410177
 42
1.0
 72
1
  3

 73
1
 74
1
 75
1
 44
0.5
 73
0
 45
1.0
 46
1.0
 77
1
  4

 78
1
 79
1
170
1
 48
1.0
171
1
  6

172
1
173
1
174
1
140
1.0
141
1.0
175
1
  7

176
1
177
1
178
1
143
1.0
179
1
  8

270
1
271
1
272
1
145
1.0
146
1.0
273
1
  9

274
1
275
1
276
1
 42
1.0
 72
1
  3

 73
1
 74
1
 75
1
 94
63
  0
MATERIAL
  5
21
102
{ACAD_REACTORS
330
E
102
}
330
E
100
AcDbMaterial
  1
Global
  2

 70
0
 40
1.0
 71
1
 41
1.0
 91
-1023410177
 42
1.0
 72
1
  3

 73
1
 74
1
 75
1
 44
0.5
 73
0
 45
1.0
 46
1.0
 77
1
  4

 78
1
 79
1
170
1
 48
1.0
171
1
  6

172
1
173
1
174
1
140
1.0
141
1.0
175
1
  7

176
1
177
1
178
1
143
1.0
179
1
  8

270
1
271
1
272
1
145
1.0
146
1.0
273
1
  9

274
1
275
1
276
1
 42
1.0
 72
1
  3

 73
1
 74
1
 75
1
 94
63
  0
MLINESTYLE
  5
22
102
{ACAD_REACTORS
330
10
102
}
330
10
100
AcDbMlineStyle
  2
Standard
 70
0
  3

 62
256
 51
90.0
 52
90.0
 71
2
 49
0.5
 62
256
  6
BYLAYER
 49
-0.5
 62
256
  6
BYLAYER
  0
MLEADERSTYLE
  5
2C
102
{ACAD_REACTORS
330
F
102
}
330
F
100
AcDbMLeaderStyle
179
2
170
2
171
1
172
0
 90
2
 40
0.0
 41
0.0
173
1
 91
-1056964608
 92
-2
290
1
 42
2.0
291
1
 43
8.0
  3
Standard
 44
4.0
300

342
29
174
1
175
1
176
0
178
1
 93
-1056964608
 45
4.0
292
0
297
0
 46
4.0
 94
-1056964608
 47
1.0
 49
1.0
140
1.0
294
1
141
0.0
177
0
142
1.0
295
0
296
0
143
3.75
271
0
272
9
273
9
  0
DICTIONARY
  5
2D
330
A
100
AcDbDictionary
280
1
281
1
  3
CREATED_BY_EZDXF
350
2E
  3
WRITTEN_BY_EZDXF
350
2C6
  0
DICTIONARYVAR
  5
2E
330
2D
100
DictionaryVariables
280
0
  1
1.4.4 @ 2026-09-15T08:16:39.437068+00:00
  0
DICTIONARYVAR
  5
2C6
330
2D
100
DictionaryVariables
280
0
  1
1.4.4 @ 2026-09-15T08:16:39.449577+00:00
  0
ENDSEC
  0
EOF
